<svg xmlns="http://www.w3.org/2000/svg" xmlns:xlink="http://www.w3.org/1999/xlink" contentStyleType="text/css" height="485px" preserveAspectRatio="none" style="width:1058px;height:485px;background:#FFFFFF;" version="1.1" viewBox="0 0 1058 485" width="1058px" zoomAndPan="magnify"><defs/><g><path d="M19.5,112 L367.378,112 A12.5,12.5 0 0 1 379.878,124.5 L379.878,141.0679 L7,141.0679 L7,124.5 A12.5,12.5 0 0 1 19.5,112 " fill="#F1F1F1" style="stroke:#F1F1F1;stroke-width:1.0;"/><rect fill="none" height="262.0679" rx="12.5" ry="12.5" style="stroke:#181818;stroke-width:0.5;" width="372.878" x="7" y="112"/><line style="stroke:#181818;stroke-width:0.5;" x1="7" x2="379.878" y1="141.0679" y2="141.0679"/><text fill="#000000" font-family="sans-serif" font-size="14" lengthAdjust="spacing" textLength="158.7034" x="114.0873" y="131.9659">RepositoryManagement</text><ellipse cx="183" cy="162.0679" fill="#222222" rx="10" ry="10" style="stroke:#222222;stroke-width:1.0;"/><g id="RepositoryManagement.ViewingRepos"><rect fill="#F1F1F1" height="50" rx="12.5" ry="12.5" style="stroke:#181818;stroke-width:0.5;" width="112.1756" x="127" y="209.0679"/><line style="stroke:#181818;stroke-width:0.5;" x1="127" x2="239.1756" y1="238.1358" y2="238.1358"/><text fill="#000000" font-family="sans-serif" font-size="14" lengthAdjust="spacing" textLength="92.1756" x="137" y="229.0339">ViewingRepos</text></g><g id="RepositoryManagement.CreatingRepo"><rect fill="#F1F1F1" height="50" rx="12.5" ry="12.5" style="stroke:#181818;stroke-width:0.5;" width="109.9917" x="19" y="314.0679"/><line style="stroke:#181818;stroke-width:0.5;" x1="19" x2="128.9917" y1="343.1358" y2="343.1358"/><text fill="#000000" font-family="sans-serif" font-size="14" lengthAdjust="spacing" textLength="89.9917" x="29" y="334.0339">CreatingRepo</text></g><g id="RepositoryManagement.ForkingRepo"><rect fill="#F1F1F1" height="50" rx="12.5" ry="12.5" style="stroke:#181818;stroke-width:0.5;" width="103.5517" x="222" y="314.0679"/><line style="stroke:#181818;stroke-width:0.5;" x1="222" x2="325.5517" y1="343.1358" y2="343.1358"/><text fill="#000000" font-family="sans-serif" font-size="14" lengthAdjust="spacing" textLength="83.5517" x="232" y="334.0339">ForkingRepo</text></g><!--link *start*RepositoryManagement to ViewingRepos--><g id="link_*start*RepositoryManagement_ViewingRepos"><path d="M183,172.2179 C183,181.4879 183,190.2079 183,202.8479 " fill="none" id="*start*RepositoryManagement-to-ViewingRepos" style="stroke:#181818;stroke-width:1.0;"/><polygon fill="#181818" points="183,208.8479,187,199.8479,183,203.8479,179,199.8479,183,208.8479" style="stroke:#181818;stroke-width:1.0;"/></g><!--link ViewingRepos to CreatingRepo--><g id="link_ViewingRepos_CreatingRepo"><path d="M126.75,236.1379 C95.88,239.9679 59.92,250.4479 40,277.0679 C31.43,288.5179 34.166,297.7461 43.726,309.3561 " fill="none" id="ViewingRepos-to-CreatingRepo" style="stroke:#181818;stroke-width:1.0;"/><polygon fill="#181818" points="47.54,313.9879,44.9069,304.4976,44.3617,310.1281,38.7312,309.5828,47.54,313.9879" style="stroke:#181818;stroke-width:1.0;"/><text fill="#000000" font-family="sans-serif" font-size="13" lengthAdjust="spacing" textLength="69.537" x="41" y="291.9649">createRepo</text></g><!--link CreatingRepo to ViewingRepos--><g id="link_CreatingRepo_ViewingRepos"><path d="M98.67,313.8479 C110.24,302.5879 124.24,289.0579 137,277.0679 C143.15,271.2879 145.3953,269.1904 151.6953,263.4204 " fill="none" id="CreatingRepo-to-ViewingRepos" style="stroke:#181818;stroke-width:1.0;"/><polygon fill="#181818" points="156.12,259.3679,146.7814,262.4968,152.4328,262.7449,152.1846,268.3964,156.12,259.3679" style="stroke:#181818;stroke-width:1.0;"/><text fill="#000000" font-family="sans-serif" font-size="13" lengthAdjust="spacing" textLength="76.791" x="138" y="291.9649">repoCreated</text></g><!--link ViewingRepos to ForkingRepo--><g id="link_ViewingRepos_ForkingRepo"><path d="M203.27,259.3179 C212.79,270.5879 224.36,284.1079 235,296.0679 C240.16,301.8679 241.7246,303.6244 247.0646,309.3944 " fill="none" id="ViewingRepos-to-ForkingRepo" style="stroke:#181818;stroke-width:1.0;"/><polygon fill="#181818" points="251.14,313.7979,247.9626,304.4757,247.7438,310.1283,242.0912,309.9095,251.14,313.7979" style="stroke:#181818;stroke-width:1.0;"/><text fill="#000000" font-family="sans-serif" font-size="13" lengthAdjust="spacing" textLength="55.926" x="236" y="291.9649">forkRepo</text></g><!--link ForkingRepo to ViewingRepos--><g id="link_ForkingRepo_ViewingRepos"><path d="M290.19,313.9579 C296.01,302.0779 299.5,287.9879 292,277.0679 C279.89,259.4279 265.0035,250.8999 244.9235,244.9599 " fill="none" id="ForkingRepo-to-ViewingRepos" style="stroke:#181818;stroke-width:1.0;"/><polygon fill="#181818" points="239.17,243.2579,246.6656,249.6466,243.9646,244.6762,248.935,241.9752,239.17,243.2579" style="stroke:#181818;stroke-width:1.0;"/><text fill="#000000" font-family="sans-serif" font-size="13" lengthAdjust="spacing" textLength="72.878" x="297" y="291.9649">forkCreated</text></g><path d="M427.5,112 L785.1631,112 A12.5,12.5 0 0 1 797.6631,124.5 L797.6631,141.0679 L415,141.0679 L415,124.5 A12.5,12.5 0 0 1 427.5,112 " fill="#F1F1F1" style="stroke:#F1F1F1;stroke-width:1.0;"/><rect fill="none" height="262.0679" rx="12.5" ry="12.5" style="stroke:#181818;stroke-width:0.5;" width="382.6631" x="415" y="112"/><line style="stroke:#181818;stroke-width:0.5;" x1="415" x2="797.6631" y1="141.0679" y2="141.0679"/><text fill="#000000" font-family="sans-serif" font-size="14" lengthAdjust="spacing" textLength="91.1956" x="560.7337" y="131.9659">IssueTracking</text><ellipse cx="592.5" cy="162.0679" fill="#222222" rx="10" ry="10" style="stroke:#222222;stroke-width:1.0;"/><g id="IssueTracking.ViewingIssues"><rect fill="#F1F1F1" height="50" rx="12.5" ry="12.5" style="stroke:#181818;stroke-width:0.5;" width="113.1976" x="536" y="209.0679"/><line style="stroke:#181818;stroke-width:0.5;" x1="536" x2="649.1976" y1="238.1358" y2="238.1358"/><text fill="#000000" font-family="sans-serif" font-size="14" lengthAdjust="spacing" textLength="93.1976" x="546" y="229.0339">ViewingIssues</text></g><g id="IssueTracking.CreatingIssue"><rect fill="#F1F1F1" height="50" rx="12.5" ry="12.5" style="stroke:#181818;stroke-width:0.5;" width="111.0137" x="427" y="314.0679"/><line style="stroke:#181818;stroke-width:0.5;" x1="427" x2="538.0137" y1="343.1358" y2="343.1358"/><text fill="#000000" font-family="sans-serif" font-size="14" lengthAdjust="spacing" textLength="91.0137" x="437" y="334.0339">CreatingIssue</text></g><g id="IssueTracking.ClosingIssue"><rect fill="#F1F1F1" height="50" rx="12.5" ry="12.5" style="stroke:#181818;stroke-width:0.5;" width="103.2157" x="637" y="314.0679"/><line style="stroke:#181818;stroke-width:0.5;" x1="637" x2="740.2157" y1="343.1358" y2="343.1358"/><text fill="#000000" font-family="sans-serif" font-size="14" lengthAdjust="spacing" textLength="83.2157" x="647" y="334.0339">ClosingIssue</text></g><!--link *start*IssueTracking to ViewingIssues--><g id="link_*start*IssueTracking_ViewingIssues"><path d="M592.5,172.2179 C592.5,181.4879 592.5,190.2079 592.5,202.8479 " fill="none" id="*start*IssueTracking-to-ViewingIssues" style="stroke:#181818;stroke-width:1.0;"/><polygon fill="#181818" points="592.5,208.8479,596.5,199.8479,592.5,203.8479,588.5,199.8479,592.5,208.8479" style="stroke:#181818;stroke-width:1.0;"/></g><!--link ViewingIssues to CreatingIssue--><g id="link_ViewingIssues_CreatingIssue"><path d="M535.8,244.1879 C499.62,251.2979 457.53,262.4279 446.5,277.0679 C437.85,288.5579 440.7071,297.7394 450.6171,309.2594 " fill="none" id="ViewingIssues-to-CreatingIssue" style="stroke:#181818;stroke-width:1.0;"/><polygon fill="#181818" points="454.53,313.8079,451.6931,304.3765,451.2693,310.0174,445.6283,309.5937,454.53,313.8079" style="stroke:#181818;stroke-width:1.0;"/><text fill="#000000" font-family="sans-serif" font-size="13" lengthAdjust="spacing" textLength="70.486" x="447.5" y="291.9649">createIssue</text></g><!--link CreatingIssue to ViewingIssues--><g id="link_CreatingIssue_ViewingIssues"><path d="M505.84,313.8779 C517.03,302.5079 530.75,288.8679 543.5,277.0679 C549.91,271.1279 552.4236,268.8233 559.1236,263.0533 " fill="none" id="CreatingIssue-to-ViewingIssues" style="stroke:#181818;stroke-width:1.0;"/><polygon fill="#181818" points="563.67,259.1379,554.2401,261.98,559.8813,262.4007,559.4606,268.0419,563.67,259.1379" style="stroke:#181818;stroke-width:1.0;"/><text fill="#000000" font-family="sans-serif" font-size="13" lengthAdjust="spacing" textLength="79.4041" x="544.5" y="291.9649">issueCreated</text></g><!--link ViewingIssues to ClosingIssue--><g id="link_ViewingIssues_ClosingIssue"><path d="M612.7,259.2279 C622.4,270.5979 634.33,284.2279 645.5,296.0679 C651.09,301.9879 652.9811,303.9918 658.8611,309.7718 " fill="none" id="ViewingIssues-to-ClosingIssue" style="stroke:#181818;stroke-width:1.0;"/><polygon fill="#181818" points="663.14,313.9779,659.5258,304.8162,659.5743,310.4728,653.9176,310.5213,663.14,313.9779" style="stroke:#181818;stroke-width:1.0;"/><text fill="#000000" font-family="sans-serif" font-size="13" lengthAdjust="spacing" textLength="63.245" x="646.5" y="291.9649">closeIssue</text></g><!--link ClosingIssue to ViewingIssues--><g id="link_ClosingIssue_ViewingIssues"><path d="M707.12,314.0579 C713.94,302.1979 718.29,288.1079 710.5,277.0679 C696.46,257.1679 677.9523,248.0464 655.0123,242.5064 " fill="none" id="ClosingIssue-to-ViewingIssues" style="stroke:#181818;stroke-width:1.0;"/><polygon fill="#181818" points="649.18,241.0979,656.9895,247.0989,654.0403,242.2717,658.8675,239.3225,649.18,241.0979" style="stroke:#181818;stroke-width:1.0;"/><text fill="#000000" font-family="sans-serif" font-size="13" lengthAdjust="spacing" textLength="72.1631" x="715.5" y="291.9649">issueClosed</text></g><path d="M845,7 L1032.0651,7 A12.5,12.5 0 0 1 1044.5651,19.5 L1044.5651,36.0679 L832.5,36.0679 L832.5,19.5 A12.5,12.5 0 0 1 845,7 " fill="#F1F1F1" style="stroke:#F1F1F1;stroke-width:1.0;"/><rect fill="none" height="472.0679" rx="12.5" ry="12.5" style="stroke:#181818;stroke-width:0.5;" width="212.0651" x="832.5" y="7"/><line style="stroke:#181818;stroke-width:0.5;" x1="832.5" x2="1044.5651" y1="36.0679" y2="36.0679"/><text fill="#000000" font-family="sans-serif" font-size="14" lengthAdjust="spacing" textLength="140.5174" x="868.2738" y="26.9659">PullRequestWorkflow</text><ellipse cx="923" cy="57.0679" fill="#222222" rx="10" ry="10" style="stroke:#222222;stroke-width:1.0;"/><g id="PullRequestWorkflow.ViewingPRs"><rect fill="#F1F1F1" height="50" rx="12.5" ry="12.5" style="stroke:#181818;stroke-width:0.5;" width="95.6697" x="875" y="104.0679"/><line style="stroke:#181818;stroke-width:0.5;" x1="875" x2="970.6697" y1="133.1358" y2="133.1358"/><text fill="#000000" font-family="sans-serif" font-size="14" lengthAdjust="spacing" textLength="75.6697" x="885" y="124.0339">ViewingPRs</text></g><g id="PullRequestWorkflow.CreatingPR"><rect fill="#F1F1F1" height="50" rx="12.5" ry="12.5" style="stroke:#181818;stroke-width:0.5;" width="93.4857" x="876.5" y="209.0679"/><line style="stroke:#181818;stroke-width:0.5;" x1="876.5" x2="969.9857" y1="238.1358" y2="238.1358"/><text fill="#000000" font-family="sans-serif" font-size="14" lengthAdjust="spacing" textLength="73.4857" x="886.5" y="229.0339">CreatingPR</text></g><g id="PullRequestWorkflow.ReviewingPR"><rect fill="#F1F1F1" height="50" rx="12.5" ry="12.5" style="stroke:#181818;stroke-width:0.5;" width="104.2796" x="871" y="314.0679"/><line style="stroke:#181818;stroke-width:0.5;" x1="871" x2="975.2796" y1="343.1358" y2="343.1358"/><text fill="#000000" font-family="sans-serif" font-size="14" lengthAdjust="spacing" textLength="84.2796" x="881" y="334.0339">ReviewingPR</text></g><g id="PullRequestWorkflow.Merged"><rect fill="#F1F1F1" height="50" rx="12.5" ry="12.5" style="stroke:#181818;stroke-width:0.5;" width="71.4918" x="844.5" y="419.0679"/><line style="stroke:#181818;stroke-width:0.5;" x1="844.5" x2="915.9918" y1="448.1358" y2="448.1358"/><text fill="#000000" font-family="sans-serif" font-size="14" lengthAdjust="spacing" textLength="51.4918" x="854.5" y="439.0339">Merged</text></g><g id="PullRequestWorkflow.Closed"><rect fill="#F1F1F1" height="50" rx="12.5" ry="12.5" style="stroke:#181818;stroke-width:0.5;" width="64.1418" x="934" y="419.0679"/><line style="stroke:#181818;stroke-width:0.5;" x1="934" x2="998.1418" y1="448.1358" y2="448.1358"/><text fill="#000000" font-family="sans-serif" font-size="14" lengthAdjust="spacing" textLength="44.1418" x="944" y="439.0339">Closed</text></g><!--link *start*PullRequestWorkflow to ViewingPRs--><g id="link_*start*PullRequestWorkflow_ViewingPRs"><path d="M923,67.2179 C923,76.4879 923,85.2079 923,97.8479 " fill="none" id="*start*PullRequestWorkflow-to-ViewingPRs" style="stroke:#181818;stroke-width:1.0;"/><polygon fill="#181818" points="923,103.8479,927,94.8479,923,98.8479,919,94.8479,923,103.8479" style="stroke:#181818;stroke-width:1.0;"/></g><!--link ViewingPRs to CreatingPR--><g id="link_ViewingPRs_CreatingPR"><path d="M923,154.2179 C923,170.6279 923,186.2579 923,202.7179 " fill="none" id="ViewingPRs-to-CreatingPR" style="stroke:#181818;stroke-width:1.0;"/><polygon fill="#181818" points="923,208.7179,927,199.7179,923,203.7179,919,199.7179,923,208.7179" style="stroke:#181818;stroke-width:1.0;"/><text fill="#000000" font-family="sans-serif" font-size="13" lengthAdjust="spacing" textLength="110.5651" x="924" y="186.9649">createPullRequest</text></g><!--link CreatingPR to ReviewingPR--><g id="link_CreatingPR_ReviewingPR"><path d="M923,259.2179 C923,275.6279 923,291.2579 923,307.7179 " fill="none" id="CreatingPR-to-ReviewingPR" style="stroke:#181818;stroke-width:1.0;"/><polygon fill="#181818" points="923,313.7179,927,304.7179,923,308.7179,919,304.7179,923,313.7179" style="stroke:#181818;stroke-width:1.0;"/><text fill="#000000" font-family="sans-serif" font-size="13" lengthAdjust="spacing" textLength="58.4091" x="924" y="291.9649">submitPR</text></g><!--link ReviewingPR to Merged--><g id="link_ReviewingPR_Merged"><path d="M897.08,364.4879 C892.71,369.8579 888.71,375.8279 886,382.0679 C880.99,393.5879 879.5059,401.4505 879.1659,413.0405 " fill="none" id="ReviewingPR-to-Merged" style="stroke:#181818;stroke-width:1.0;"/><polygon fill="#181818" points="878.99,419.0379,883.2522,410.1591,879.1366,414.0401,875.2556,409.9245,878.99,419.0379" style="stroke:#181818;stroke-width:1.0;"/><text fill="#000000" font-family="sans-serif" font-size="13" lengthAdjust="spacing" textLength="56.134" x="887" y="396.9649">mergePR</text></g><!--link ReviewingPR to Closed--><g id="link_ReviewingPR_Closed"><path d="M935.71,364.2679 C938.57,370.0379 941.5,376.2279 944,382.0679 C949.14,394.0679 952.1753,402.0487 956.1053,413.3887 " fill="none" id="ReviewingPR-to-Closed" style="stroke:#181818;stroke-width:1.0;"/><polygon fill="#181818" points="958.07,419.0579,958.9024,409.2443,956.4327,414.3336,951.3434,411.8639,958.07,419.0579" style="stroke:#181818;stroke-width:1.0;"/><text fill="#000000" font-family="sans-serif" font-size="13" lengthAdjust="spacing" textLength="46.969" x="952" y="396.9649">closePR</text></g><!--SRC=[TP7Dgi8m44RtVOgi1L_0XHlXWWkX1D65kCZLiGJxeqbwoqLyTsUcjauqTjDEvimtdDG74q1fk3JUXiRzhqnj2gYW3kgMANnsaxsQJkTgOw6pTS4aD-G14mi79ZnFr4mTg0Gg68-wxu68Etmp0yTq_4_Zpg_q4rPZjcmbeeaTekzPvbbvwNqBQsSED9bsPIIIxKyYMpuQTRcAVFl-HofEMFf8ACib9VuMiGDBkK9sls-W8I6UjsMfuOf4sEB5dCgcI-ldEdB7CXBFzMWj8YDtH6X2mzyGWIE-_Qrio3MJiaNe2bm1HwGg-lW2zKR3VI1qpnu0]--></g></svg>