<svg xmlns="http://www.w3.org/2000/svg" xmlns:xlink="http://www.w3.org/1999/xlink" contentStyleType="text/css" height="485px" preserveAspectRatio="none" style="width:1113px;height:485px;background:#FFFFFF;" version="1.1" viewBox="0 0 1113 485" width="1113px" zoomAndPan="magnify"><defs/><g><path d="M19.5,112 L391.1781,112 A12.5,12.5 0 0 1 403.6781,124.5 L403.6781,141.0679 L7,141.0679 L7,124.5 A12.5,12.5 0 0 1 19.5,112 " fill="#F1F1F1" style="stroke:#F1F1F1;stroke-width:1.0;"/><rect fill="none" height="262.0679" rx="12.5" ry="12.5" style="stroke:#181818;stroke-width:0.5;" width="396.6781" x="7" y="112"/><line style="stroke:#181818;stroke-width:0.5;" x1="7" x2="403.6781" y1="141.0679" y2="141.0679"/><text fill="#000000" font-family="sans-serif" font-size="14" lengthAdjust="spacing" textLength="158.7034" x="125.9873" y="131.9659">RepositoryManagement</text><ellipse cx="187" cy="162.0679" fill="#222222" rx="10" ry="10" style="stroke:#222222;stroke-width:1.0;"/><g id="RepositoryManagement.ViewingRepos"><rect fill="#F1F1F1" height="50" rx="12.5" ry="12.5" style="stroke:#181818;stroke-width:0.5;" width="112.1756" x="131" y="209.0679"/><line style="stroke:#181818;stroke-width:0.5;" x1="131" x2="243.1756" y1="238.1358" y2="238.1358"/><text fill="#000000" font-family="sans-serif" font-size="14" lengthAdjust="spacing" textLength="92.1756" x="141" y="229.0339">ViewingRepos</text></g><g id="RepositoryManagement.CreatingRepo"><rect fill="#F1F1F1" height="50" rx="12.5" ry="12.5" style="stroke:#181818;stroke-width:0.5;" width="109.9917" x="19" y="314.0679"/><line style="stroke:#181818;stroke-width:0.5;" x1="19" x2="128.9917" y1="343.1358" y2="343.1358"/><text fill="#000000" font-family="sans-serif" font-size="14" lengthAdjust="spacing" textLength="89.9917" x="29" y="334.0339">CreatingRepo</text></g><g id="RepositoryManagement.ForkingRepo"><rect fill="#F1F1F1" height="50" rx="12.5" ry="12.5" style="stroke:#181818;stroke-width:0.5;" width="103.5517" x="234" y="314.0679"/><line style="stroke:#181818;stroke-width:0.5;" x1="234" x2="337.5517" y1="343.1358" y2="343.1358"/><text fill="#000000" font-family="sans-serif" font-size="14" lengthAdjust="spacing" textLength="83.5517" x="244" y="334.0339">ForkingRepo</text></g><!--link *start*RepositoryManagement to ViewingRepos--><g id="link_*start*RepositoryManagement_ViewingRepos"><path d="M187,172.2179 C187,181.4879 187,190.2079 187,202.8479 " fill="none" id="*start*RepositoryManagement-to-ViewingRepos" style="stroke:#181818;stroke-width:1.0;"/><polygon fill="#181818" points="187,208.8479,191,199.8479,187,203.8479,183,199.8479,187,208.8479" style="stroke:#181818;stroke-width:1.0;"/></g><!--link ViewingRepos to CreatingRepo--><g id="link_ViewingRepos_CreatingRepo"><path d="M130.96,242.9979 C91.72,249.8279 44.2,261.1279 32,277.0679 C22.94,288.9179 26.4975,298.2753 37.7075,309.6453 " fill="none" id="ViewingRepos-to-CreatingRepo" style="stroke:#181818;stroke-width:1.0;"/><polygon fill="#181818" points="41.92,313.9179,38.4497,304.7007,38.4096,310.3574,32.7529,310.3173,41.92,313.9179" style="stroke:#181818;stroke-width:1.0;"/><text fill="#000000" font-family="sans-serif" font-size="13" lengthAdjust="spacing" textLength="77.3371" x="33" y="291.9649">createRepo()</text></g><!--link CreatingRepo to ViewingRepos--><g id="link_CreatingRepo_ViewingRepos"><path d="M96.9,314.0079 C108.11,302.5379 121.97,288.7879 135,277.0679 C141.64,271.0979 144.3459,268.6947 151.3759,262.9747 " fill="none" id="CreatingRepo-to-ViewingRepos" style="stroke:#181818;stroke-width:1.0;"/><polygon fill="#181818" points="156.03,259.1879,146.5244,261.7654,152.1516,262.3436,151.5735,267.9708,156.03,259.1879" style="stroke:#181818;stroke-width:1.0;"/><text fill="#000000" font-family="sans-serif" font-size="13" lengthAdjust="spacing" textLength="84.5911" x="136" y="291.9649">repoCreated()</text></g><!--link ViewingRepos to ForkingRepo--><g id="link_ViewingRepos_ForkingRepo"><path d="M208.51,259.0979 C218.81,270.4479 231.39,284.0979 243,296.0679 C248.67,301.9079 250.5839,303.8992 256.4739,309.6692 " fill="none" id="ViewingRepos-to-ForkingRepo" style="stroke:#181818;stroke-width:1.0;"/><polygon fill="#181818" points="260.76,313.8679,257.1301,304.7124,257.1883,310.369,251.5317,310.4272,260.76,313.8679" style="stroke:#181818;stroke-width:1.0;"/><text fill="#000000" font-family="sans-serif" font-size="13" lengthAdjust="spacing" textLength="63.7261" x="244" y="291.9649">forkRepo()</text></g><!--link ForkingRepo to ViewingRepos--><g id="link_ForkingRepo_ViewingRepos"><path d="M304.66,314.0279 C311.49,302.1679 315.83,288.0779 308,277.0679 C293.18,256.2279 273.107,246.9403 249.047,241.5903 " fill="none" id="ForkingRepo-to-ViewingRepos" style="stroke:#181818;stroke-width:1.0;"/><polygon fill="#181818" points="243.19,240.2879,251.1072,246.1461,248.0708,241.3732,252.8437,238.3368,243.19,240.2879" style="stroke:#181818;stroke-width:1.0;"/><text fill="#000000" font-family="sans-serif" font-size="13" lengthAdjust="spacing" textLength="80.6781" x="313" y="291.9649">forkCreated()</text></g><path d="M451,112 L832.4631,112 A12.5,12.5 0 0 1 844.9631,124.5 L844.9631,141.0679 L438.5,141.0679 L438.5,124.5 A12.5,12.5 0 0 1 451,112 " fill="#F1F1F1" style="stroke:#F1F1F1;stroke-width:1.0;"/><rect fill="none" height="262.0679" rx="12.5" ry="12.5" style="stroke:#181818;stroke-width:0.5;" width="406.4631" x="438.5" y="112"/><line style="stroke:#181818;stroke-width:0.5;" x1="438.5" x2="844.9631" y1="141.0679" y2="141.0679"/><text fill="#000000" font-family="sans-serif" font-size="14" lengthAdjust="spacing" textLength="91.1956" x="596.1337" y="131.9659">IssueTracking</text><ellipse cx="620" cy="162.0679" fill="#222222" rx="10" ry="10" style="stroke:#222222;stroke-width:1.0;"/><g id="IssueTracking.ViewingIssues"><rect fill="#F1F1F1" height="50" rx="12.5" ry="12.5" style="stroke:#181818;stroke-width:0.5;" width="113.1976" x="563.5" y="209.0679"/><line style="stroke:#181818;stroke-width:0.5;" x1="563.5" x2="676.6976" y1="238.1358" y2="238.1358"/><text fill="#000000" font-family="sans-serif" font-size="14" lengthAdjust="spacing" textLength="93.1976" x="573.5" y="229.0339">ViewingIssues</text></g><g id="IssueTracking.CreatingIssue"><rect fill="#F1F1F1" height="50" rx="12.5" ry="12.5" style="stroke:#181818;stroke-width:0.5;" width="111.0137" x="450.5" y="314.0679"/><line style="stroke:#181818;stroke-width:0.5;" x1="450.5" x2="561.5137" y1="343.1358" y2="343.1358"/><text fill="#000000" font-family="sans-serif" font-size="14" lengthAdjust="spacing" textLength="91.0137" x="460.5" y="334.0339">CreatingIssue</text></g><g id="IssueTracking.ClosingIssue"><rect fill="#F1F1F1" height="50" rx="12.5" ry="12.5" style="stroke:#181818;stroke-width:0.5;" width="103.2157" x="672.5" y="314.0679"/><line style="stroke:#181818;stroke-width:0.5;" x1="672.5" x2="775.7157" y1="343.1358" y2="343.1358"/><text fill="#000000" font-family="sans-serif" font-size="14" lengthAdjust="spacing" textLength="83.2157" x="682.5" y="334.0339">ClosingIssue</text></g><!--link *start*IssueTracking to ViewingIssues--><g id="link_*start*IssueTracking_ViewingIssues"><path d="M620,172.2179 C620,181.4879 620,190.2079 620,202.8479 " fill="none" id="*start*IssueTracking-to-ViewingIssues" style="stroke:#181818;stroke-width:1.0;"/><polygon fill="#181818" points="620,208.8479,624,199.8479,620,203.8479,616,199.8479,620,208.8479" style="stroke:#181818;stroke-width:1.0;"/></g><!--link ViewingIssues to CreatingIssue--><g id="link_ViewingIssues_CreatingIssue"><path d="M563.3,242.7779 C523.23,249.5279 474.5,260.8079 462,277.0679 C452.77,289.0779 456.6334,298.5502 468.3234,309.8902 " fill="none" id="ViewingIssues-to-CreatingIssue" style="stroke:#181818;stroke-width:1.0;"/><polygon fill="#181818" points="472.63,314.0679,468.9552,304.9303,469.0411,310.5865,463.3849,310.6725,472.63,314.0679" style="stroke:#181818;stroke-width:1.0;"/><text fill="#000000" font-family="sans-serif" font-size="13" lengthAdjust="spacing" textLength="78.2861" x="463" y="291.9649">createIssue()</text></g><!--link CreatingIssue to ViewingIssues--><g id="link_CreatingIssue_ViewingIssues"><path d="M528.38,313.8679 C539.37,302.3579 553.02,288.6279 566,277.0679 C572.74,271.0679 575.5237,268.6369 582.7337,262.9669 " fill="none" id="CreatingIssue-to-ViewingIssues" style="stroke:#181818;stroke-width:1.0;"/><polygon fill="#181818" points="587.45,259.2579,577.9029,261.6771,583.5197,262.3487,582.8482,267.9656,587.45,259.2579" style="stroke:#181818;stroke-width:1.0;"/><text fill="#000000" font-family="sans-serif" font-size="13" lengthAdjust="spacing" textLength="87.2041" x="567" y="291.9649">issueCreated()</text></g><!--link ViewingIssues to ClosingIssue--><g id="link_ViewingIssues_ClosingIssue"><path d="M641.71,259.2979 C652.15,270.6879 664.98,284.3079 677,296.0679 C683.1,302.0379 685.3878,304.2568 691.8178,310.0368 " fill="none" id="ViewingIssues-to-ClosingIssue" style="stroke:#181818;stroke-width:1.0;"/><polygon fill="#181818" points="696.28,314.0479,692.2608,305.0565,692.5615,310.7053,686.9127,311.006,696.28,314.0479" style="stroke:#181818;stroke-width:1.0;"/><text fill="#000000" font-family="sans-serif" font-size="13" lengthAdjust="spacing" textLength="71.0451" x="678" y="291.9649">closeIssue()</text></g><!--link ClosingIssue to ViewingIssues--><g id="link_ClosingIssue_ViewingIssues"><path d="M745.3,313.8779 C753.01,302.1079 758.06,288.1479 750,277.0679 C733.18,253.9579 709.2958,244.3571 682.4758,239.5471 " fill="none" id="ClosingIssue-to-ViewingIssues" style="stroke:#181818;stroke-width:1.0;"/><polygon fill="#181818" points="676.57,238.4879,684.7226,244.0138,681.4915,239.3706,686.1348,236.1395,676.57,238.4879" style="stroke:#181818;stroke-width:1.0;"/><text fill="#000000" font-family="sans-serif" font-size="13" lengthAdjust="spacing" textLength="79.9631" x="755" y="291.9649">issueClosed()</text></g><path d="M891.5,7 L1087.3651,7 A12.5,12.5 0 0 1 1099.8651,19.5 L1099.8651,36.0679 L879,36.0679 L879,19.5 A12.5,12.5 0 0 1 891.5,7 " fill="#F1F1F1" style="stroke:#F1F1F1;stroke-width:1.0;"/><rect fill="none" height="472.0679" rx="12.5" ry="12.5" style="stroke:#181818;stroke-width:0.5;" width="220.8651" x="879" y="7"/><line style="stroke:#181818;stroke-width:0.5;" x1="879" x2="1099.8651" y1="36.0679" y2="36.0679"/><text fill="#000000" font-family="sans-serif" font-size="14" lengthAdjust="spacing" textLength="140.5174" x="919.1738" y="26.9659">PullRequestWorkflow</text><ellipse cx="970.5" cy="57.0679" fill="#222222" rx="10" ry="10" style="stroke:#222222;stroke-width:1.0;"/><g id="PullRequestWorkflow.ViewingPRs"><rect fill="#F1F1F1" height="50" rx="12.5" ry="12.5" style="stroke:#181818;stroke-width:0.5;" width="95.6697" x="922.5" y="104.0679"/><line style="stroke:#181818;stroke-width:0.5;" x1="922.5" x2="1018.1697" y1="133.1358" y2="133.1358"/><text fill="#000000" font-family="sans-serif" font-size="14" lengthAdjust="spacing" textLength="75.6697" x="932.5" y="124.0339">ViewingPRs</text></g><g id="PullRequestWorkflow.CreatingPR"><rect fill="#F1F1F1" height="50" rx="12.5" ry="12.5" style="stroke:#181818;stroke-width:0.5;" width="93.4857" x="924" y="209.0679"/><line style="stroke:#181818;stroke-width:0.5;" x1="924" x2="1017.4857" y1="238.1358" y2="238.1358"/><text fill="#000000" font-family="sans-serif" font-size="14" lengthAdjust="spacing" textLength="73.4857" x="934" y="229.0339">CreatingPR</text></g><g id="PullRequestWorkflow.ReviewingPR"><rect fill="#F1F1F1" height="50" rx="12.5" ry="12.5" style="stroke:#181818;stroke-width:0.5;" width="104.2796" x="918.5" y="314.0679"/><line style="stroke:#181818;stroke-width:0.5;" x1="918.5" x2="1022.7796" y1="343.1358" y2="343.1358"/><text fill="#000000" font-family="sans-serif" font-size="14" lengthAdjust="spacing" textLength="84.2796" x="928.5" y="334.0339">ReviewingPR</text></g><g id="PullRequestWorkflow.Merged"><rect fill="#F1F1F1" height="50" rx="12.5" ry="12.5" style="stroke:#181818;stroke-width:0.5;" width="71.4918" x="891" y="419.0679"/><line style="stroke:#181818;stroke-width:0.5;" x1="891" x2="962.4918" y1="448.1358" y2="448.1358"/><text fill="#000000" font-family="sans-serif" font-size="14" lengthAdjust="spacing" textLength="51.4918" x="901" y="439.0339">Merged</text></g><g id="PullRequestWorkflow.Closed"><rect fill="#F1F1F1" height="50" rx="12.5" ry="12.5" style="stroke:#181818;stroke-width:0.5;" width="64.1418" x="982.5" y="419.0679"/><line style="stroke:#181818;stroke-width:0.5;" x1="982.5" x2="1046.6418" y1="448.1358" y2="448.1358"/><text fill="#000000" font-family="sans-serif" font-size="14" lengthAdjust="spacing" textLength="44.1418" x="992.5" y="439.0339">Closed</text></g><!--link *start*PullRequestWorkflow to ViewingPRs--><g id="link_*start*PullRequestWorkflow_ViewingPRs"><path d="M970.5,67.2179 C970.5,76.4879 970.5,85.2079 970.5,97.8479 " fill="none" id="*start*PullRequestWorkflow-to-ViewingPRs" style="stroke:#181818;stroke-width:1.0;"/><polygon fill="#181818" points="970.5,103.8479,974.5,94.8479,970.5,98.8479,966.5,94.8479,970.5,103.8479" style="stroke:#181818;stroke-width:1.0;"/></g><!--link ViewingPRs to CreatingPR--><g id="link_ViewingPRs_CreatingPR"><path d="M970.5,154.2179 C970.5,170.6279 970.5,186.2579 970.5,202.7179 " fill="none" id="ViewingPRs-to-CreatingPR" style="stroke:#181818;stroke-width:1.0;"/><polygon fill="#181818" points="970.5,208.7179,974.5,199.7179,970.5,203.7179,966.5,199.7179,970.5,208.7179" style="stroke:#181818;stroke-width:1.0;"/><text fill="#000000" font-family="sans-serif" font-size="13" lengthAdjust="spacing" textLength="118.3651" x="971.5" y="186.9649">createPullRequest()</text></g><!--link CreatingPR to ReviewingPR--><g id="link_CreatingPR_ReviewingPR"><path d="M970.5,259.2179 C970.5,275.6279 970.5,291.2579 970.5,307.7179 " fill="none" id="CreatingPR-to-ReviewingPR" style="stroke:#181818;stroke-width:1.0;"/><polygon fill="#181818" points="970.5,313.7179,974.5,304.7179,970.5,308.7179,966.5,304.7179,970.5,313.7179" style="stroke:#181818;stroke-width:1.0;"/><text fill="#000000" font-family="sans-serif" font-size="13" lengthAdjust="spacing" textLength="66.2091" x="971.5" y="291.9649">submitPR()</text></g><!--link ReviewingPR to Merged--><g id="link_ReviewingPR_Merged"><path d="M939.53,364.2079 C934.66,369.5279 930.31,375.5479 927.5,382.0679 C922.56,393.5479 921.5523,401.4218 922.3423,413.0218 " fill="none" id="ReviewingPR-to-Merged" style="stroke:#181818;stroke-width:1.0;"/><polygon fill="#181818" points="922.75,419.0079,926.1292,409.7569,922.4103,414.0195,918.1477,410.3005,922.75,419.0079" style="stroke:#181818;stroke-width:1.0;"/><text fill="#000000" font-family="sans-serif" font-size="13" lengthAdjust="spacing" textLength="63.9341" x="928.5" y="396.9649">mergePR()</text></g><!--link ReviewingPR to Closed--><g id="link_ReviewingPR_Closed"><path d="M983.87,364.2179 C986.86,369.9979 989.92,376.1879 992.5,382.0679 C997.76,394.0179 1000.8202,401.9936 1004.7202,413.3436 " fill="none" id="ReviewingPR-to-Closed" style="stroke:#181818;stroke-width:1.0;"/><polygon fill="#181818" points="1006.67,419.0179,1007.5282,409.2065,1005.0452,414.2893,999.9624,411.8062,1006.67,419.0179" style="stroke:#181818;stroke-width:1.0;"/><text fill="#000000" font-family="sans-serif" font-size="13" lengthAdjust="spacing" textLength="54.7691" x="1000.5" y="396.9649">closePR()</text></g><!--SRC=[TL7B2i8m4BptAt9KmH_mu4KGF0WbY1x4Gwnh2VQXIQg8zD_TtRQQrDfBExipiypKEkL0IBYMLhlIFDUgK2daK3ZnYWG- -yb1JATpiTNmq4NAJ5xu0sOi32ZNJiHC90I1m6ZCWc3VjqI1mJTpuDGgVauiItFvNZWZylpzvO0ziR_sTHHPZhwojeADKGbfXpCp9GZTJ8BKFFh4PjJBtJ1-V56ZwMCmkdyemr_atK4Odl7t_w-GB2WWhh9CmWqvReSLdRFoCLn3B8CE40O5nFAJthFiTO0aqaYuToOeijKnrowMBTTV4daD9eKJydBw-4jhadNDCAsEtW00]--></g></svg>