<svg xmlns="http://www.w3.org/2000/svg" xmlns:xlink="http://www.w3.org/1999/xlink" contentStyleType="text/css" height="1224px" preserveAspectRatio="none" style="width:594px;height:1224px;background:#FFFFFF;" version="1.1" viewBox="0 0 594 1224" width="594px" zoomAndPan="magnify"><defs/><g><!--class Usuario--><g id="elem_Usuario"><rect codeLine="3" fill="#F1F1F1" height="86.1358" id="Usuario" rx="2.5" ry="2.5" style="stroke:#181818;stroke-width:0.5;" width="92.5277" x="180.5" y="7"/><ellipse cx="199.6481" cy="23" fill="#ADD1B2" rx="11" ry="11" style="stroke:#181818;stroke-width:1.0;"/><path d="M202.6168,28.6406 Q202.0387,28.9375 201.3981,29.0781 Q200.7574,29.2344 200.0543,29.2344 Q197.5543,29.2344 196.2262,27.5938 Q194.9137,25.9375 194.9137,22.8125 Q194.9137,19.6875 196.2262,18.0313 Q197.5543,16.375 200.0543,16.375 Q200.7574,16.375 201.3981,16.5313 Q202.0543,16.6875 202.6168,16.9844 L202.6168,19.7031 Q201.9918,19.125 201.3981,18.8594 Q200.8043,18.5781 200.1793,18.5781 Q198.8356,18.5781 198.1481,19.6563 Q197.4606,20.7188 197.4606,22.8125 Q197.4606,24.9063 198.1481,25.9844 Q198.8356,27.0469 200.1793,27.0469 Q200.8043,27.0469 201.3981,26.7813 Q201.9918,26.5 202.6168,25.9219 L202.6168,28.6406 Z " fill="#000000"/><text fill="#000000" font-family="sans-serif" font-size="14" lengthAdjust="spacing" textLength="51.3098" x="214.5699" y="28.432">Usuario</text><line style="stroke:#181818;stroke-width:0.5;" x1="181.5" x2="272.0277" y1="39" y2="39"/><ellipse cx="191.5" cy="54.034" fill="none" rx="3" ry="3" style="stroke:#038048;stroke-width:1.0;"/><text fill="#000000" font-family="sans-serif" font-size="14" lengthAdjust="spacing" textLength="66.5277" x="200.5" y="57.9659">username</text><ellipse cx="191.5" cy="73.1019" fill="none" rx="3" ry="3" style="stroke:#038048;stroke-width:1.0;"/><text fill="#000000" font-family="sans-serif" font-size="14" lengthAdjust="spacing" textLength="36.0639" x="200.5" y="77.0339">email</text><line style="stroke:#181818;stroke-width:0.5;" x1="181.5" x2="272.0277" y1="85.1358" y2="85.1358"/></g><!--class Colaborador--><g id="elem_Colaborador"><rect codeLine="9" fill="#F1F1F1" height="67.0679" id="Colaborador" rx="2.5" ry="2.5" style="stroke:#181818;stroke-width:0.5;" width="114.3617" x="7" y="154"/><ellipse cx="22" cy="170" fill="#ADD1B2" rx="11" ry="11" style="stroke:#181818;stroke-width:1.0;"/><path d="M24.9688,175.6406 Q24.3906,175.9375 23.75,176.0781 Q23.1094,176.2344 22.4063,176.2344 Q19.9063,176.2344 18.5781,174.5938 Q17.2656,172.9375 17.2656,169.8125 Q17.2656,166.6875 18.5781,165.0313 Q19.9063,163.375 22.4063,163.375 Q23.1094,163.375 23.75,163.5313 Q24.4063,163.6875 24.9688,163.9844 L24.9688,166.7031 Q24.3438,166.125 23.75,165.8594 Q23.1563,165.5781 22.5313,165.5781 Q21.1875,165.5781 20.5,166.6563 Q19.8125,167.7188 19.8125,169.8125 Q19.8125,171.9063 20.5,172.9844 Q21.1875,174.0469 22.5313,174.0469 Q23.1563,174.0469 23.75,173.7813 Q24.3438,173.5 24.9688,172.9219 L24.9688,175.6406 Z " fill="#000000"/><text fill="#000000" font-family="sans-serif" font-size="14" lengthAdjust="spacing" textLength="82.3617" x="36" y="175.432">Colaborador</text><line style="stroke:#181818;stroke-width:0.5;" x1="8" x2="120.3617" y1="186" y2="186"/><ellipse cx="18" cy="201.034" fill="none" rx="3" ry="3" style="stroke:#038048;stroke-width:1.0;"/><text fill="#000000" font-family="sans-serif" font-size="14" lengthAdjust="spacing" textLength="79.8417" x="27" y="204.9659">permissions</text><line style="stroke:#181818;stroke-width:0.5;" x1="8" x2="120.3617" y1="213.0679" y2="213.0679"/></g><!--class Owner--><g id="elem_Owner"><rect codeLine="14" fill="#F1F1F1" height="67.0679" id="Owner" rx="2.5" ry="2.5" style="stroke:#181818;stroke-width:0.5;" width="104.5957" x="227.5" y="154"/><ellipse cx="255.2476" cy="170" fill="#ADD1B2" rx="11" ry="11" style="stroke:#181818;stroke-width:1.0;"/><path d="M258.2163,175.6406 Q257.6382,175.9375 256.9976,176.0781 Q256.3569,176.2344 255.6538,176.2344 Q253.1538,176.2344 251.8257,174.5938 Q250.5132,172.9375 250.5132,169.8125 Q250.5132,166.6875 251.8257,165.0313 Q253.1538,163.375 255.6538,163.375 Q256.3569,163.375 256.9976,163.5313 Q257.6538,163.6875 258.2163,163.9844 L258.2163,166.7031 Q257.5913,166.125 256.9976,165.8594 Q256.4038,165.5781 255.7788,165.5781 Q254.4351,165.5781 253.7476,166.6563 Q253.0601,167.7188 253.0601,169.8125 Q253.0601,171.9063 253.7476,172.9844 Q254.4351,174.0469 255.7788,174.0469 Q256.4038,174.0469 256.9976,173.7813 Q257.5913,173.5 258.2163,172.9219 L258.2163,175.6406 Z " fill="#000000"/><text fill="#000000" font-family="sans-serif" font-size="14" lengthAdjust="spacing" textLength="44.2678" x="272.0803" y="175.432">Owner</text><line style="stroke:#181818;stroke-width:0.5;" x1="228.5" x2="331.0957" y1="186" y2="186"/><ellipse cx="238.5" cy="201.034" fill="none" rx="3" ry="3" style="stroke:#038048;stroke-width:1.0;"/><text fill="#000000" font-family="sans-serif" font-size="14" lengthAdjust="spacing" textLength="78.5957" x="247.5" y="204.9659">repositories</text><line style="stroke:#181818;stroke-width:0.5;" x1="228.5" x2="331.0957" y1="213.0679" y2="213.0679"/></g><!--class Repo--><g id="elem_Repo"><rect codeLine="23" fill="#F1F1F1" height="124.2717" id="Repo" rx="2.5" ry="2.5" style="stroke:#181818;stroke-width:0.5;" width="99.7237" x="230" y="300"/><ellipse cx="260.3179" cy="316" fill="#ADD1B2" rx="11" ry="11" style="stroke:#181818;stroke-width:1.0;"/><path d="M263.2867,321.6406 Q262.7086,321.9375 262.0679,322.0781 Q261.4273,322.2344 260.7242,322.2344 Q258.2242,322.2344 256.8961,320.5938 Q255.5836,318.9375 255.5836,315.8125 Q255.5836,312.6875 256.8961,311.0313 Q258.2242,309.375 260.7242,309.375 Q261.4273,309.375 262.0679,309.5313 Q262.7242,309.6875 263.2867,309.9844 L263.2867,312.7031 Q262.6617,312.125 262.0679,311.8594 Q261.4742,311.5781 260.8492,311.5781 Q259.5054,311.5781 258.8179,312.6563 Q258.1304,313.7188 258.1304,315.8125 Q258.1304,317.9063 258.8179,318.9844 Q259.5054,320.0469 260.8492,320.0469 Q261.4742,320.0469 262.0679,319.7813 Q262.6617,319.5 263.2867,318.9219 L263.2867,321.6406 Z " fill="#000000"/><text fill="#000000" font-family="sans-serif" font-size="14" lengthAdjust="spacing" textLength="33.6839" x="277.7219" y="321.432">Repo</text><line style="stroke:#181818;stroke-width:0.5;" x1="231" x2="328.7237" y1="332" y2="332"/><ellipse cx="241" cy="347.034" fill="none" rx="3" ry="3" style="stroke:#038048;stroke-width:1.0;"/><text fill="#000000" font-family="sans-serif" font-size="14" lengthAdjust="spacing" textLength="37.4919" x="250" y="350.9659">name</text><ellipse cx="241" cy="366.1019" fill="none" rx="3" ry="3" style="stroke:#038048;stroke-width:1.0;"/><text fill="#000000" font-family="sans-serif" font-size="14" lengthAdjust="spacing" textLength="73.7237" x="250" y="370.0339">description</text><ellipse cx="241" cy="385.1698" fill="none" rx="3" ry="3" style="stroke:#038048;stroke-width:1.0;"/><text fill="#000000" font-family="sans-serif" font-size="14" lengthAdjust="spacing" textLength="60.8718" x="250" y="389.1018">branches</text><ellipse cx="241" cy="404.2377" fill="none" rx="3" ry="3" style="stroke:#038048;stroke-width:1.0;"/><text fill="#000000" font-family="sans-serif" font-size="14" lengthAdjust="spacing" textLength="40.2778" x="250" y="408.1697">issues</text><line style="stroke:#181818;stroke-width:0.5;" x1="231" x2="328.7237" y1="416.2717" y2="416.2717"/></g><!--class Fork--><g id="elem_Fork"><rect codeLine="31" fill="#F1F1F1" height="86.1358" id="Fork" rx="2.5" ry="2.5" style="stroke:#181818;stroke-width:0.5;" width="103.9097" x="163" y="522"/><ellipse cx="197.3121" cy="538" fill="#ADD1B2" rx="11" ry="11" style="stroke:#181818;stroke-width:1.0;"/><path d="M200.2809,543.6406 Q199.7027,543.9375 199.0621,544.0781 Q198.4215,544.2344 197.7184,544.2344 Q195.2184,544.2344 193.8902,542.5938 Q192.5777,540.9375 192.5777,537.8125 Q192.5777,534.6875 193.8902,533.0313 Q195.2184,531.375 197.7184,531.375 Q198.4215,531.375 199.0621,531.5313 Q199.7184,531.6875 200.2809,531.9844 L200.2809,534.7031 Q199.6559,534.125 199.0621,533.8594 Q198.4684,533.5781 197.8434,533.5781 Q196.4996,533.5781 195.8121,534.6563 Q195.1246,535.7188 195.1246,537.8125 Q195.1246,539.9063 195.8121,540.9844 Q196.4996,542.0469 197.8434,542.0469 Q198.4684,542.0469 199.0621,541.7813 Q199.6559,541.5 200.2809,540.9219 L200.2809,543.6406 Z " fill="#000000"/><text fill="#000000" font-family="sans-serif" font-size="14" lengthAdjust="spacing" textLength="28.9939" x="215.6037" y="543.432">Fork</text><line style="stroke:#181818;stroke-width:0.5;" x1="164" x2="265.9097" y1="554" y2="554"/><ellipse cx="174" cy="569.034" fill="none" rx="3" ry="3" style="stroke:#038048;stroke-width:1.0;"/><text fill="#000000" font-family="sans-serif" font-size="14" lengthAdjust="spacing" textLength="77.9097" x="183" y="572.9659">sourceRepo</text><ellipse cx="174" cy="588.1019" fill="none" rx="3" ry="3" style="stroke:#038048;stroke-width:1.0;"/><text fill="#000000" font-family="sans-serif" font-size="14" lengthAdjust="spacing" textLength="59.2898" x="183" y="592.0339">forkedBy</text><line style="stroke:#181818;stroke-width:0.5;" x1="164" x2="265.9097" y1="600.1358" y2="600.1358"/></g><!--class Branch--><g id="elem_Branch"><rect codeLine="47" fill="#F1F1F1" height="86.1358" id="Branch" rx="2.5" ry="2.5" style="stroke:#181818;stroke-width:0.5;" width="82.7418" x="353.5" y="522"/><ellipse cx="370.2919" cy="538" fill="#ADD1B2" rx="11" ry="11" style="stroke:#181818;stroke-width:1.0;"/><path d="M373.2606,543.6406 Q372.6825,543.9375 372.0419,544.0781 Q371.4013,544.2344 370.6981,544.2344 Q368.1981,544.2344 366.87,542.5938 Q365.5575,540.9375 365.5575,537.8125 Q365.5575,534.6875 366.87,533.0313 Q368.1981,531.375 370.6981,531.375 Q371.4013,531.375 372.0419,531.5313 Q372.6981,531.6875 373.2606,531.9844 L373.2606,534.7031 Q372.6356,534.125 372.0419,533.8594 Q371.4481,533.5781 370.8231,533.5781 Q369.4794,533.5781 368.7919,534.6563 Q368.1044,535.7188 368.1044,537.8125 Q368.1044,539.9063 368.7919,540.9844 Q369.4794,542.0469 370.8231,542.0469 Q371.4481,542.0469 372.0419,541.7813 Q372.6356,541.5 373.2606,540.9219 L373.2606,543.6406 Z " fill="#000000"/><text fill="#000000" font-family="sans-serif" font-size="14" lengthAdjust="spacing" textLength="46.7598" x="384.6901" y="543.432">Branch</text><line style="stroke:#181818;stroke-width:0.5;" x1="354.5" x2="435.2418" y1="554" y2="554"/><ellipse cx="364.5" cy="569.034" fill="none" rx="3" ry="3" style="stroke:#038048;stroke-width:1.0;"/><text fill="#000000" font-family="sans-serif" font-size="14" lengthAdjust="spacing" textLength="37.4919" x="373.5" y="572.9659">name</text><ellipse cx="364.5" cy="588.1019" fill="none" rx="3" ry="3" style="stroke:#038048;stroke-width:1.0;"/><text fill="#000000" font-family="sans-serif" font-size="14" lengthAdjust="spacing" textLength="56.7418" x="373.5" y="592.0339">commits</text><line style="stroke:#181818;stroke-width:0.5;" x1="354.5" x2="435.2418" y1="600.1358" y2="600.1358"/></g><!--class Issue--><g id="elem_Issue"><rect codeLine="73" fill="#F1F1F1" height="124.2717" id="Issue" rx="2.5" ry="2.5" style="stroke:#181818;stroke-width:0.5;" width="99.7237" x="478" y="503"/><ellipse cx="507.858" cy="519" fill="#ADD1B2" rx="11" ry="11" style="stroke:#181818;stroke-width:1.0;"/><path d="M510.8268,524.6406 Q510.2487,524.9375 509.608,525.0781 Q508.9674,525.2344 508.2643,525.2344 Q505.7643,525.2344 504.4362,523.5938 Q503.1237,521.9375 503.1237,518.8125 Q503.1237,515.6875 504.4362,514.0313 Q505.7643,512.375 508.2643,512.375 Q508.9674,512.375 509.608,512.5313 Q510.2643,512.6875 510.8268,512.9844 L510.8268,515.7031 Q510.2018,515.125 509.608,514.8594 Q509.0143,514.5781 508.3893,514.5781 Q507.0455,514.5781 506.358,515.6563 Q505.6705,516.7188 505.6705,518.8125 Q505.6705,520.9063 506.358,521.9844 Q507.0455,523.0469 508.3893,523.0469 Q509.0143,523.0469 509.608,522.7813 Q510.2018,522.5 510.8268,521.9219 L510.8268,524.6406 Z " fill="#000000"/><text fill="#000000" font-family="sans-serif" font-size="14" lengthAdjust="spacing" textLength="34.7059" x="525.1598" y="524.432">Issue</text><line style="stroke:#181818;stroke-width:0.5;" x1="479" x2="576.7237" y1="535" y2="535"/><ellipse cx="489" cy="550.034" fill="none" rx="3" ry="3" style="stroke:#038048;stroke-width:1.0;"/><text fill="#000000" font-family="sans-serif" font-size="14" lengthAdjust="spacing" textLength="25.2279" x="498" y="553.9659">title</text><ellipse cx="489" cy="569.1019" fill="none" rx="3" ry="3" style="stroke:#038048;stroke-width:1.0;"/><text fill="#000000" font-family="sans-serif" font-size="14" lengthAdjust="spacing" textLength="73.7237" x="498" y="573.0339">description</text><ellipse cx="489" cy="588.1698" fill="none" rx="3" ry="3" style="stroke:#038048;stroke-width:1.0;"/><text fill="#000000" font-family="sans-serif" font-size="14" lengthAdjust="spacing" textLength="44.4638" x="498" y="592.1018">author</text><ellipse cx="489" cy="607.2377" fill="none" rx="3" ry="3" style="stroke:#038048;stroke-width:1.0;"/><text fill="#000000" font-family="sans-serif" font-size="14" lengthAdjust="spacing" textLength="40.0259" x="498" y="611.1697">status</text><line style="stroke:#181818;stroke-width:0.5;" x1="479" x2="576.7237" y1="619.2717" y2="619.2717"/></g><!--class Commit--><g id="elem_Commit"><rect codeLine="53" fill="#F1F1F1" height="124.2717" id="Commit" rx="2.5" ry="2.5" style="stroke:#181818;stroke-width:0.5;" width="84.7578" x="189.5" y="928"/><ellipse cx="204.7673" cy="944" fill="#ADD1B2" rx="11" ry="11" style="stroke:#181818;stroke-width:1.0;"/><path d="M207.736,949.6406 Q207.1579,949.9375 206.5173,950.0781 Q205.8767,950.2344 205.1735,950.2344 Q202.6735,950.2344 201.3454,948.5938 Q200.0329,946.9375 200.0329,943.8125 Q200.0329,940.6875 201.3454,939.0313 Q202.6735,937.375 205.1735,937.375 Q205.8767,937.375 206.5173,937.5313 Q207.1735,937.6875 207.736,937.9844 L207.736,940.7031 Q207.111,940.125 206.5173,939.8594 Q205.9235,939.5781 205.2985,939.5781 Q203.9548,939.5781 203.2673,940.6563 Q202.5798,941.7188 202.5798,943.8125 Q202.5798,945.9063 203.2673,946.9844 Q203.9548,948.0469 205.2985,948.0469 Q205.9235,948.0469 206.5173,947.7813 Q207.111,947.5 207.736,946.9219 L207.736,949.6406 Z " fill="#000000"/><text fill="#000000" font-family="sans-serif" font-size="14" lengthAdjust="spacing" textLength="52.1638" x="218.8267" y="949.432">Commit</text><line style="stroke:#181818;stroke-width:0.5;" x1="190.5" x2="273.2578" y1="960" y2="960"/><ellipse cx="200.5" cy="975.034" fill="none" rx="3" ry="3" style="stroke:#038048;stroke-width:1.0;"/><text fill="#000000" font-family="sans-serif" font-size="14" lengthAdjust="spacing" textLength="44.4638" x="209.5" y="978.9659">author</text><ellipse cx="200.5" cy="994.1019" fill="none" rx="3" ry="3" style="stroke:#038048;stroke-width:1.0;"/><text fill="#000000" font-family="sans-serif" font-size="14" lengthAdjust="spacing" textLength="58.7578" x="209.5" y="998.0339">message</text><ellipse cx="200.5" cy="1013.1698" fill="none" rx="3" ry="3" style="stroke:#038048;stroke-width:1.0;"/><text fill="#000000" font-family="sans-serif" font-size="14" lengthAdjust="spacing" textLength="29.4139" x="209.5" y="1017.1018">date</text><ellipse cx="200.5" cy="1032.2377" fill="none" rx="3" ry="3" style="stroke:#038048;stroke-width:1.0;"/><text fill="#000000" font-family="sans-serif" font-size="14" lengthAdjust="spacing" textLength="26.6419" x="209.5" y="1036.1697">files</text><line style="stroke:#181818;stroke-width:0.5;" x1="190.5" x2="273.2578" y1="1044.2717" y2="1044.2717"/></g><!--class File--><g id="elem_File"><rect codeLine="61" fill="#F1F1F1" height="86.1358" id="File" rx="2.5" ry="2.5" style="stroke:#181818;stroke-width:0.5;" width="63.4919" x="200.5" y="1131"/><ellipse cx="219.5977" cy="1147" fill="#ADD1B2" rx="11" ry="11" style="stroke:#181818;stroke-width:1.0;"/><path d="M222.5664,1152.6406 Q221.9883,1152.9375 221.3477,1153.0781 Q220.707,1153.2344 220.0039,1153.2344 Q217.5039,1153.2344 216.1758,1151.5938 Q214.8633,1149.9375 214.8633,1146.8125 Q214.8633,1143.6875 216.1758,1142.0313 Q217.5039,1140.375 220.0039,1140.375 Q220.707,1140.375 221.3477,1140.5313 Q222.0039,1140.6875 222.5664,1140.9844 L222.5664,1143.7031 Q221.9414,1143.125 221.3477,1142.8594 Q220.7539,1142.5781 220.1289,1142.5781 Q218.7852,1142.5781 218.0977,1143.6563 Q217.4102,1144.7188 217.4102,1146.8125 Q217.4102,1148.9063 218.0977,1149.9844 Q218.7852,1151.0469 220.1289,1151.0469 Q220.7539,1151.0469 221.3477,1150.7813 Q221.9414,1150.5 222.5664,1149.9219 L222.5664,1152.6406 Z " fill="#000000"/><text fill="#000000" font-family="sans-serif" font-size="14" lengthAdjust="spacing" textLength="22.3859" x="234.5083" y="1152.432">File</text><line style="stroke:#181818;stroke-width:0.5;" x1="201.5" x2="262.9919" y1="1163" y2="1163"/><ellipse cx="211.5" cy="1178.034" fill="none" rx="3" ry="3" style="stroke:#038048;stroke-width:1.0;"/><text fill="#000000" font-family="sans-serif" font-size="14" lengthAdjust="spacing" textLength="37.4919" x="220.5" y="1181.9659">name</text><ellipse cx="211.5" cy="1197.1019" fill="none" rx="3" ry="3" style="stroke:#038048;stroke-width:1.0;"/><text fill="#000000" font-family="sans-serif" font-size="14" lengthAdjust="spacing" textLength="29.3719" x="220.5" y="1201.0339">data</text><line style="stroke:#181818;stroke-width:0.5;" x1="201.5" x2="262.9919" y1="1209.1358" y2="1209.1358"/></g><!--class Version--><g id="elem_Version"><rect codeLine="67" fill="#F1F1F1" height="86.1358" id="Version" rx="2.5" ry="2.5" style="stroke:#181818;stroke-width:0.5;" width="128.8996" x="291.5" y="734.5"/><ellipse cx="327.8218" cy="750.5" fill="#ADD1B2" rx="11" ry="11" style="stroke:#181818;stroke-width:1.0;"/><path d="M330.7906,756.1406 Q330.2124,756.4375 329.5718,756.5781 Q328.9312,756.7344 328.2281,756.7344 Q325.7281,756.7344 324.3999,755.0938 Q323.0874,753.4375 323.0874,750.3125 Q323.0874,747.1875 324.3999,745.5313 Q325.7281,743.875 328.2281,743.875 Q328.9312,743.875 329.5718,744.0313 Q330.2281,744.1875 330.7906,744.4844 L330.7906,747.2031 Q330.1656,746.625 329.5718,746.3594 Q328.9781,746.0781 328.3531,746.0781 Q327.0093,746.0781 326.3218,747.1563 Q325.6343,748.2188 325.6343,750.3125 Q325.6343,752.4063 326.3218,753.4844 Q327.0093,754.5469 328.3531,754.5469 Q328.9781,754.5469 329.5718,754.2813 Q330.1656,754 330.7906,753.4219 L330.7906,756.1406 Z " fill="#000000"/><text fill="#000000" font-family="sans-serif" font-size="14" lengthAdjust="spacing" textLength="49.5178" x="346.56" y="755.932">Version</text><line style="stroke:#181818;stroke-width:0.5;" x1="292.5" x2="419.3996" y1="766.5" y2="766.5"/><ellipse cx="302.5" cy="781.534" fill="none" rx="3" ry="3" style="stroke:#038048;stroke-width:1.0;"/><text fill="#000000" font-family="sans-serif" font-size="14" lengthAdjust="spacing" textLength="102.8996" x="311.5" y="785.4659">versionNumber</text><ellipse cx="302.5" cy="800.6019" fill="none" rx="3" ry="3" style="stroke:#038048;stroke-width:1.0;"/><text fill="#000000" font-family="sans-serif" font-size="14" lengthAdjust="spacing" textLength="56.7418" x="311.5" y="804.5339">commits</text><line style="stroke:#181818;stroke-width:0.5;" x1="292.5" x2="419.3996" y1="812.6358" y2="812.6358"/></g><!--class PullRequest--><g id="elem_PullRequest"><rect codeLine="81" fill="#F1F1F1" height="143.3396" id="PullRequest" rx="2.5" ry="2.5" style="stroke:#181818;stroke-width:0.5;" width="109.8677" x="478" y="706"/><ellipse cx="493" cy="722" fill="#ADD1B2" rx="11" ry="11" style="stroke:#181818;stroke-width:1.0;"/><path d="M495.9688,727.6406 Q495.3906,727.9375 494.75,728.0781 Q494.1094,728.2344 493.4063,728.2344 Q490.9063,728.2344 489.5781,726.5938 Q488.2656,724.9375 488.2656,721.8125 Q488.2656,718.6875 489.5781,717.0313 Q490.9063,715.375 493.4063,715.375 Q494.1094,715.375 494.75,715.5313 Q495.4063,715.6875 495.9688,715.9844 L495.9688,718.7031 Q495.3438,718.125 494.75,717.8594 Q494.1563,717.5781 493.5313,717.5781 Q492.1875,717.5781 491.5,718.6563 Q490.8125,719.7188 490.8125,721.8125 Q490.8125,723.9063 491.5,724.9844 Q492.1875,726.0469 493.5313,726.0469 Q494.1563,726.0469 494.75,725.7813 Q495.3438,725.5 495.9688,724.9219 L495.9688,727.6406 Z " fill="#000000"/><text fill="#000000" font-family="sans-serif" font-size="14" lengthAdjust="spacing" textLength="77.8677" x="507" y="727.432">PullRequest</text><line style="stroke:#181818;stroke-width:0.5;" x1="479" x2="586.8677" y1="738" y2="738"/><ellipse cx="489" cy="753.034" fill="none" rx="3" ry="3" style="stroke:#038048;stroke-width:1.0;"/><text fill="#000000" font-family="sans-serif" font-size="14" lengthAdjust="spacing" textLength="25.2279" x="498" y="756.9659">title</text><ellipse cx="489" cy="772.1019" fill="none" rx="3" ry="3" style="stroke:#038048;stroke-width:1.0;"/><text fill="#000000" font-family="sans-serif" font-size="14" lengthAdjust="spacing" textLength="73.7237" x="498" y="776.0339">description</text><ellipse cx="489" cy="791.1698" fill="none" rx="3" ry="3" style="stroke:#038048;stroke-width:1.0;"/><text fill="#000000" font-family="sans-serif" font-size="14" lengthAdjust="spacing" textLength="78.9177" x="498" y="795.1018">fromBranch</text><ellipse cx="489" cy="810.2377" fill="none" rx="3" ry="3" style="stroke:#038048;stroke-width:1.0;"/><text fill="#000000" font-family="sans-serif" font-size="14" lengthAdjust="spacing" textLength="60.2838" x="498" y="814.1697">toBranch</text><ellipse cx="489" cy="829.3056" fill="none" rx="3" ry="3" style="stroke:#038048;stroke-width:1.0;"/><text fill="#000000" font-family="sans-serif" font-size="14" lengthAdjust="spacing" textLength="40.0259" x="498" y="833.2376">status</text><line style="stroke:#181818;stroke-width:0.5;" x1="479" x2="586.8677" y1="841.3396" y2="841.3396"/></g><!--reverse link Usuario to Owner--><g id="link_Usuario_Owner"><path codeLine="19" d="M250.0379,109.8929 C257.6979,129.4729 260.1,135.63 267.24,153.87 " fill="none" id="Usuario-backto-Owner" style="stroke:#181818;stroke-width:1.0;"/><polygon fill="none" points="243.48,93.13,244.4503,112.0788,255.6255,107.7069,243.48,93.13" style="stroke:#181818;stroke-width:1.0;"/></g><!--reverse link Usuario to Colaborador--><g id="link_Usuario_Colaborador"><path codeLine="20" d="M166.4481,101.3365 C142.0881,121.5865 126.45,134.58 103.28,153.85 " fill="none" id="Usuario-backto-Colaborador" style="stroke:#181818;stroke-width:1.0;"/><polygon fill="none" points="180.29,89.83,162.6125,96.7226,170.2836,105.9505,180.29,89.83" style="stroke:#181818;stroke-width:1.0;"/></g><!--link Fork to Repo--><g id="link_Fork_Repo"><path codeLine="37" d="M220.95,521.85 C224.5,501.11 229.75,475.91 237,454 C240.24,444.21 237.0411,450.5846 241.3211,440.8246 " fill="none" id="Fork-to-Repo" style="stroke:#181818;stroke-width:1.0;"/><polygon fill="none" points="248.55,424.34,235.8262,438.415,246.816,443.2343,248.55,424.34" style="stroke:#181818;stroke-width:1.0;"/></g><!--reverse link Repo to Fork--><g id="link_Repo_Fork"><path codeLine="43" d="M258.3841,429.839 C248.1541,461.479 237.76,493.61 228.6,521.94 " fill="none" id="Repo-backto-Fork" style="stroke:#181818;stroke-width:1.0;"/><polygon fill="#181818" points="260.23,424.13,253.6552,431.4629,258.6918,428.8875,261.2672,433.9241,260.23,424.13" style="stroke:#181818;stroke-width:1.0;"/><text fill="#000000" font-family="sans-serif" font-size="13" lengthAdjust="spacing" textLength="80.2621" x="251" y="468.897">is forked into</text><text fill="#000000" font-family="sans-serif" font-size="13" lengthAdjust="spacing" textLength="7.436" x="250.5806" y="446.2187">1</text><text fill="#000000" font-family="sans-serif" font-size="13" lengthAdjust="spacing" textLength="21.567" x="232.646" y="510.3446">0..*</text></g><!--reverse link Owner to Repo--><g id="link_Owner_Repo"><path codeLine="40" d="M280,233.35 C280,255.54 280,273.51 280,299.99 " fill="none" id="Owner-backto-Repo" style="stroke:#181818;stroke-width:1.0;"/><polygon fill="none" points="280,221.35,276,227.35,280,233.35,284,227.35,280,221.35" style="stroke:#181818;stroke-width:1.0;"/><text fill="#000000" font-family="sans-serif" font-size="13" lengthAdjust="spacing" textLength="32.344" x="281" y="265.897">owns</text><text fill="#000000" font-family="sans-serif" font-size="13" lengthAdjust="spacing" textLength="7.436" x="272.4514" y="242.8474">1</text><text fill="#000000" font-family="sans-serif" font-size="13" lengthAdjust="spacing" textLength="21.567" x="257.7717" y="288.3201">1..*</text></g><!--reverse link Repo to Branch--><g id="link_Repo_Branch"><path codeLine="41" d="M328.1562,434.1524 C334.4962,444.0424 334.33,444.17 340,454 C352.64,475.92 365.37,501.11 375.39,521.86 " fill="none" id="Repo-backto-Branch" style="stroke:#181818;stroke-width:1.0;"/><polygon fill="none" points="321.68,424.05,321.5506,431.2599,328.1562,434.1524,328.2856,426.9425,321.68,424.05" style="stroke:#181818;stroke-width:1.0;"/><text fill="#000000" font-family="sans-serif" font-size="13" lengthAdjust="spacing" textLength="51.7401" x="351" y="468.897">contains</text><text fill="#000000" font-family="sans-serif" font-size="13" lengthAdjust="spacing" textLength="7.436" x="319.1357" y="446.1295">1</text><text fill="#000000" font-family="sans-serif" font-size="13" lengthAdjust="spacing" textLength="21.567" x="349.4714" y="510.2514">1..*</text></g><!--link Repo to Issue--><g id="link_Repo_Issue"><path codeLine="42" d="M330.08,395.26 C355.03,411.96 385.29,433.17 411,454 C433.86,472.51 453.4125,490.294 473.6025,509.684 " fill="none" id="Repo-to-Issue" style="stroke:#181818;stroke-width:1.0;"/><polygon fill="#181818" points="477.93,513.84,474.2094,504.7209,474.3237,510.3766,468.668,510.4909,477.93,513.84" style="stroke:#181818;stroke-width:1.0;"/><text fill="#000000" font-family="sans-serif" font-size="13" lengthAdjust="spacing" textLength="21.554" x="433" y="468.897">has</text><text fill="#000000" font-family="sans-serif" font-size="13" lengthAdjust="spacing" textLength="7.436" x="337.6648" y="395.6694">1</text><text fill="#000000" font-family="sans-serif" font-size="13" lengthAdjust="spacing" textLength="21.567" x="448.4716" y="502.3779">0..*</text></g><!--link Fork to Usuario--><g id="link_Fork_Usuario"><path codeLine="44" d="M211.87,521.71 C206.95,447.24 199.02,287.91 210,154 C211.65,133.86 215.09,111.72 218.44,93.15 " fill="none" id="Fork-Usuario" style="stroke:#181818;stroke-width:1.0;"/><text fill="#000000" font-family="sans-serif" font-size="13" lengthAdjust="spacing" textLength="57.98" x="207" y="265.897">forked by</text><text fill="#000000" font-family="sans-serif" font-size="13" lengthAdjust="spacing" textLength="7.436" x="203.8155" y="510.0765">1</text><text fill="#000000" font-family="sans-serif" font-size="13" lengthAdjust="spacing" textLength="7.436" x="209.6629" y="114.9996">1</text></g><!--reverse link Branch to Commit--><g id="link_Branch_Commit"><path codeLine="90" d="M342.6137,591.2719 C300.3937,613.7119 248.21,649.18 221,706 C187.29,776.4 199.61,868.31 213.85,927.99 " fill="none" id="Branch-backto-Commit" style="stroke:#181818;stroke-width:1.0;"/><polygon fill="none" points="353.21,585.64,346.0345,584.9239,342.6137,591.2719,349.7892,591.9881,353.21,585.64" style="stroke:#181818;stroke-width:1.0;"/><text fill="#000000" font-family="sans-serif" font-size="13" lengthAdjust="spacing" textLength="51.7401" x="222" y="782.897">contains</text><text fill="#000000" font-family="sans-serif" font-size="13" lengthAdjust="spacing" textLength="7.436" x="337.9237" y="584.8279">1</text><text fill="#000000" font-family="sans-serif" font-size="13" lengthAdjust="spacing" textLength="21.567" x="189.4076" y="916.3201">0..*</text></g><!--reverse link Commit to File--><g id="link_Commit_File"><path codeLine="91" d="M232,1064.11 C232,1090.03 232,1107.59 232,1130.99 " fill="none" id="Commit-backto-File" style="stroke:#181818;stroke-width:1.0;"/><polygon fill="#181818" points="232,1052.11,228,1058.11,232,1064.11,236,1058.11,232,1052.11" style="stroke:#181818;stroke-width:1.0;"/><text fill="#000000" font-family="sans-serif" font-size="13" lengthAdjust="spacing" textLength="52.754" x="233" y="1096.897">modifies</text><text fill="#000000" font-family="sans-serif" font-size="13" lengthAdjust="spacing" textLength="7.436" x="224.6345" y="1074.1964">1</text><text fill="#000000" font-family="sans-serif" font-size="13" lengthAdjust="spacing" textLength="21.567" x="209.2018" y="1119.0827">1..*</text></g><!--link Branch to Version--><g id="link_Branch_Version"><path codeLine="92" d="M363.55,608.28 C354.43,622.94 345.67,639.99 341,657 C334.08,682.21 336.1615,705.4412 341.4615,728.6012 " fill="none" id="Branch-to-Version" style="stroke:#181818;stroke-width:1.0;"/><polygon fill="#181818" points="342.8,734.45,344.6915,724.7845,341.6846,729.576,336.8931,726.5691,342.8,734.45" style="stroke:#181818;stroke-width:1.0;"/><text fill="#000000" font-family="sans-serif" font-size="13" lengthAdjust="spacing" textLength="60.203" x="342" y="671.897">tagged as</text><text fill="#000000" font-family="sans-serif" font-size="13" lengthAdjust="spacing" textLength="7.436" x="351.2514" y="630.1495">1</text><text fill="#000000" font-family="sans-serif" font-size="13" lengthAdjust="spacing" textLength="21.567" x="317.7839" y="722.5359">0..*</text></g><!--reverse link Version to Commit--><g id="link_Version_Commit"><path codeLine="93" d="M325.1109,830.9304 C307.0209,861.6504 288.31,893.41 268.03,927.83 " fill="none" id="Version-backto-Commit" style="stroke:#181818;stroke-width:1.0;"/><polygon fill="none" points="331.2,820.59,324.7087,823.7305,325.1109,830.9304,331.6022,827.7899,331.2,820.59" style="stroke:#181818;stroke-width:1.0;"/><text fill="#000000" font-family="sans-serif" font-size="13" lengthAdjust="spacing" textLength="50.5701" x="295" y="893.897">includes</text><text fill="#000000" font-family="sans-serif" font-size="13" lengthAdjust="spacing" textLength="7.436" x="319.9076" y="842.4304">1</text><text fill="#000000" font-family="sans-serif" font-size="13" lengthAdjust="spacing" textLength="21.567" x="250.1908" y="916.1406">1..*</text></g><!--link Branch to PullRequest--><g id="link_Branch_PullRequest"><path codeLine="94" d="M409.7,608.07 C418,629.26 429.43,654.87 443,676 C453.06,691.67 461.5787,702.8024 474.0287,716.9024 " fill="none" id="Branch-to-PullRequest" style="stroke:#181818;stroke-width:1.0;"/><polygon fill="#181818" points="478,721.4,475.0415,712.006,474.6906,717.652,469.0446,717.3011,478,721.4" style="stroke:#181818;stroke-width:1.0;"/><text fill="#000000" font-family="sans-serif" font-size="13" lengthAdjust="spacing" textLength="56.784" x="444" y="671.897">source of</text><text fill="#000000" font-family="sans-serif" font-size="13" lengthAdjust="spacing" textLength="7.436" x="404.4682" y="629.9073">1</text><text fill="#000000" font-family="sans-serif" font-size="13" lengthAdjust="spacing" textLength="21.567" x="448.2454" y="709.641">0..*</text></g><!--link PullRequest to Branch--><g id="link_PullRequest_Branch"><path codeLine="95" d="M525.58,705.83 C521.41,688.78 514.96,671.36 505,657 C491.3,637.25 478.83,641.94 460,627 C452.24,620.84 448.7378,617.9881 441.1878,611.1181 " fill="none" id="PullRequest-to-Branch" style="stroke:#181818;stroke-width:1.0;"/><polygon fill="#181818" points="436.75,607.08,440.7146,616.0956,440.4481,610.4451,446.0987,610.1786,436.75,607.08" style="stroke:#181818;stroke-width:1.0;"/><text fill="#000000" font-family="sans-serif" font-size="13" lengthAdjust="spacing" textLength="43.602" x="516" y="671.897">targets</text><text fill="#000000" font-family="sans-serif" font-size="13" lengthAdjust="spacing" textLength="7.436" x="517.4167" y="693.9785">1</text><text fill="#000000" font-family="sans-serif" font-size="13" lengthAdjust="spacing" textLength="7.436" x="436.6251" y="630.0374">1</text></g><!--link Issue to Usuario--><g id="link_Issue_Usuario"><path codeLine="96" d="M511.2,502.76 C485.98,418.34 432.32,264.19 350,154 C329,125.89 303.7025,104.0462 278.5225,85.5162 " fill="none" id="Issue-to-Usuario" style="stroke:#181818;stroke-width:1.0;"/><polygon fill="#181818" points="273.69,81.96,278.5679,90.516,277.7171,84.9235,283.3096,84.0727,273.69,81.96" style="stroke:#181818;stroke-width:1.0;"/><text fill="#000000" font-family="sans-serif" font-size="13" lengthAdjust="spacing" textLength="71.9551" x="420" y="265.897">reported by</text><text fill="#000000" font-family="sans-serif" font-size="13" lengthAdjust="spacing" textLength="7.436" x="501.7693" y="491.062">1</text><text fill="#000000" font-family="sans-serif" font-size="13" lengthAdjust="spacing" textLength="7.436" x="281.1284" y="82.3446">1</text></g><!--SRC=[ZLHDRzim3BtxLn2-DElWOhaQHO4bm81UjY53TsTiEXPcMva-LWJh_liaKNBaj1cMWoDIZuzVpxw13Mg2xO1Qr_2aBIeXOVMaIRqh6k-TdRyBSB_trbrDE19RDA8OYZz5SGFVxBvXcgqSS2yLjbB1oXbi6JbJve18UoGr2gs5dFGbtPVdYLIC3ESKe-WejN2yWcBGuzIJ4WQdXc170nhFrukZBb8NzozL5HaNhgmaJnG7idCPOBLBUKwfWU2FLPo7qP9kb3ZwfEpOArT9xueBbclFfa8Z_oUfVi3AFwc5rsd2TKoZfLKDUGpRNGZQdFxTU14egkhb8T1xw4UjPICOKV0yotK9qWsXND_TtPRSNGtosG72-U9-4zfoY4PE1aMEgge7A3y4rADlru5wpExlFGlVXyfg41gu5H2JaLmlCuM_jAGweVQdR7vSIPnMBElLMXevZi8i1xyDlbcEtaY1Q4tlH13E8scDXxHUDF7KYU5oaSwJbkQERsW33IuYlfFoQez1qKfnlzZyRCSzgUjTX1571XvtZ3V23DT4cVUd3HgxvFngXs57FvrIqtWop__mTqgESI-CbRcLPrmeCMvlbXgB9AucarhqUDpjMP9Xw3MCiXMT_nfaR9aaqvHhC7WuE34vQIRVXSRdn69g1jjUfSo7KmE_f22x8lVF8UlitJ6e3kJsoNlB8MV9-m-SCYpwlm00]--></g></svg>