<svg xmlns="http://www.w3.org/2000/svg" xmlns:xlink="http://www.w3.org/1999/xlink" contentStyleType="text/css" height="1224px" preserveAspectRatio="none" style="width:479px;height:1224px;background:#FFFFFF;" version="1.1" viewBox="0 0 479 1224" width="479px" zoomAndPan="magnify"><defs/><g><!--class Usuario--><g id="elem_Usuario"><rect codeLine="3" fill="#F1F1F1" height="86.1358" id="Usuario" rx="2.5" ry="2.5" style="stroke:#181818;stroke-width:0.5;" width="92.5277" x="190.71" y="7"/><ellipse cx="209.8581" cy="23" fill="#ADD1B2" rx="11" ry="11" style="stroke:#181818;stroke-width:1.0;"/><path d="M212.8268,28.6406 Q212.2487,28.9375 211.6081,29.0781 Q210.9674,29.2344 210.2643,29.2344 Q207.7643,29.2344 206.4362,27.5938 Q205.1237,25.9375 205.1237,22.8125 Q205.1237,19.6875 206.4362,18.0313 Q207.7643,16.375 210.2643,16.375 Q210.9674,16.375 211.6081,16.5313 Q212.2643,16.6875 212.8268,16.9844 L212.8268,19.7031 Q212.2018,19.125 211.6081,18.8594 Q211.0143,18.5781 210.3893,18.5781 Q209.0456,18.5781 208.3581,19.6563 Q207.6706,20.7188 207.6706,22.8125 Q207.6706,24.9063 208.3581,25.9844 Q209.0456,27.0469 210.3893,27.0469 Q211.0143,27.0469 211.6081,26.7813 Q212.2018,26.5 212.8268,25.9219 L212.8268,28.6406 Z " fill="#000000"/><text fill="#000000" font-family="sans-serif" font-size="14" lengthAdjust="spacing" textLength="51.3098" x="224.7799" y="28.432">Usuario</text><line style="stroke:#181818;stroke-width:0.5;" x1="191.71" x2="282.2377" y1="39" y2="39"/><ellipse cx="201.71" cy="54.034" fill="none" rx="3" ry="3" style="stroke:#038048;stroke-width:1.0;"/><text fill="#000000" font-family="sans-serif" font-size="14" lengthAdjust="spacing" textLength="66.5277" x="210.71" y="57.9659">username</text><ellipse cx="201.71" cy="73.1019" fill="none" rx="3" ry="3" style="stroke:#038048;stroke-width:1.0;"/><text fill="#000000" font-family="sans-serif" font-size="14" lengthAdjust="spacing" textLength="36.0639" x="210.71" y="77.0339">email</text><line style="stroke:#181818;stroke-width:0.5;" x1="191.71" x2="282.2377" y1="85.1358" y2="85.1358"/></g><!--class Colaborador--><g id="elem_Colaborador"><rect codeLine="9" fill="#F1F1F1" height="67.0679" id="Colaborador" rx="2.5" ry="2.5" style="stroke:#181818;stroke-width:0.5;" width="114.3617" x="90.21" y="154"/><ellipse cx="105.21" cy="170" fill="#ADD1B2" rx="11" ry="11" style="stroke:#181818;stroke-width:1.0;"/><path d="M108.1788,175.6406 Q107.6006,175.9375 106.96,176.0781 Q106.3194,176.2344 105.6163,176.2344 Q103.1163,176.2344 101.7881,174.5938 Q100.4756,172.9375 100.4756,169.8125 Q100.4756,166.6875 101.7881,165.0313 Q103.1163,163.375 105.6163,163.375 Q106.3194,163.375 106.96,163.5313 Q107.6163,163.6875 108.1788,163.9844 L108.1788,166.7031 Q107.5538,166.125 106.96,165.8594 Q106.3663,165.5781 105.7413,165.5781 Q104.3975,165.5781 103.71,166.6563 Q103.0225,167.7188 103.0225,169.8125 Q103.0225,171.9063 103.71,172.9844 Q104.3975,174.0469 105.7413,174.0469 Q106.3663,174.0469 106.96,173.7813 Q107.5538,173.5 108.1788,172.9219 L108.1788,175.6406 Z " fill="#000000"/><text fill="#000000" font-family="sans-serif" font-size="14" lengthAdjust="spacing" textLength="82.3617" x="119.21" y="175.432">Colaborador</text><line style="stroke:#181818;stroke-width:0.5;" x1="91.21" x2="203.5717" y1="186" y2="186"/><ellipse cx="101.21" cy="201.034" fill="none" rx="3" ry="3" style="stroke:#038048;stroke-width:1.0;"/><text fill="#000000" font-family="sans-serif" font-size="14" lengthAdjust="spacing" textLength="79.8417" x="110.21" y="204.9659">permissions</text><line style="stroke:#181818;stroke-width:0.5;" x1="91.21" x2="203.5717" y1="213.0679" y2="213.0679"/></g><!--class Owner--><g id="elem_Owner"><rect codeLine="14" fill="#F1F1F1" height="67.0679" id="Owner" rx="2.5" ry="2.5" style="stroke:#181818;stroke-width:0.5;" width="104.5957" x="239.71" y="154"/><ellipse cx="267.4576" cy="170" fill="#ADD1B2" rx="11" ry="11" style="stroke:#181818;stroke-width:1.0;"/><path d="M270.4263,175.6406 Q269.8482,175.9375 269.2076,176.0781 Q268.5669,176.2344 267.8638,176.2344 Q265.3638,176.2344 264.0357,174.5938 Q262.7232,172.9375 262.7232,169.8125 Q262.7232,166.6875 264.0357,165.0313 Q265.3638,163.375 267.8638,163.375 Q268.5669,163.375 269.2076,163.5313 Q269.8638,163.6875 270.4263,163.9844 L270.4263,166.7031 Q269.8013,166.125 269.2076,165.8594 Q268.6138,165.5781 267.9888,165.5781 Q266.6451,165.5781 265.9576,166.6563 Q265.2701,167.7188 265.2701,169.8125 Q265.2701,171.9063 265.9576,172.9844 Q266.6451,174.0469 267.9888,174.0469 Q268.6138,174.0469 269.2076,173.7813 Q269.8013,173.5 270.4263,172.9219 L270.4263,175.6406 Z " fill="#000000"/><text fill="#000000" font-family="sans-serif" font-size="14" lengthAdjust="spacing" textLength="44.2678" x="284.2903" y="175.432">Owner</text><line style="stroke:#181818;stroke-width:0.5;" x1="240.71" x2="343.3057" y1="186" y2="186"/><ellipse cx="250.71" cy="201.034" fill="none" rx="3" ry="3" style="stroke:#038048;stroke-width:1.0;"/><text fill="#000000" font-family="sans-serif" font-size="14" lengthAdjust="spacing" textLength="78.5957" x="259.71" y="204.9659">repositories</text><line style="stroke:#181818;stroke-width:0.5;" x1="240.71" x2="343.3057" y1="213.0679" y2="213.0679"/></g><!--class Repo--><g id="elem_Repo"><rect codeLine="23" fill="#F1F1F1" height="124.2717" id="Repo" rx="2.5" ry="2.5" style="stroke:#181818;stroke-width:0.5;" width="99.7237" x="179.21" y="300"/><ellipse cx="209.5279" cy="316" fill="#ADD1B2" rx="11" ry="11" style="stroke:#181818;stroke-width:1.0;"/><path d="M212.4967,321.6406 Q211.9186,321.9375 211.2779,322.0781 Q210.6373,322.2344 209.9342,322.2344 Q207.4342,322.2344 206.1061,320.5938 Q204.7936,318.9375 204.7936,315.8125 Q204.7936,312.6875 206.1061,311.0313 Q207.4342,309.375 209.9342,309.375 Q210.6373,309.375 211.2779,309.5313 Q211.9342,309.6875 212.4967,309.9844 L212.4967,312.7031 Q211.8717,312.125 211.2779,311.8594 Q210.6842,311.5781 210.0592,311.5781 Q208.7154,311.5781 208.0279,312.6563 Q207.3404,313.7188 207.3404,315.8125 Q207.3404,317.9063 208.0279,318.9844 Q208.7154,320.0469 210.0592,320.0469 Q210.6842,320.0469 211.2779,319.7813 Q211.8717,319.5 212.4967,318.9219 L212.4967,321.6406 Z " fill="#000000"/><text fill="#000000" font-family="sans-serif" font-size="14" lengthAdjust="spacing" textLength="33.6839" x="226.9319" y="321.432">Repo</text><line style="stroke:#181818;stroke-width:0.5;" x1="180.21" x2="277.9337" y1="332" y2="332"/><ellipse cx="190.21" cy="347.034" fill="none" rx="3" ry="3" style="stroke:#038048;stroke-width:1.0;"/><text fill="#000000" font-family="sans-serif" font-size="14" lengthAdjust="spacing" textLength="37.4919" x="199.21" y="350.9659">name</text><ellipse cx="190.21" cy="366.1019" fill="none" rx="3" ry="3" style="stroke:#038048;stroke-width:1.0;"/><text fill="#000000" font-family="sans-serif" font-size="14" lengthAdjust="spacing" textLength="73.7237" x="199.21" y="370.0339">description</text><ellipse cx="190.21" cy="385.1698" fill="none" rx="3" ry="3" style="stroke:#038048;stroke-width:1.0;"/><text fill="#000000" font-family="sans-serif" font-size="14" lengthAdjust="spacing" textLength="60.8718" x="199.21" y="389.1018">branches</text><ellipse cx="190.21" cy="404.2377" fill="none" rx="3" ry="3" style="stroke:#038048;stroke-width:1.0;"/><text fill="#000000" font-family="sans-serif" font-size="14" lengthAdjust="spacing" textLength="40.2778" x="199.21" y="408.1697">issues</text><line style="stroke:#181818;stroke-width:0.5;" x1="180.21" x2="277.9337" y1="416.2717" y2="416.2717"/></g><!--class Fork--><g id="elem_Fork"><rect codeLine="31" fill="#F1F1F1" height="86.1358" id="Fork" rx="2.5" ry="2.5" style="stroke:#181818;stroke-width:0.5;" width="103.9097" x="43.21" y="522"/><ellipse cx="77.5221" cy="538" fill="#ADD1B2" rx="11" ry="11" style="stroke:#181818;stroke-width:1.0;"/><path d="M80.4909,543.6406 Q79.9127,543.9375 79.2721,544.0781 Q78.6315,544.2344 77.9284,544.2344 Q75.4284,544.2344 74.1002,542.5938 Q72.7877,540.9375 72.7877,537.8125 Q72.7877,534.6875 74.1002,533.0313 Q75.4284,531.375 77.9284,531.375 Q78.6315,531.375 79.2721,531.5313 Q79.9284,531.6875 80.4909,531.9844 L80.4909,534.7031 Q79.8659,534.125 79.2721,533.8594 Q78.6784,533.5781 78.0534,533.5781 Q76.7096,533.5781 76.0221,534.6563 Q75.3346,535.7188 75.3346,537.8125 Q75.3346,539.9063 76.0221,540.9844 Q76.7096,542.0469 78.0534,542.0469 Q78.6784,542.0469 79.2721,541.7813 Q79.8659,541.5 80.4909,540.9219 L80.4909,543.6406 Z " fill="#000000"/><text fill="#000000" font-family="sans-serif" font-size="14" lengthAdjust="spacing" textLength="28.9939" x="95.8137" y="543.432">Fork</text><line style="stroke:#181818;stroke-width:0.5;" x1="44.21" x2="146.1197" y1="554" y2="554"/><ellipse cx="54.21" cy="569.034" fill="none" rx="3" ry="3" style="stroke:#038048;stroke-width:1.0;"/><text fill="#000000" font-family="sans-serif" font-size="14" lengthAdjust="spacing" textLength="77.9097" x="63.21" y="572.9659">sourceRepo</text><ellipse cx="54.21" cy="588.1019" fill="none" rx="3" ry="3" style="stroke:#038048;stroke-width:1.0;"/><text fill="#000000" font-family="sans-serif" font-size="14" lengthAdjust="spacing" textLength="59.2898" x="63.21" y="592.0339">forkedBy</text><line style="stroke:#181818;stroke-width:0.5;" x1="44.21" x2="146.1197" y1="600.1358" y2="600.1358"/></g><!--class Branch--><g id="elem_Branch"><rect codeLine="48" fill="#F1F1F1" height="86.1358" id="Branch" rx="2.5" ry="2.5" style="stroke:#181818;stroke-width:0.5;" width="82.7418" x="216.71" y="522"/><ellipse cx="233.5019" cy="538" fill="#ADD1B2" rx="11" ry="11" style="stroke:#181818;stroke-width:1.0;"/><path d="M236.4706,543.6406 Q235.8925,543.9375 235.2519,544.0781 Q234.6113,544.2344 233.9081,544.2344 Q231.4081,544.2344 230.08,542.5938 Q228.7675,540.9375 228.7675,537.8125 Q228.7675,534.6875 230.08,533.0313 Q231.4081,531.375 233.9081,531.375 Q234.6113,531.375 235.2519,531.5313 Q235.9081,531.6875 236.4706,531.9844 L236.4706,534.7031 Q235.8456,534.125 235.2519,533.8594 Q234.6581,533.5781 234.0331,533.5781 Q232.6894,533.5781 232.0019,534.6563 Q231.3144,535.7188 231.3144,537.8125 Q231.3144,539.9063 232.0019,540.9844 Q232.6894,542.0469 234.0331,542.0469 Q234.6581,542.0469 235.2519,541.7813 Q235.8456,541.5 236.4706,540.9219 L236.4706,543.6406 Z " fill="#000000"/><text fill="#000000" font-family="sans-serif" font-size="14" lengthAdjust="spacing" textLength="46.7598" x="247.9001" y="543.432">Branch</text><line style="stroke:#181818;stroke-width:0.5;" x1="217.71" x2="298.4518" y1="554" y2="554"/><ellipse cx="227.71" cy="569.034" fill="none" rx="3" ry="3" style="stroke:#038048;stroke-width:1.0;"/><text fill="#000000" font-family="sans-serif" font-size="14" lengthAdjust="spacing" textLength="37.4919" x="236.71" y="572.9659">name</text><ellipse cx="227.71" cy="588.1019" fill="none" rx="3" ry="3" style="stroke:#038048;stroke-width:1.0;"/><text fill="#000000" font-family="sans-serif" font-size="14" lengthAdjust="spacing" textLength="56.7418" x="236.71" y="592.0339">commits</text><line style="stroke:#181818;stroke-width:0.5;" x1="217.71" x2="298.4518" y1="600.1358" y2="600.1358"/></g><!--class Issue--><g id="elem_Issue"><rect codeLine="74" fill="#F1F1F1" height="124.2717" id="Issue" rx="2.5" ry="2.5" style="stroke:#181818;stroke-width:0.5;" width="99.7237" x="341.21" y="503"/><ellipse cx="371.068" cy="519" fill="#ADD1B2" rx="11" ry="11" style="stroke:#181818;stroke-width:1.0;"/><path d="M374.0368,524.6406 Q373.4587,524.9375 372.818,525.0781 Q372.1774,525.2344 371.4743,525.2344 Q368.9743,525.2344 367.6462,523.5938 Q366.3337,521.9375 366.3337,518.8125 Q366.3337,515.6875 367.6462,514.0313 Q368.9743,512.375 371.4743,512.375 Q372.1774,512.375 372.818,512.5313 Q373.4743,512.6875 374.0368,512.9844 L374.0368,515.7031 Q373.4118,515.125 372.818,514.8594 Q372.2243,514.5781 371.5993,514.5781 Q370.2555,514.5781 369.568,515.6563 Q368.8805,516.7188 368.8805,518.8125 Q368.8805,520.9063 369.568,521.9844 Q370.2555,523.0469 371.5993,523.0469 Q372.2243,523.0469 372.818,522.7813 Q373.4118,522.5 374.0368,521.9219 L374.0368,524.6406 Z " fill="#000000"/><text fill="#000000" font-family="sans-serif" font-size="14" lengthAdjust="spacing" textLength="34.7059" x="388.3698" y="524.432">Issue</text><line style="stroke:#181818;stroke-width:0.5;" x1="342.21" x2="439.9337" y1="535" y2="535"/><ellipse cx="352.21" cy="550.034" fill="none" rx="3" ry="3" style="stroke:#038048;stroke-width:1.0;"/><text fill="#000000" font-family="sans-serif" font-size="14" lengthAdjust="spacing" textLength="25.2279" x="361.21" y="553.9659">title</text><ellipse cx="352.21" cy="569.1019" fill="none" rx="3" ry="3" style="stroke:#038048;stroke-width:1.0;"/><text fill="#000000" font-family="sans-serif" font-size="14" lengthAdjust="spacing" textLength="73.7237" x="361.21" y="573.0339">description</text><ellipse cx="352.21" cy="588.1698" fill="none" rx="3" ry="3" style="stroke:#038048;stroke-width:1.0;"/><text fill="#000000" font-family="sans-serif" font-size="14" lengthAdjust="spacing" textLength="44.4638" x="361.21" y="592.1018">author</text><ellipse cx="352.21" cy="607.2377" fill="none" rx="3" ry="3" style="stroke:#038048;stroke-width:1.0;"/><text fill="#000000" font-family="sans-serif" font-size="14" lengthAdjust="spacing" textLength="40.0259" x="361.21" y="611.1697">status</text><line style="stroke:#181818;stroke-width:0.5;" x1="342.21" x2="439.9337" y1="619.2717" y2="619.2717"/></g><!--class Commit--><g id="elem_Commit"><rect codeLine="54" fill="#F1F1F1" height="124.2717" id="Commit" rx="2.5" ry="2.5" style="stroke:#181818;stroke-width:0.5;" width="84.7578" x="52.71" y="928"/><ellipse cx="67.9773" cy="944" fill="#ADD1B2" rx="11" ry="11" style="stroke:#181818;stroke-width:1.0;"/><path d="M70.946,949.6406 Q70.3679,949.9375 69.7273,950.0781 Q69.0867,950.2344 68.3835,950.2344 Q65.8835,950.2344 64.5554,948.5938 Q63.2429,946.9375 63.2429,943.8125 Q63.2429,940.6875 64.5554,939.0313 Q65.8835,937.375 68.3835,937.375 Q69.0867,937.375 69.7273,937.5313 Q70.3835,937.6875 70.946,937.9844 L70.946,940.7031 Q70.321,940.125 69.7273,939.8594 Q69.1335,939.5781 68.5085,939.5781 Q67.1648,939.5781 66.4773,940.6563 Q65.7898,941.7188 65.7898,943.8125 Q65.7898,945.9063 66.4773,946.9844 Q67.1648,948.0469 68.5085,948.0469 Q69.1335,948.0469 69.7273,947.7813 Q70.321,947.5 70.946,946.9219 L70.946,949.6406 Z " fill="#000000"/><text fill="#000000" font-family="sans-serif" font-size="14" lengthAdjust="spacing" textLength="52.1638" x="82.0367" y="949.432">Commit</text><line style="stroke:#181818;stroke-width:0.5;" x1="53.71" x2="136.4678" y1="960" y2="960"/><ellipse cx="63.71" cy="975.034" fill="none" rx="3" ry="3" style="stroke:#038048;stroke-width:1.0;"/><text fill="#000000" font-family="sans-serif" font-size="14" lengthAdjust="spacing" textLength="44.4638" x="72.71" y="978.9659">author</text><ellipse cx="63.71" cy="994.1019" fill="none" rx="3" ry="3" style="stroke:#038048;stroke-width:1.0;"/><text fill="#000000" font-family="sans-serif" font-size="14" lengthAdjust="spacing" textLength="58.7578" x="72.71" y="998.0339">message</text><ellipse cx="63.71" cy="1013.1698" fill="none" rx="3" ry="3" style="stroke:#038048;stroke-width:1.0;"/><text fill="#000000" font-family="sans-serif" font-size="14" lengthAdjust="spacing" textLength="29.4139" x="72.71" y="1017.1018">date</text><ellipse cx="63.71" cy="1032.2377" fill="none" rx="3" ry="3" style="stroke:#038048;stroke-width:1.0;"/><text fill="#000000" font-family="sans-serif" font-size="14" lengthAdjust="spacing" textLength="26.6419" x="72.71" y="1036.1697">files</text><line style="stroke:#181818;stroke-width:0.5;" x1="53.71" x2="136.4678" y1="1044.2717" y2="1044.2717"/></g><!--class File--><g id="elem_File"><rect codeLine="62" fill="#F1F1F1" height="86.1358" id="File" rx="2.5" ry="2.5" style="stroke:#181818;stroke-width:0.5;" width="63.4919" x="63.71" y="1131"/><ellipse cx="82.8077" cy="1147" fill="#ADD1B2" rx="11" ry="11" style="stroke:#181818;stroke-width:1.0;"/><path d="M85.7764,1152.6406 Q85.1983,1152.9375 84.5577,1153.0781 Q83.917,1153.2344 83.2139,1153.2344 Q80.7139,1153.2344 79.3858,1151.5938 Q78.0733,1149.9375 78.0733,1146.8125 Q78.0733,1143.6875 79.3858,1142.0313 Q80.7139,1140.375 83.2139,1140.375 Q83.917,1140.375 84.5577,1140.5313 Q85.2139,1140.6875 85.7764,1140.9844 L85.7764,1143.7031 Q85.1514,1143.125 84.5577,1142.8594 Q83.9639,1142.5781 83.3389,1142.5781 Q81.9952,1142.5781 81.3077,1143.6563 Q80.6202,1144.7188 80.6202,1146.8125 Q80.6202,1148.9063 81.3077,1149.9844 Q81.9952,1151.0469 83.3389,1151.0469 Q83.9639,1151.0469 84.5577,1150.7813 Q85.1514,1150.5 85.7764,1149.9219 L85.7764,1152.6406 Z " fill="#000000"/><text fill="#000000" font-family="sans-serif" font-size="14" lengthAdjust="spacing" textLength="22.3859" x="97.7183" y="1152.432">File</text><line style="stroke:#181818;stroke-width:0.5;" x1="64.71" x2="126.2019" y1="1163" y2="1163"/><ellipse cx="74.71" cy="1178.034" fill="none" rx="3" ry="3" style="stroke:#038048;stroke-width:1.0;"/><text fill="#000000" font-family="sans-serif" font-size="14" lengthAdjust="spacing" textLength="37.4919" x="83.71" y="1181.9659">name</text><ellipse cx="74.71" cy="1197.1019" fill="none" rx="3" ry="3" style="stroke:#038048;stroke-width:1.0;"/><text fill="#000000" font-family="sans-serif" font-size="14" lengthAdjust="spacing" textLength="29.3719" x="83.71" y="1201.0339">data</text><line style="stroke:#181818;stroke-width:0.5;" x1="64.71" x2="126.2019" y1="1209.1358" y2="1209.1358"/></g><!--class Version--><g id="elem_Version"><rect codeLine="68" fill="#F1F1F1" height="86.1358" id="Version" rx="2.5" ry="2.5" style="stroke:#181818;stroke-width:0.5;" width="128.8996" x="154.71" y="734.5"/><ellipse cx="191.0318" cy="750.5" fill="#ADD1B2" rx="11" ry="11" style="stroke:#181818;stroke-width:1.0;"/><path d="M194.0006,756.1406 Q193.4224,756.4375 192.7818,756.5781 Q192.1412,756.7344 191.4381,756.7344 Q188.9381,756.7344 187.6099,755.0938 Q186.2974,753.4375 186.2974,750.3125 Q186.2974,747.1875 187.6099,745.5313 Q188.9381,743.875 191.4381,743.875 Q192.1412,743.875 192.7818,744.0313 Q193.4381,744.1875 194.0006,744.4844 L194.0006,747.2031 Q193.3756,746.625 192.7818,746.3594 Q192.1881,746.0781 191.5631,746.0781 Q190.2193,746.0781 189.5318,747.1563 Q188.8443,748.2188 188.8443,750.3125 Q188.8443,752.4063 189.5318,753.4844 Q190.2193,754.5469 191.5631,754.5469 Q192.1881,754.5469 192.7818,754.2813 Q193.3756,754 194.0006,753.4219 L194.0006,756.1406 Z " fill="#000000"/><text fill="#000000" font-family="sans-serif" font-size="14" lengthAdjust="spacing" textLength="49.5178" x="209.77" y="755.932">Version</text><line style="stroke:#181818;stroke-width:0.5;" x1="155.71" x2="282.6096" y1="766.5" y2="766.5"/><ellipse cx="165.71" cy="781.534" fill="none" rx="3" ry="3" style="stroke:#038048;stroke-width:1.0;"/><text fill="#000000" font-family="sans-serif" font-size="14" lengthAdjust="spacing" textLength="102.8996" x="174.71" y="785.4659">versionNumber</text><ellipse cx="165.71" cy="800.6019" fill="none" rx="3" ry="3" style="stroke:#038048;stroke-width:1.0;"/><text fill="#000000" font-family="sans-serif" font-size="14" lengthAdjust="spacing" textLength="56.7418" x="174.71" y="804.5339">commits</text><line style="stroke:#181818;stroke-width:0.5;" x1="155.71" x2="282.6096" y1="812.6358" y2="812.6358"/></g><!--class PullRequest--><g id="elem_PullRequest"><rect codeLine="82" fill="#F1F1F1" height="143.3396" id="PullRequest" rx="2.5" ry="2.5" style="stroke:#181818;stroke-width:0.5;" width="109.8677" x="341.21" y="706"/><ellipse cx="356.21" cy="722" fill="#ADD1B2" rx="11" ry="11" style="stroke:#181818;stroke-width:1.0;"/><path d="M359.1788,727.6406 Q358.6006,727.9375 357.96,728.0781 Q357.3194,728.2344 356.6163,728.2344 Q354.1163,728.2344 352.7881,726.5938 Q351.4756,724.9375 351.4756,721.8125 Q351.4756,718.6875 352.7881,717.0313 Q354.1163,715.375 356.6163,715.375 Q357.3194,715.375 357.96,715.5313 Q358.6163,715.6875 359.1788,715.9844 L359.1788,718.7031 Q358.5538,718.125 357.96,717.8594 Q357.3663,717.5781 356.7413,717.5781 Q355.3975,717.5781 354.71,718.6563 Q354.0225,719.7188 354.0225,721.8125 Q354.0225,723.9063 354.71,724.9844 Q355.3975,726.0469 356.7413,726.0469 Q357.3663,726.0469 357.96,725.7813 Q358.5538,725.5 359.1788,724.9219 L359.1788,727.6406 Z " fill="#000000"/><text fill="#000000" font-family="sans-serif" font-size="14" lengthAdjust="spacing" textLength="77.8677" x="370.21" y="727.432">PullRequest</text><line style="stroke:#181818;stroke-width:0.5;" x1="342.21" x2="450.0777" y1="738" y2="738"/><ellipse cx="352.21" cy="753.034" fill="none" rx="3" ry="3" style="stroke:#038048;stroke-width:1.0;"/><text fill="#000000" font-family="sans-serif" font-size="14" lengthAdjust="spacing" textLength="25.2279" x="361.21" y="756.9659">title</text><ellipse cx="352.21" cy="772.1019" fill="none" rx="3" ry="3" style="stroke:#038048;stroke-width:1.0;"/><text fill="#000000" font-family="sans-serif" font-size="14" lengthAdjust="spacing" textLength="73.7237" x="361.21" y="776.0339">description</text><ellipse cx="352.21" cy="791.1698" fill="none" rx="3" ry="3" style="stroke:#038048;stroke-width:1.0;"/><text fill="#000000" font-family="sans-serif" font-size="14" lengthAdjust="spacing" textLength="78.9177" x="361.21" y="795.1018">fromBranch</text><ellipse cx="352.21" cy="810.2377" fill="none" rx="3" ry="3" style="stroke:#038048;stroke-width:1.0;"/><text fill="#000000" font-family="sans-serif" font-size="14" lengthAdjust="spacing" textLength="60.2838" x="361.21" y="814.1697">toBranch</text><ellipse cx="352.21" cy="829.3056" fill="none" rx="3" ry="3" style="stroke:#038048;stroke-width:1.0;"/><text fill="#000000" font-family="sans-serif" font-size="14" lengthAdjust="spacing" textLength="40.0259" x="361.21" y="833.2376">status</text><line style="stroke:#181818;stroke-width:0.5;" x1="342.21" x2="450.0777" y1="841.3396" y2="841.3396"/></g><!--reverse link Usuario to Owner--><g id="link_Usuario_Owner"><path codeLine="19" d="M261.0816,109.8077 C269.0316,129.3877 271.57,135.63 278.97,153.87 " fill="none" id="Usuario-backto-Owner" style="stroke:#181818;stroke-width:1.0;"/><polygon fill="none" points="254.31,93.13,255.5224,112.0649,266.6408,107.5505,254.31,93.13" style="stroke:#181818;stroke-width:1.0;"/></g><!--reverse link Usuario to Colaborador--><g id="link_Usuario_Colaborador"><path codeLine="20" d="M199.2737,108.1257 C186.2737,127.7057 181,135.63 168.89,153.87 " fill="none" id="Usuario-backto-Colaborador" style="stroke:#181818;stroke-width:1.0;"/><polygon fill="none" points="209.23,93.13,194.2751,104.807,204.2723,111.4445,209.23,93.13" style="stroke:#181818;stroke-width:1.0;"/></g><!--link Fork to Repo--><g id="link_Fork_Repo"><path codeLine="37" d="M138.63,521.82 C152.33,507.16 166.85,490.09 178.21,473 C188.24,457.93 189.7199,456.8954 197.3099,440.4954 " fill="none" id="Fork-to-Repo" style="stroke:#181818;stroke-width:1.0;"/><polygon fill="none" points="204.87,424.16,191.8648,437.9754,202.755,443.0154,204.87,424.16" style="stroke:#181818;stroke-width:1.0;"/></g><!--reverse link Repo to Fork--><g id="link_Repo_Fork"><path codeLine="44" d="M173.3885,383.2698 C141.1485,397.6198 107.38,418.82 88.21,454 C77.04,474.5 78.11,500.44 82.29,521.99 " fill="none" id="Repo-backto-Fork" style="stroke:#181818;stroke-width:1.0;"/><polygon fill="#181818" points="178.87,380.83,169.0211,380.8354,174.3021,382.8632,172.2742,388.1441,178.87,380.83" style="stroke:#181818;stroke-width:1.0;"/><text fill="#000000" font-family="sans-serif" font-size="13" lengthAdjust="spacing" textLength="80.2621" x="89.21" y="468.897">is forked into</text><text fill="#000000" font-family="sans-serif" font-size="13" lengthAdjust="spacing" textLength="7.436" x="163.6803" y="379.342">1</text><text fill="#000000" font-family="sans-serif" font-size="13" lengthAdjust="spacing" textLength="21.567" x="81.9306" y="510.0827">0..*</text></g><!--reverse link Owner to Repo--><g id="link_Owner_Repo"><path codeLine="40" d="M276.0952,232.6225 C267.9952,254.8125 261.17,273.51 251.5,299.99 " fill="none" id="Owner-backto-Repo" style="stroke:#181818;stroke-width:1.0;"/><polygon fill="none" points="280.21,221.35,274.3951,225.6146,276.0952,232.6225,281.9101,228.3578,280.21,221.35" style="stroke:#181818;stroke-width:1.0;"/><text fill="#000000" font-family="sans-serif" font-size="13" lengthAdjust="spacing" textLength="32.344" x="269.21" y="265.897">owns</text><text fill="#000000" font-family="sans-serif" font-size="13" lengthAdjust="spacing" textLength="7.436" x="270.5239" y="242.8474">1</text><text fill="#000000" font-family="sans-serif" font-size="13" lengthAdjust="spacing" textLength="21.567" x="231.9883" y="288.3201">1..*</text></g><!--link Colaborador to Repo--><g id="link_Colaborador_Repo"><path codeLine="41" d="M162.83,221.35 C173.38,243.54 187.62,273.51 200.21,299.99 " fill="none" id="Colaborador-Repo" style="stroke:#181818;stroke-width:1.0;"/><text fill="#000000" font-family="sans-serif" font-size="13" lengthAdjust="spacing" textLength="57.772" x="187.21" y="265.897">Works on</text></g><!--reverse link Repo to Branch--><g id="link_Repo_Branch"><path codeLine="42" d="M239.7454,436.0068 C244.3154,467.6468 248.06,493.61 252.14,521.94 " fill="none" id="Repo-backto-Branch" style="stroke:#181818;stroke-width:1.0;"/><polygon fill="none" points="238.03,424.13,234.9288,430.6402,239.7454,436.0068,242.8466,429.4966,238.03,424.13" style="stroke:#181818;stroke-width:1.0;"/><text fill="#000000" font-family="sans-serif" font-size="13" lengthAdjust="spacing" textLength="51.7401" x="246.21" y="468.897">contains</text><text fill="#000000" font-family="sans-serif" font-size="13" lengthAdjust="spacing" textLength="7.436" x="231.6863" y="446.2187">1</text><text fill="#000000" font-family="sans-serif" font-size="13" lengthAdjust="spacing" textLength="21.567" x="228.4639" y="510.3446">1..*</text></g><!--link Repo to Issue--><g id="link_Repo_Issue"><path codeLine="43" d="M279.3,421.42 C288.34,432.19 297.62,443.38 306.21,454 C318.89,469.67 328.6601,482.0732 341.0301,498.0732 " fill="none" id="Repo-to-Issue" style="stroke:#181818;stroke-width:1.0;"/><polygon fill="#181818" points="344.7,502.82,342.3597,493.2532,341.6418,498.8643,336.0307,498.1464,344.7,502.82" style="stroke:#181818;stroke-width:1.0;"/><text fill="#000000" font-family="sans-serif" font-size="13" lengthAdjust="spacing" textLength="21.554" x="322.21" y="468.897">has</text><text fill="#000000" font-family="sans-serif" font-size="13" lengthAdjust="spacing" textLength="7.436" x="286.8862" y="425.5082">1</text><text fill="#000000" font-family="sans-serif" font-size="13" lengthAdjust="spacing" textLength="21.567" x="316.8033" y="491.1294">0..*</text></g><!--link Fork to Usuario--><g id="link_Fork_Usuario"><path codeLine="45" d="M78.96,521.77 C51.72,443.59 6,273.39 72.21,154 C97.19,108.96 150.96,81.03 190.36,65.81 " fill="none" id="Fork-Usuario" style="stroke:#181818;stroke-width:1.0;"/><text fill="#000000" font-family="sans-serif" font-size="13" lengthAdjust="spacing" textLength="57.98" x="42.21" y="265.897">forked by</text><text fill="#000000" font-family="sans-serif" font-size="13" lengthAdjust="spacing" textLength="7.436" x="68.7325" y="510.1465">1</text><text fill="#000000" font-family="sans-serif" font-size="13" lengthAdjust="spacing" textLength="7.436" x="175.4078" y="63.9175">1</text></g><!--reverse link Branch to Commit--><g id="link_Branch_Commit"><path codeLine="91" d="M206.5448,599.9951 C159.7148,631.6151 98.36,676.45 84.21,706 C50.5,776.4 62.83,868.31 77.06,927.99 " fill="none" id="Branch-backto-Commit" style="stroke:#181818;stroke-width:1.0;"/><polygon fill="none" points="216.49,593.28,209.279,593.3225,206.5448,599.9951,213.7558,599.9526,216.49,593.28" style="stroke:#181818;stroke-width:1.0;"/><text fill="#000000" font-family="sans-serif" font-size="13" lengthAdjust="spacing" textLength="51.7401" x="85.21" y="782.897">contains</text><text fill="#000000" font-family="sans-serif" font-size="13" lengthAdjust="spacing" textLength="7.436" x="201.2166" y="593.8765">1</text><text fill="#000000" font-family="sans-serif" font-size="13" lengthAdjust="spacing" textLength="21.567" x="52.6176" y="916.3201">0..*</text></g><!--reverse link Commit to File--><g id="link_Commit_File"><path codeLine="92" d="M95.21,1064.11 C95.21,1090.03 95.21,1107.59 95.21,1130.99 " fill="none" id="Commit-backto-File" style="stroke:#181818;stroke-width:1.0;"/><polygon fill="#181818" points="95.21,1052.11,91.21,1058.11,95.21,1064.11,99.21,1058.11,95.21,1052.11" style="stroke:#181818;stroke-width:1.0;"/><text fill="#000000" font-family="sans-serif" font-size="13" lengthAdjust="spacing" textLength="52.754" x="96.21" y="1096.897">modifies</text><text fill="#000000" font-family="sans-serif" font-size="13" lengthAdjust="spacing" textLength="7.436" x="87.8445" y="1074.1964">1</text><text fill="#000000" font-family="sans-serif" font-size="13" lengthAdjust="spacing" textLength="21.567" x="72.4118" y="1119.0827">1..*</text></g><!--link Branch to Version--><g id="link_Branch_Version"><path codeLine="93" d="M226.77,608.28 C217.64,622.94 208.88,639.99 204.21,657 C197.3,682.21 199.3691,705.4417 204.6791,728.6017 " fill="none" id="Branch-to-Version" style="stroke:#181818;stroke-width:1.0;"/><polygon fill="#181818" points="206.02,734.45,207.9076,724.7837,204.9026,729.5765,200.1099,726.5715,206.02,734.45" style="stroke:#181818;stroke-width:1.0;"/><text fill="#000000" font-family="sans-serif" font-size="13" lengthAdjust="spacing" textLength="60.203" x="205.21" y="671.897">tagged as</text><text fill="#000000" font-family="sans-serif" font-size="13" lengthAdjust="spacing" textLength="7.436" x="214.473" y="630.1495">1</text><text fill="#000000" font-family="sans-serif" font-size="13" lengthAdjust="spacing" textLength="21.567" x="181.0056" y="722.5359">0..*</text></g><!--reverse link Version to Commit--><g id="link_Version_Commit"><path codeLine="94" d="M188.3284,830.9289 C170.2284,861.6489 151.52,893.41 131.25,927.83 " fill="none" id="Version-backto-Commit" style="stroke:#181818;stroke-width:1.0;"/><polygon fill="none" points="194.42,820.59,187.9279,823.7289,188.3284,830.9289,194.8205,827.79,194.42,820.59" style="stroke:#181818;stroke-width:1.0;"/><text fill="#000000" font-family="sans-serif" font-size="13" lengthAdjust="spacing" textLength="50.5701" x="158.21" y="893.897">includes</text><text fill="#000000" font-family="sans-serif" font-size="13" lengthAdjust="spacing" textLength="7.436" x="183.1292" y="842.4304">1</text><text fill="#000000" font-family="sans-serif" font-size="13" lengthAdjust="spacing" textLength="21.567" x="113.412" y="916.1406">1..*</text></g><!--link Branch to PullRequest--><g id="link_Branch_PullRequest"><path codeLine="95" d="M272.92,608.07 C281.21,629.26 292.64,654.87 306.21,676 C316.27,691.67 324.8005,702.8008 337.2405,716.9008 " fill="none" id="Branch-to-PullRequest" style="stroke:#181818;stroke-width:1.0;"/><polygon fill="#181818" points="341.21,721.4,338.2552,712.0048,337.9021,717.6507,332.2562,717.2975,341.21,721.4" style="stroke:#181818;stroke-width:1.0;"/><text fill="#000000" font-family="sans-serif" font-size="13" lengthAdjust="spacing" textLength="56.784" x="307.21" y="671.897">source of</text><text fill="#000000" font-family="sans-serif" font-size="13" lengthAdjust="spacing" textLength="7.436" x="267.6897" y="629.9073">1</text><text fill="#000000" font-family="sans-serif" font-size="13" lengthAdjust="spacing" textLength="21.567" x="311.4554" y="709.641">0..*</text></g><!--link PullRequest to Branch--><g id="link_PullRequest_Branch"><path codeLine="96" d="M388.79,705.83 C384.62,688.78 378.17,671.36 368.21,657 C354.51,637.25 342.04,641.94 323.21,627 C315.45,620.84 311.9478,617.9881 304.3978,611.1181 " fill="none" id="PullRequest-to-Branch" style="stroke:#181818;stroke-width:1.0;"/><polygon fill="#181818" points="299.96,607.08,303.9246,616.0956,303.6581,610.4451,309.3087,610.1786,299.96,607.08" style="stroke:#181818;stroke-width:1.0;"/><text fill="#000000" font-family="sans-serif" font-size="13" lengthAdjust="spacing" textLength="43.602" x="378.21" y="671.897">targets</text><text fill="#000000" font-family="sans-serif" font-size="13" lengthAdjust="spacing" textLength="7.436" x="380.6267" y="693.9785">1</text><text fill="#000000" font-family="sans-serif" font-size="13" lengthAdjust="spacing" textLength="7.436" x="299.8351" y="630.0374">1</text></g><!--link Issue to Usuario--><g id="link_Issue_Usuario"><path codeLine="97" d="M401.22,502.68 C411.83,418.85 420.02,266.1 362.21,154 C345.01,120.64 316.8072,97.2888 288.9272,79.4888 " fill="none" id="Issue-to-Usuario" style="stroke:#181818;stroke-width:1.0;"/><polygon fill="#181818" points="283.87,76.26,289.3033,84.4746,288.0843,78.9506,293.6083,77.7317,283.87,76.26" style="stroke:#181818;stroke-width:1.0;"/><text fill="#000000" font-family="sans-serif" font-size="13" lengthAdjust="spacing" textLength="71.9551" x="399.21" y="265.897">reported by</text><text fill="#000000" font-family="sans-serif" font-size="13" lengthAdjust="spacing" textLength="7.436" x="395.0568" y="490.9723">1</text><text fill="#000000" font-family="sans-serif" font-size="13" lengthAdjust="spacing" textLength="7.436" x="291.304" y="75.8074">1</text></g><!--SRC=[ZLHDZzCm4BtdLunwsR8eAtgDLYlHIaXx0LIqS7OIfx58uk8FLXNBVsVi6QTEbo9wI3tZDs- -Nd83Ms4bx0PXRGLFrWkZDAoVh3HlYYPuP-Ul0l3trkFL94P9bXo56ehVHN43NtpT4CrE3wBMHhJQm1eDifoUANC0qnwb6PMrIa_sakxJyoGDHyPpYZ7ogAr2NYKvw77gfL5EJ8s4lHo42tozEjeYTN7_KfRCk71b9GKY7iWUCy1wd_ASKWFHprMSXz5AsnXr34d9KHkifCVYeeNj-LGeyt_GvZkimrEsy3fDlEOqLdlJo80Xkuj1szE_6oyYHLc-F4Jw07rlhMuK8GgQvsgp0er3M6tkxcvNr5q5-Xa1-QeGmLVVaDK2jXdjY_1jx1fHZPwSK4Woeyho0LRl8kenJ0D1lSZkxmCBtSV2Ar0Mg5DGazFK3Z75lxJ3Ag7gKpPUgeI7oMMzsbgZnr6vvLvsqJUhDHWfK7ZNeqRYUPJMYaFQld1ywjHmkMVqf9tYyI_I4Kui8hvA4ru63c8hnVqaywCVQsckTn57p0mqRevtoWtND9ltPvrmVidvsG_3Nlv08QVnP9x_uU-C7dalXDMvbMTS29MtDqkDHCAhoQJ6de2xFKio3hs2KRUg2n-BZ2sJP9fo1KuS3YWcb6RoNMXyJgocPl3jLSfyE1NGEmowAtB_7BB9tXqdp47YFcblEUGi-V3zCuv4_mS0]--></g></svg>