<svg xmlns="http://www.w3.org/2000/svg" xmlns:xlink="http://www.w3.org/1999/xlink" contentStyleType="text/css" height="824px" preserveAspectRatio="none" style="width:404px;height:824px;background:#FFFFFF;" version="1.1" viewBox="0 0 404 824" width="404px" zoomAndPan="magnify"><defs/><g><!--class Usuario--><g id="elem_Usuario"><rect codeLine="2" fill="#F1F1F1" height="48" id="Usuario" rx="2.5" ry="2.5" style="stroke:#181818;stroke-width:0.5;" width="83.3098" x="87.5" y="7"/><ellipse cx="102.5" cy="23" fill="#ADD1B2" rx="11" ry="11" style="stroke:#181818;stroke-width:1.0;"/><path d="M105.4688,28.6406 Q104.8906,28.9375 104.25,29.0781 Q103.6094,29.2344 102.9063,29.2344 Q100.4063,29.2344 99.0781,27.5938 Q97.7656,25.9375 97.7656,22.8125 Q97.7656,19.6875 99.0781,18.0313 Q100.4063,16.375 102.9063,16.375 Q103.6094,16.375 104.25,16.5313 Q104.9063,16.6875 105.4688,16.9844 L105.4688,19.7031 Q104.8438,19.125 104.25,18.8594 Q103.6563,18.5781 103.0313,18.5781 Q101.6875,18.5781 101,19.6563 Q100.3125,20.7188 100.3125,22.8125 Q100.3125,24.9063 101,25.9844 Q101.6875,27.0469 103.0313,27.0469 Q103.6563,27.0469 104.25,26.7813 Q104.8438,26.5 105.4688,25.9219 L105.4688,28.6406 Z " fill="#000000"/><text fill="#000000" font-family="sans-serif" font-size="14" lengthAdjust="spacing" textLength="51.3098" x="116.5" y="28.432">Usuario</text><line style="stroke:#181818;stroke-width:0.5;" x1="88.5" x2="169.8098" y1="39" y2="39"/><line style="stroke:#181818;stroke-width:0.5;" x1="88.5" x2="169.8098" y1="47" y2="47"/></g><!--class Colaborador--><g id="elem_Colaborador"><rect codeLine="3" fill="#F1F1F1" height="48" id="Colaborador" rx="2.5" ry="2.5" style="stroke:#181818;stroke-width:0.5;" width="114.3617" x="7" y="115"/><ellipse cx="22" cy="131" fill="#ADD1B2" rx="11" ry="11" style="stroke:#181818;stroke-width:1.0;"/><path d="M24.9688,136.6406 Q24.3906,136.9375 23.75,137.0781 Q23.1094,137.2344 22.4063,137.2344 Q19.9063,137.2344 18.5781,135.5938 Q17.2656,133.9375 17.2656,130.8125 Q17.2656,127.6875 18.5781,126.0313 Q19.9063,124.375 22.4063,124.375 Q23.1094,124.375 23.75,124.5313 Q24.4063,124.6875 24.9688,124.9844 L24.9688,127.7031 Q24.3438,127.125 23.75,126.8594 Q23.1563,126.5781 22.5313,126.5781 Q21.1875,126.5781 20.5,127.6563 Q19.8125,128.7188 19.8125,130.8125 Q19.8125,132.9063 20.5,133.9844 Q21.1875,135.0469 22.5313,135.0469 Q23.1563,135.0469 23.75,134.7813 Q24.3438,134.5 24.9688,133.9219 L24.9688,136.6406 Z " fill="#000000"/><text fill="#000000" font-family="sans-serif" font-size="14" lengthAdjust="spacing" textLength="82.3617" x="36" y="136.432">Colaborador</text><line style="stroke:#181818;stroke-width:0.5;" x1="8" x2="120.3617" y1="147" y2="147"/><line style="stroke:#181818;stroke-width:0.5;" x1="8" x2="120.3617" y1="155" y2="155"/></g><!--class Owner--><g id="elem_Owner"><rect codeLine="4" fill="#F1F1F1" height="48" id="Owner" rx="2.5" ry="2.5" style="stroke:#181818;stroke-width:0.5;" width="76.2678" x="156" y="115"/><ellipse cx="171" cy="131" fill="#ADD1B2" rx="11" ry="11" style="stroke:#181818;stroke-width:1.0;"/><path d="M173.9688,136.6406 Q173.3906,136.9375 172.75,137.0781 Q172.1094,137.2344 171.4063,137.2344 Q168.9063,137.2344 167.5781,135.5938 Q166.2656,133.9375 166.2656,130.8125 Q166.2656,127.6875 167.5781,126.0313 Q168.9063,124.375 171.4063,124.375 Q172.1094,124.375 172.75,124.5313 Q173.4063,124.6875 173.9688,124.9844 L173.9688,127.7031 Q173.3438,127.125 172.75,126.8594 Q172.1563,126.5781 171.5313,126.5781 Q170.1875,126.5781 169.5,127.6563 Q168.8125,128.7188 168.8125,130.8125 Q168.8125,132.9063 169.5,133.9844 Q170.1875,135.0469 171.5313,135.0469 Q172.1563,135.0469 172.75,134.7813 Q173.3438,134.5 173.9688,133.9219 L173.9688,136.6406 Z " fill="#000000"/><text fill="#000000" font-family="sans-serif" font-size="14" lengthAdjust="spacing" textLength="44.2678" x="185" y="136.432">Owner</text><line style="stroke:#181818;stroke-width:0.5;" x1="157" x2="231.2678" y1="147" y2="147"/><line style="stroke:#181818;stroke-width:0.5;" x1="157" x2="231.2678" y1="155" y2="155"/></g><!--class Repo--><g id="elem_Repo"><rect codeLine="5" fill="#F1F1F1" height="67.0679" id="Repo" rx="2.5" ry="2.5" style="stroke:#181818;stroke-width:0.5;" width="110.2797" x="139" y="223"/><ellipse cx="174.0681" cy="239" fill="#ADD1B2" rx="11" ry="11" style="stroke:#181818;stroke-width:1.0;"/><path d="M177.0369,244.6406 Q176.4587,244.9375 175.8181,245.0781 Q175.1775,245.2344 174.4744,245.2344 Q171.9744,245.2344 170.6462,243.5938 Q169.3337,241.9375 169.3337,238.8125 Q169.3337,235.6875 170.6462,234.0313 Q171.9744,232.375 174.4744,232.375 Q175.1775,232.375 175.8181,232.5313 Q176.4744,232.6875 177.0369,232.9844 L177.0369,235.7031 Q176.4119,235.125 175.8181,234.8594 Q175.2244,234.5781 174.5994,234.5781 Q173.2556,234.5781 172.5681,235.6563 Q171.8806,236.7188 171.8806,238.8125 Q171.8806,240.9063 172.5681,241.9844 Q173.2556,243.0469 174.5994,243.0469 Q175.2244,243.0469 175.8181,242.7813 Q176.4119,242.5 177.0369,241.9219 L177.0369,244.6406 Z " fill="#000000"/><text fill="#000000" font-family="sans-serif" font-size="14" lengthAdjust="spacing" textLength="33.6839" x="192.5277" y="244.432">Repo</text><line style="stroke:#181818;stroke-width:0.5;" x1="140" x2="248.2797" y1="255" y2="255"/><ellipse cx="150" cy="270.034" fill="none" rx="3" ry="3" style="stroke:#038048;stroke-width:1.0;"/><text fill="#000000" font-family="sans-serif" font-size="14" lengthAdjust="spacing" textLength="84.2797" x="159" y="273.9659">name: String</text><line style="stroke:#181818;stroke-width:0.5;" x1="140" x2="248.2797" y1="282.0679" y2="282.0679"/></g><!--class Fork--><g id="elem_Fork"><rect codeLine="8" fill="#F1F1F1" height="48" id="Fork" rx="2.5" ry="2.5" style="stroke:#181818;stroke-width:0.5;" width="60.9939" x="23.5" y="369"/><ellipse cx="38.5" cy="385" fill="#ADD1B2" rx="11" ry="11" style="stroke:#181818;stroke-width:1.0;"/><path d="M41.4688,390.6406 Q40.8906,390.9375 40.25,391.0781 Q39.6094,391.2344 38.9063,391.2344 Q36.4063,391.2344 35.0781,389.5938 Q33.7656,387.9375 33.7656,384.8125 Q33.7656,381.6875 35.0781,380.0313 Q36.4063,378.375 38.9063,378.375 Q39.6094,378.375 40.25,378.5313 Q40.9063,378.6875 41.4688,378.9844 L41.4688,381.7031 Q40.8438,381.125 40.25,380.8594 Q39.6563,380.5781 39.0313,380.5781 Q37.6875,380.5781 37,381.6563 Q36.3125,382.7188 36.3125,384.8125 Q36.3125,386.9063 37,387.9844 Q37.6875,389.0469 39.0313,389.0469 Q39.6563,389.0469 40.25,388.7813 Q40.8438,388.5 41.4688,387.9219 L41.4688,390.6406 Z " fill="#000000"/><text fill="#000000" font-family="sans-serif" font-size="14" lengthAdjust="spacing" textLength="28.9939" x="52.5" y="390.432">Fork</text><line style="stroke:#181818;stroke-width:0.5;" x1="24.5" x2="83.4939" y1="401" y2="401"/><line style="stroke:#181818;stroke-width:0.5;" x1="24.5" x2="83.4939" y1="409" y2="409"/></g><!--class Issue--><g id="elem_Issue"><rect codeLine="9" fill="#F1F1F1" height="86.1358" id="Issue" rx="2.5" ry="2.5" style="stroke:#181818;stroke-width:0.5;" width="148.1775" x="120" y="350"/><ellipse cx="172.4858" cy="366" fill="#ADD1B2" rx="11" ry="11" style="stroke:#181818;stroke-width:1.0;"/><path d="M175.4546,371.6406 Q174.8765,371.9375 174.2358,372.0781 Q173.5952,372.2344 172.8921,372.2344 Q170.3921,372.2344 169.064,370.5938 Q167.7515,368.9375 167.7515,365.8125 Q167.7515,362.6875 169.064,361.0313 Q170.3921,359.375 172.8921,359.375 Q173.5952,359.375 174.2358,359.5313 Q174.8921,359.6875 175.4546,359.9844 L175.4546,362.7031 Q174.8296,362.125 174.2358,361.8594 Q173.6421,361.5781 173.0171,361.5781 Q171.6733,361.5781 170.9858,362.6563 Q170.2983,363.7188 170.2983,365.8125 Q170.2983,367.9063 170.9858,368.9844 Q171.6733,370.0469 173.0171,370.0469 Q173.6421,370.0469 174.2358,369.7813 Q174.8296,369.5 175.4546,368.9219 L175.4546,371.6406 Z " fill="#000000"/><text fill="#000000" font-family="sans-serif" font-size="14" lengthAdjust="spacing" textLength="34.7059" x="192.9858" y="371.432">Issue</text><line style="stroke:#181818;stroke-width:0.5;" x1="121" x2="267.1775" y1="382" y2="382"/><ellipse cx="131" cy="397.034" fill="none" rx="3" ry="3" style="stroke:#038048;stroke-width:1.0;"/><text fill="#000000" font-family="sans-serif" font-size="14" lengthAdjust="spacing" textLength="81.2417" x="140" y="400.9659">titulo: String</text><ellipse cx="131" cy="416.1019" fill="none" rx="3" ry="3" style="stroke:#038048;stroke-width:1.0;"/><text fill="#000000" font-family="sans-serif" font-size="14" lengthAdjust="spacing" textLength="122.1775" x="140" y="420.0339">descripcion: String</text><line style="stroke:#181818;stroke-width:0.5;" x1="121" x2="267.1775" y1="428.1358" y2="428.1358"/></g><!--class Branch--><g id="elem_Branch"><rect codeLine="13" fill="#F1F1F1" height="48" id="Branch" rx="2.5" ry="2.5" style="stroke:#181818;stroke-width:0.5;" width="78.7598" x="303.5" y="369"/><ellipse cx="318.5" cy="385" fill="#ADD1B2" rx="11" ry="11" style="stroke:#181818;stroke-width:1.0;"/><path d="M321.4688,390.6406 Q320.8906,390.9375 320.25,391.0781 Q319.6094,391.2344 318.9063,391.2344 Q316.4063,391.2344 315.0781,389.5938 Q313.7656,387.9375 313.7656,384.8125 Q313.7656,381.6875 315.0781,380.0313 Q316.4063,378.375 318.9063,378.375 Q319.6094,378.375 320.25,378.5313 Q320.9063,378.6875 321.4688,378.9844 L321.4688,381.7031 Q320.8438,381.125 320.25,380.8594 Q319.6563,380.5781 319.0313,380.5781 Q317.6875,380.5781 317,381.6563 Q316.3125,382.7188 316.3125,384.8125 Q316.3125,386.9063 317,387.9844 Q317.6875,389.0469 319.0313,389.0469 Q319.6563,389.0469 320.25,388.7813 Q320.8438,388.5 321.4688,387.9219 L321.4688,390.6406 Z " fill="#000000"/><text fill="#000000" font-family="sans-serif" font-size="14" lengthAdjust="spacing" textLength="46.7598" x="332.5" y="390.432">Branch</text><line style="stroke:#181818;stroke-width:0.5;" x1="304.5" x2="381.2598" y1="401" y2="401"/><line style="stroke:#181818;stroke-width:0.5;" x1="304.5" x2="381.2598" y1="409" y2="409"/></g><!--class PullRequest--><g id="elem_PullRequest"><rect codeLine="14" fill="#F1F1F1" height="48" id="PullRequest" rx="2.5" ry="2.5" style="stroke:#181818;stroke-width:0.5;" width="109.8677" x="78" y="496"/><ellipse cx="93" cy="512" fill="#ADD1B2" rx="11" ry="11" style="stroke:#181818;stroke-width:1.0;"/><path d="M95.9688,517.6406 Q95.3906,517.9375 94.75,518.0781 Q94.1094,518.2344 93.4063,518.2344 Q90.9063,518.2344 89.5781,516.5938 Q88.2656,514.9375 88.2656,511.8125 Q88.2656,508.6875 89.5781,507.0313 Q90.9063,505.375 93.4063,505.375 Q94.1094,505.375 94.75,505.5313 Q95.4063,505.6875 95.9688,505.9844 L95.9688,508.7031 Q95.3438,508.125 94.75,507.8594 Q94.1563,507.5781 93.5313,507.5781 Q92.1875,507.5781 91.5,508.6563 Q90.8125,509.7188 90.8125,511.8125 Q90.8125,513.9063 91.5,514.9844 Q92.1875,516.0469 93.5313,516.0469 Q94.1563,516.0469 94.75,515.7813 Q95.3438,515.5 95.9688,514.9219 L95.9688,517.6406 Z " fill="#000000"/><text fill="#000000" font-family="sans-serif" font-size="14" lengthAdjust="spacing" textLength="77.8677" x="107" y="517.432">PullRequest</text><line style="stroke:#181818;stroke-width:0.5;" x1="79" x2="186.8677" y1="528" y2="528"/><line style="stroke:#181818;stroke-width:0.5;" x1="79" x2="186.8677" y1="536" y2="536"/></g><!--class Version--><g id="elem_Version"><rect codeLine="15" fill="#F1F1F1" height="48" id="Version" rx="2.5" ry="2.5" style="stroke:#181818;stroke-width:0.5;" width="81.5178" x="255" y="496"/><ellipse cx="270" cy="512" fill="#ADD1B2" rx="11" ry="11" style="stroke:#181818;stroke-width:1.0;"/><path d="M272.9688,517.6406 Q272.3906,517.9375 271.75,518.0781 Q271.1094,518.2344 270.4063,518.2344 Q267.9063,518.2344 266.5781,516.5938 Q265.2656,514.9375 265.2656,511.8125 Q265.2656,508.6875 266.5781,507.0313 Q267.9063,505.375 270.4063,505.375 Q271.1094,505.375 271.75,505.5313 Q272.4063,505.6875 272.9688,505.9844 L272.9688,508.7031 Q272.3438,508.125 271.75,507.8594 Q271.1563,507.5781 270.5313,507.5781 Q269.1875,507.5781 268.5,508.6563 Q267.8125,509.7188 267.8125,511.8125 Q267.8125,513.9063 268.5,514.9844 Q269.1875,516.0469 270.5313,516.0469 Q271.1563,516.0469 271.75,515.7813 Q272.3438,515.5 272.9688,514.9219 L272.9688,517.6406 Z " fill="#000000"/><text fill="#000000" font-family="sans-serif" font-size="14" lengthAdjust="spacing" textLength="49.5178" x="284" y="517.432">Version</text><line style="stroke:#181818;stroke-width:0.5;" x1="256" x2="335.5178" y1="528" y2="528"/><line style="stroke:#181818;stroke-width:0.5;" x1="256" x2="335.5178" y1="536" y2="536"/></g><!--class Commits--><g id="elem_Commits"><rect codeLine="16" fill="#F1F1F1" height="105.2038" id="Commits" rx="2.5" ry="2.5" style="stroke:#181818;stroke-width:0.5;" width="108.5997" x="288.5" y="604"/><ellipse cx="311.4785" cy="620" fill="#ADD1B2" rx="11" ry="11" style="stroke:#181818;stroke-width:1.0;"/><path d="M314.4472,625.6406 Q313.8691,625.9375 313.2285,626.0781 Q312.5878,626.2344 311.8847,626.2344 Q309.3847,626.2344 308.0566,624.5938 Q306.7441,622.9375 306.7441,619.8125 Q306.7441,616.6875 308.0566,615.0313 Q309.3847,613.375 311.8847,613.375 Q312.5878,613.375 313.2285,613.5313 Q313.8847,613.6875 314.4472,613.9844 L314.4472,616.7031 Q313.8222,616.125 313.2285,615.8594 Q312.6347,615.5781 312.0097,615.5781 Q310.666,615.5781 309.9785,616.6563 Q309.291,617.7188 309.291,619.8125 Q309.291,621.9063 309.9785,622.9844 Q310.666,624.0469 312.0097,624.0469 Q312.6347,624.0469 313.2285,623.7813 Q313.8222,623.5 314.4472,622.9219 L314.4472,625.6406 Z " fill="#000000"/><text fill="#000000" font-family="sans-serif" font-size="14" lengthAdjust="spacing" textLength="58.8698" x="327.2515" y="625.432">Commits</text><line style="stroke:#181818;stroke-width:0.5;" x1="289.5" x2="396.0997" y1="636" y2="636"/><ellipse cx="299.5" cy="651.034" fill="none" rx="3" ry="3" style="stroke:#038048;stroke-width:1.0;"/><text fill="#000000" font-family="sans-serif" font-size="14" lengthAdjust="spacing" textLength="82.5997" x="308.5" y="654.9659">autor: String</text><ellipse cx="299.5" cy="670.1019" fill="none" rx="3" ry="3" style="stroke:#038048;stroke-width:1.0;"/><text fill="#000000" font-family="sans-serif" font-size="14" lengthAdjust="spacing" textLength="81.2417" x="308.5" y="674.0339">titulo: String</text><ellipse cx="299.5" cy="689.1698" fill="none" rx="3" ry="3" style="stroke:#038048;stroke-width:1.0;"/><text fill="#000000" font-family="sans-serif" font-size="14" lengthAdjust="spacing" textLength="74.3537" x="308.5" y="693.1018">fecha: Date</text><line style="stroke:#181818;stroke-width:0.5;" x1="289.5" x2="396.0997" y1="701.2038" y2="701.2038"/></g><!--class Archivos--><g id="elem_Archivos"><rect codeLine="21" fill="#F1F1F1" height="48" id="Archivos" rx="2.5" ry="2.5" style="stroke:#181818;stroke-width:0.5;" width="87.9998" x="299" y="769"/><ellipse cx="314" cy="785" fill="#ADD1B2" rx="11" ry="11" style="stroke:#181818;stroke-width:1.0;"/><path d="M316.9688,790.6406 Q316.3906,790.9375 315.75,791.0781 Q315.1094,791.2344 314.4063,791.2344 Q311.9063,791.2344 310.5781,789.5938 Q309.2656,787.9375 309.2656,784.8125 Q309.2656,781.6875 310.5781,780.0313 Q311.9063,778.375 314.4063,778.375 Q315.1094,778.375 315.75,778.5313 Q316.4063,778.6875 316.9688,778.9844 L316.9688,781.7031 Q316.3438,781.125 315.75,780.8594 Q315.1563,780.5781 314.5313,780.5781 Q313.1875,780.5781 312.5,781.6563 Q311.8125,782.7188 311.8125,784.8125 Q311.8125,786.9063 312.5,787.9844 Q313.1875,789.0469 314.5313,789.0469 Q315.1563,789.0469 315.75,788.7813 Q316.3438,788.5 316.9688,787.9219 L316.9688,790.6406 Z " fill="#000000"/><text fill="#000000" font-family="sans-serif" font-size="14" lengthAdjust="spacing" textLength="55.9998" x="328" y="790.432">Archivos</text><line style="stroke:#181818;stroke-width:0.5;" x1="300" x2="385.9998" y1="801" y2="801"/><line style="stroke:#181818;stroke-width:0.5;" x1="300" x2="385.9998" y1="809" y2="809"/></g><!--reverse link Usuario to Owner--><g id="link_Usuario_Owner"><path codeLine="23" d="M152.51,70.3444 C163.34,88.0044 168.82,96.94 179.7,114.68 " fill="none" id="Usuario-backto-Owner" style="stroke:#181818;stroke-width:1.0;"/><polygon fill="none" points="143.1,55,147.3952,73.4811,157.6248,67.2078,143.1,55" style="stroke:#181818;stroke-width:1.0;"/></g><!--reverse link Usuario to Colaborador--><g id="link_Usuario_Colaborador"><path codeLine="24" d="M105.49,70.3444 C94.66,88.0044 89.18,96.94 78.3,114.68 " fill="none" id="Usuario-backto-Colaborador" style="stroke:#181818;stroke-width:1.0;"/><polygon fill="none" points="114.9,55,100.3752,67.2078,110.6048,73.4811,114.9,55" style="stroke:#181818;stroke-width:1.0;"/></g><!--link Owner to Repo--><g id="link_Owner_Repo"><path codeLine="25" d="M194,163.1 C194,180.21 194,197.77 194,216.82 " fill="none" id="Owner-to-Repo" style="stroke:#181818;stroke-width:1.0;"/><polygon fill="#181818" points="194,222.82,198,213.82,194,217.82,190,213.82,194,222.82" style="stroke:#181818;stroke-width:1.0;"/></g><!--link Repo to Branch--><g id="link_Repo_Branch"><path codeLine="26" d="M234.5234,294.0808 C261.3934,318.3408 288.5464,342.8394 312.6164,364.5694 " fill="none" id="Repo-Branch" style="stroke:#181818;stroke-width:1.0;"/><polygon fill="#181818" points="230.07,290.06,234.0696,299.0602,233.7812,293.4107,239.4307,293.1223,230.07,290.06" style="stroke:#181818;stroke-width:1.0;"/><polygon fill="#181818" points="317.07,368.59,313.07,359.59,313.3587,365.2395,307.7092,365.5281,317.07,368.59" style="stroke:#181818;stroke-width:1.0;"/></g><!--link Repo to Fork--><g id="link_Repo_Fork"><path codeLine="27" d="M160.11,290.06 C134.86,314.32 105.306,342.7024 82.696,364.4324 " fill="none" id="Repo-to-Fork" style="stroke:#181818;stroke-width:1.0;"/><polygon fill="#181818" points="78.37,368.59,87.6307,365.2376,81.975,365.1253,82.0872,359.4696,78.37,368.59" style="stroke:#181818;stroke-width:1.0;"/></g><!--link Repo to Issue--><g id="link_Repo_Issue"><path codeLine="28" d="M194,290.06 C194,308.02 194,324.52 194,343.82 " fill="none" id="Repo-to-Issue" style="stroke:#181818;stroke-width:1.0;"/><polygon fill="#181818" points="194,349.82,198,340.82,194,344.82,190,340.82,194,349.82" style="stroke:#181818;stroke-width:1.0;"/></g><!--link Branch to PullRequest--><g id="link_Branch_PullRequest"><path codeLine="29" d="M312.5,417.19 C303.77,423.52 294.15,430.22 285,436 C250.3,457.91 214.716,477.297 184.086,493.187 " fill="none" id="Branch-to-PullRequest" style="stroke:#181818;stroke-width:1.0;"/><polygon fill="#181818" points="178.76,495.95,188.5909,495.3562,183.1983,493.6475,184.907,488.2549,178.76,495.95" style="stroke:#181818;stroke-width:1.0;"/></g><!--link Branch to Version--><g id="link_Branch_Version"><path codeLine="30" d="M334.27,417.22 C325.83,439.67 315.2225,467.8842 306.7925,490.2942 " fill="none" id="Branch-to-Version" style="stroke:#181818;stroke-width:1.0;"/><polygon fill="#181818" points="304.68,495.91,311.5926,488.8946,306.4404,491.2302,304.1049,486.0779,304.68,495.91" style="stroke:#181818;stroke-width:1.0;"/></g><!--link Branch to Commits--><g id="link_Branch_Commits"><path codeLine="31" d="M346.2,417.03 C348.89,437.67 352.54,468.79 354,496 C355.94,532.03 353.6992,566.6331 350.4092,597.8331 " fill="none" id="Branch-to-Commits" style="stroke:#181818;stroke-width:1.0;"/><polygon fill="#181818" points="349.78,603.8,354.7018,595.2691,350.3043,598.8276,346.7459,594.4302,349.78,603.8" style="stroke:#181818;stroke-width:1.0;"/><text fill="#000000" font-family="sans-serif" font-size="13" lengthAdjust="spacing" textLength="7.436" x="339.2093" y="438.9422">1</text><text fill="#000000" font-family="sans-serif" font-size="13" lengthAdjust="spacing" textLength="21.567" x="328.3249" y="592.1261">0..*</text></g><!--link Commits to Archivos--><g id="link_Commits_Archivos"><path codeLine="32" d="M343,709.12 C343,729.71 343,746.38 343,762.79 " fill="none" id="Commits-to-Archivos" style="stroke:#181818;stroke-width:1.0;"/><polygon fill="#181818" points="343,768.79,347,759.79,343,763.79,339,759.79,343,768.79" style="stroke:#181818;stroke-width:1.0;"/></g><!--link Fork to PullRequest--><g id="link_Fork_PullRequest"><path codeLine="33" d="M68.67,417.22 C82.86,439.67 104.24,473.5 118.4,495.91 " fill="none" id="Fork-PullRequest" style="stroke:#181818;stroke-width:1.0;stroke-dasharray:7.0,7.0;"/></g><!--link Version to Commits--><g id="link_Version_Commits"><path codeLine="34" d="M304.08,544.12 C309.83,560.57 317.78,583.32 325,603.98 " fill="none" id="Version-Commits" style="stroke:#181818;stroke-width:1.0;stroke-dasharray:7.0,7.0;"/></g><!--SRC=[PP0nJmCn38Nt_8heHj2TOAqg9A12OW8LmHvImqNauc8dC03_dIRdH5TrYpyxVdxFUiEidpaPSgXigMxHcrSaiqCIyl0TeBwti4VzexG-3sQ2bNwAvCAx-fFs7TA7FE-P4yoZqSNaiGqVo0xOajjRX-5anmsPO4Sf7fFtM_XCm5782n0VlhLhfyb5ddLCYaXBcLFXDx2ZMUcDYT04hycExWjPAKb2ht_xNcmVeMKsfQtx_gfaeaemwrpA_GNakcJIgXABccSAM3fSu6fJK7VP5TnT3CDPLsshQZ-tceqig8VXQBEioxZ-_GS0]--></g></svg>