<svg xmlns="http://www.w3.org/2000/svg" xmlns:xlink="http://www.w3.org/1999/xlink" contentStyleType="text/css" height="671px" preserveAspectRatio="none" style="width:445px;height:671px;background:#FFFFFF;" version="1.1" viewBox="0 0 445 671" width="445px" zoomAndPan="magnify"><defs/><g><g id="elem_owner"><rect fill="#F1F1F1" height="50.1358" style="stroke:#181818;stroke-width:0.5;" width="135.1155" x="98.5" y="7"/><text fill="#000000" font-family="sans-serif" font-size="14" lengthAdjust="spacing" textLength="41.8038" x="145.1558" y="23.9659">owner</text><line style="stroke:#181818;stroke-width:0.5;" x1="99.5" x2="232.6155" y1="30.0679" y2="30.0679"/><text fill="#000000" font-family="sans-serif" font-size="14" lengthAdjust="spacing" textLength="123.1155" x="104.5" y="49.0339">name = "mmasias"</text></g><g id="elem_colaborador"><rect fill="#F1F1F1" height="50.1358" style="stroke:#181818;stroke-width:0.5;" width="94.2337" x="269" y="7"/><text fill="#000000" font-family="sans-serif" font-size="14" lengthAdjust="spacing" textLength="80.2337" x="276" y="23.9659">colaborador</text><line style="stroke:#181818;stroke-width:0.5;" x1="270" x2="362.2337" y1="30.0679" y2="30.0679"/><text fill="#000000" font-family="sans-serif" font-size="14" lengthAdjust="spacing" textLength="64.2037" x="275" y="49.0339">name = ""</text></g><g id="elem_repo"><rect fill="#F1F1F1" height="50.1358" style="stroke:#181818;stroke-width:0.5;" width="138.2935" x="172" y="117"/><text fill="#000000" font-family="sans-serif" font-size="14" lengthAdjust="spacing" textLength="30.7579" x="225.7678" y="133.9659">repo</text><line style="stroke:#181818;stroke-width:0.5;" x1="173" x2="309.2935" y1="140.0679" y2="140.0679"/><text fill="#000000" font-family="sans-serif" font-size="14" lengthAdjust="spacing" textLength="126.2935" x="178" y="159.0339">name = "24-25-IdS"</text></g><g id="elem_issue"><rect fill="#F1F1F1" height="69.2038" style="stroke:#181818;stroke-width:0.5;" width="252.1411" x="7" y="227"/><text fill="#000000" font-family="sans-serif" font-size="14" lengthAdjust="spacing" textLength="33.5719" x="116.2846" y="243.9659">issue</text><line style="stroke:#181818;stroke-width:0.5;" x1="8" x2="258.1411" y1="250.0679" y2="250.0679"/><text fill="#000000" font-family="sans-serif" font-size="14" lengthAdjust="spacing" textLength="93.9536" x="13" y="269.0339">titulo = "clase"</text><text fill="#000000" font-family="sans-serif" font-size="14" lengthAdjust="spacing" textLength="240.1411" x="13" y="288.1018">descripcion = "Ma&#241;ana no hay clase"</text></g><g id="elem_branch"><rect fill="#F1F1F1" height="50.1358" style="stroke:#181818;stroke-width:0.5;" width="109.4116" x="294.5" y="236.5"/><text fill="#000000" font-family="sans-serif" font-size="14" lengthAdjust="spacing" textLength="46.2698" x="326.0709" y="253.4659">branch</text><line style="stroke:#181818;stroke-width:0.5;" x1="295.5" x2="402.9116" y1="259.5679" y2="259.5679"/><text fill="#000000" font-family="sans-serif" font-size="14" lengthAdjust="spacing" textLength="97.4116" x="300.5" y="278.5339">name = "main"</text></g><g id="elem_version"><rect fill="#F1F1F1" height="50.1358" style="stroke:#181818;stroke-width:0.5;" width="141.4295" x="216.5" y="356"/><text fill="#000000" font-family="sans-serif" font-size="14" lengthAdjust="spacing" textLength="48.2298" x="263.0998" y="372.9659">version</text><line style="stroke:#181818;stroke-width:0.5;" x1="217.5" x2="356.9295" y1="379.0679" y2="379.0679"/><text fill="#000000" font-family="sans-serif" font-size="14" lengthAdjust="spacing" textLength="129.4295" x="222.5" y="398.0339">name = "Upstream"</text></g><g id="elem_commit"><rect fill="#F1F1F1" height="88.2717" style="stroke:#181818;stroke-width:0.5;" width="179.1174" x="259.5" y="466"/><text fill="#000000" font-family="sans-serif" font-size="14" lengthAdjust="spacing" textLength="50.0358" x="324.0408" y="482.9659">commit</text><line style="stroke:#181818;stroke-width:0.5;" x1="260.5" x2="437.6174" y1="489.0679" y2="489.0679"/><text fill="#000000" font-family="sans-serif" font-size="14" lengthAdjust="spacing" textLength="121.4355" x="265.5" y="508.0339">autor = "mmasias"</text><text fill="#000000" font-family="sans-serif" font-size="14" lengthAdjust="spacing" textLength="167.1174" x="265.5" y="527.1018">titulo = "Update Readme"</text><text fill="#000000" font-family="sans-serif" font-size="14" lengthAdjust="spacing" textLength="135.7294" x="265.5" y="546.1697">fecha = "2024-09-09"</text></g><g id="elem_archivo"><rect fill="#F1F1F1" height="50.1358" style="stroke:#181818;stroke-width:0.5;" width="155.7094" x="271" y="614"/><text fill="#000000" font-family="sans-serif" font-size="14" lengthAdjust="spacing" textLength="48.2018" x="324.7538" y="630.9659">archivo</text><line style="stroke:#181818;stroke-width:0.5;" x1="272" x2="425.7094" y1="637.0679" y2="637.0679"/><text fill="#000000" font-family="sans-serif" font-size="14" lengthAdjust="spacing" textLength="143.7094" x="277" y="656.0339">name = "Readme.md"</text></g><!--link owner to repo--><g id="link_owner_repo"><path codeLine="23" d="M182.83,57.24 C195.18,75.02 208.4682,94.1513 220.7982,111.9113 " fill="none" id="owner-to-repo" style="stroke:#181818;stroke-width:1.0;"/><polygon fill="#181818" points="224.22,116.84,222.3731,107.1659,221.3685,112.7328,215.8016,111.7282,224.22,116.84" style="stroke:#181818;stroke-width:1.0;"/></g><!--link colaborador to repo--><g id="link_colaborador_repo"><path codeLine="24" d="M299.17,57.24 C286.82,75.02 273.5318,94.1513 261.2018,111.9113 " fill="none" id="colaborador-to-repo" style="stroke:#181818;stroke-width:1.0;"/><polygon fill="#181818" points="257.78,116.84,266.1984,111.7282,260.6315,112.7328,259.6269,107.1659,257.78,116.84" style="stroke:#181818;stroke-width:1.0;"/></g><!--link repo to branch--><g id="link_repo_branch"><path codeLine="25" d="M267.1791,171.4786 C285.8091,191.7586 304.2198,211.7824 322.8498,232.0524 " fill="none" id="repo-branch" style="stroke:#181818;stroke-width:1.0;"/><polygon fill="#181818" points="263.12,167.06,266.2629,176.3939,266.5026,170.7422,272.1543,170.9818,263.12,167.06" style="stroke:#181818;stroke-width:1.0;"/><polygon fill="#181818" points="326.91,236.47,323.7648,227.1368,323.5265,232.7887,317.8747,232.5504,326.91,236.47" style="stroke:#181818;stroke-width:1.0;"/></g><!--link repo to issue--><g id="link_repo_issue"><path codeLine="26" d="M218.88,167.06 C203.09,184.25 185.6704,203.1927 168.1504,222.2527 " fill="none" id="repo-to-issue" style="stroke:#181818;stroke-width:1.0;"/><polygon fill="#181818" points="164.09,226.67,173.1255,222.7509,167.4737,222.9889,167.2358,217.337,164.09,226.67" style="stroke:#181818;stroke-width:1.0;"/></g><!--link branch to version--><g id="link_branch_version"><path codeLine="27" d="M336.3,286.56 C325.6,306.84 313.1689,330.3928 302.4789,350.6628 " fill="none" id="branch-to-version" style="stroke:#181818;stroke-width:1.0;"/><polygon fill="#181818" points="299.68,355.97,307.4165,349.8752,302.0124,351.5474,300.3402,346.1433,299.68,355.97" style="stroke:#181818;stroke-width:1.0;"/></g><!--link branch to commit--><g id="link_branch_commit"><path codeLine="28" d="M357.69,286.73 C363.9,305.38 371.72,331.96 375,356 C380.08,393.24 373.5046,429.5485 365.0146,460.1385 " fill="none" id="branch-to-commit" style="stroke:#181818;stroke-width:1.0;"/><polygon fill="#181818" points="363.41,465.92,369.6712,458.3175,364.7472,461.1021,361.9626,456.1781,363.41,465.92" style="stroke:#181818;stroke-width:1.0;"/></g><!--link commit to archivo--><g id="link_commit_archivo"><path codeLine="29" d="M349,554.35 C349,574.18 349,590.94 349,607.71 " fill="none" id="commit-to-archivo" style="stroke:#181818;stroke-width:1.0;"/><polygon fill="#181818" points="349,613.71,353,604.71,349,608.71,345,604.71,349,613.71" style="stroke:#181818;stroke-width:1.0;"/></g><!--link version to commit--><g id="link_version_commit"><path codeLine="31" d="M298.81,406.19 C307.03,423.03 315.5877,440.5582 325.3177,460.4882 " fill="none" id="version-to-commit" style="stroke:#181818;stroke-width:1.0;stroke-dasharray:7.0,7.0;"/><polygon fill="#181818" points="327.95,465.88,327.5961,456.0375,325.7564,461.3869,320.407,459.5472,327.95,465.88" style="stroke:#181818;stroke-width:1.0;"/></g><!--SRC=[LL4xJiKm4Enz2ijzegSdA410J_4Qq3l0nbuKezWRsSv378ipS37yJOoK8ZEpoSxiqFI9Cd3wikWO5I1fWOaSADefXokrT-tzXWrC3goS6xgXyvhiyIDZT6W8d9prZHZBo_WZjs2GFtDX37WDNh1kSISBbhPtnFbkEDyFh-fTiEmbIa67RQ4aoWKy7e92BvrUPNILr0ly_e05RedFyCthS0dHEm9j1QjfElww-k0GJBAQeaK9jX3T_azHfSFKTLKGaByXA8FTn0VA6NAaKmnrUeYFOFLEtThotMYKQCSRXfVIIN-odSptUagmrfE9X4jtDMyYMcCTLLkh9XEpDzSkCexxs1y0]--></g></svg>