<svg xmlns="http://www.w3.org/2000/svg" xmlns:xlink="http://www.w3.org/1999/xlink" contentStyleType="text/css" height="667px" preserveAspectRatio="none" style="width:979px;height:667px;background:#FFFFFF;" version="1.1" viewBox="0 0 979 667" width="979px" zoomAndPan="magnify"><defs/><g><path d="M19.5,59.5 L225.8391,59.5 A12.5,12.5 0 0 1 238.3391,72 L238.3391,88.5679 L7,88.5679 L7,72 A12.5,12.5 0 0 1 19.5,59.5 " fill="#F1F1F1" style="stroke:#F1F1F1;stroke-width:1.0;"/><rect fill="none" height="549.0679" rx="12.5" ry="12.5" style="stroke:#181818;stroke-width:0.5;" width="231.3391" x="7" y="59.5"/><line style="stroke:#181818;stroke-width:0.5;" x1="7" x2="238.3391" y1="88.5679" y2="88.5679"/><text fill="#000000" font-family="sans-serif" font-size="14" lengthAdjust="spacing" textLength="87.3597" x="78.9897" y="79.4659">Repo_Creado</text><ellipse cx="76.5" cy="109.5679" fill="#222222" rx="10" ry="10" style="stroke:#222222;stroke-width:1.0;"/><g id="Repo_Creado.RepoNuevo"><rect fill="#F1F1F1" height="50" rx="12.5" ry="12.5" style="stroke:#181818;stroke-width:0.5;" width="96.4537" x="28.5" y="174.5679"/><line style="stroke:#181818;stroke-width:0.5;" x1="28.5" x2="124.9537" y1="203.6358" y2="203.6358"/><text fill="#000000" font-family="sans-serif" font-size="14" lengthAdjust="spacing" textLength="76.4537" x="38.5" y="194.5339">RepoNuevo</text></g><g id="Repo_Creado.BranchNueva"><rect fill="#F1F1F1" height="50" rx="12.5" ry="12.5" style="stroke:#181818;stroke-width:0.5;" width="108.9136" x="22" y="279.5679"/><line style="stroke:#181818;stroke-width:0.5;" x1="22" x2="130.9136" y1="308.6358" y2="308.6358"/><text fill="#000000" font-family="sans-serif" font-size="14" lengthAdjust="spacing" textLength="88.9136" x="32" y="299.5339">BranchNueva</text></g><g id="Repo_Creado.CommitNuevo"><rect fill="#F1F1F1" height="50" rx="12.5" ry="12.5" style="stroke:#181818;stroke-width:0.5;" width="114.9336" x="19" y="384.5679"/><line style="stroke:#181818;stroke-width:0.5;" x1="19" x2="133.9336" y1="413.6358" y2="413.6358"/><text fill="#000000" font-family="sans-serif" font-size="14" lengthAdjust="spacing" textLength="94.9336" x="29" y="404.5339">CommitNuevo</text></g><g id="Repo_Creado.ArchivoNuevo"><rect fill="#F1F1F1" height="50" rx="12.5" ry="12.5" style="stroke:#181818;stroke-width:0.5;" width="112.0636" x="20.5" y="489.5679"/><line style="stroke:#181818;stroke-width:0.5;" x1="20.5" x2="132.5636" y1="518.6358" y2="518.6358"/><text fill="#000000" font-family="sans-serif" font-size="14" lengthAdjust="spacing" textLength="92.0636" x="30.5" y="509.5339">ArchivoNuevo</text></g><ellipse cx="76.5" cy="587.5679" fill="none" rx="11" ry="11" style="stroke:#222222;stroke-width:1.0;"/><ellipse cx="76.5" cy="587.5679" fill="#222222" rx="6" ry="6" style="stroke:#222222;stroke-width:1.0;"/><!--link *start*Repo_Creado to RepoNuevo--><g id="link_*start*Repo_Creado_RepoNuevo"><path d="M76.5,119.6579 C76.5,132.4779 76.5,150.3379 76.5,168.4779 " fill="none" id="*start*Repo_Creado-to-RepoNuevo" style="stroke:#181818;stroke-width:1.0;"/><polygon fill="#181818" points="76.5,174.4779,80.5,165.4779,76.5,169.4779,72.5,165.4779,76.5,174.4779" style="stroke:#181818;stroke-width:1.0;"/><text fill="#000000" font-family="sans-serif" font-size="13" lengthAdjust="spacing" textLength="102.6611" x="77.5" y="152.4649">Owner crea repo</text></g><!--link RepoNuevo to BranchNueva--><g id="link_RepoNuevo_BranchNueva"><path d="M76.5,224.7179 C76.5,241.1279 76.5,256.7579 76.5,273.2179 " fill="none" id="RepoNuevo-to-BranchNueva" style="stroke:#181818;stroke-width:1.0;"/><polygon fill="#181818" points="76.5,279.2179,80.5,270.2179,76.5,274.2179,72.5,270.2179,76.5,279.2179" style="stroke:#181818;stroke-width:1.0;"/><text fill="#000000" font-family="sans-serif" font-size="13" lengthAdjust="spacing" textLength="97.9161" x="77.5" y="257.4649">Crea rama main</text></g><!--link BranchNueva to CommitNuevo--><g id="link_BranchNueva_CommitNuevo"><path d="M76.5,329.7179 C76.5,346.1279 76.5,361.7579 76.5,378.2179 " fill="none" id="BranchNueva-to-CommitNuevo" style="stroke:#181818;stroke-width:1.0;"/><polygon fill="#181818" points="76.5,384.2179,80.5,375.2179,76.5,379.2179,72.5,375.2179,76.5,384.2179" style="stroke:#181818;stroke-width:1.0;"/><text fill="#000000" font-family="sans-serif" font-size="13" lengthAdjust="spacing" textLength="116.4151" x="77.5" y="362.4649">Crea commit inicial</text></g><!--link CommitNuevo to ArchivoNuevo--><g id="link_CommitNuevo_ArchivoNuevo"><path d="M76.5,434.7179 C76.5,451.1279 76.5,466.7579 76.5,483.2179 " fill="none" id="CommitNuevo-to-ArchivoNuevo" style="stroke:#181818;stroke-width:1.0;"/><polygon fill="#181818" points="76.5,489.2179,80.5,480.2179,76.5,484.2179,72.5,480.2179,76.5,489.2179" style="stroke:#181818;stroke-width:1.0;"/><text fill="#000000" font-family="sans-serif" font-size="13" lengthAdjust="spacing" textLength="150.8391" x="77.5" y="467.4649">Crea archivo readme.md</text></g><!--link ArchivoNuevo to *end*Repo_Creado--><g id="link_ArchivoNuevo_*end*Repo_Creado"><path d="M76.5,539.6079 C76.5,552.1579 76.5,560.8479 76.5,570.4179 " fill="none" id="ArchivoNuevo-to-*end*Repo_Creado" style="stroke:#181818;stroke-width:1.0;"/><polygon fill="#181818" points="76.5,576.4179,80.5,567.4179,76.5,571.4179,72.5,567.4179,76.5,576.4179" style="stroke:#181818;stroke-width:1.0;"/></g><path d="M286,59.5 L581.2312,59.5 A12.5,12.5 0 0 1 593.7312,72 L593.7312,88.5679 L273.5,88.5679 L273.5,72 A12.5,12.5 0 0 1 286,59.5 " fill="#F1F1F1" style="stroke:#F1F1F1;stroke-width:1.0;"/><rect fill="none" height="549.0679" rx="12.5" ry="12.5" style="stroke:#181818;stroke-width:0.5;" width="320.2312" x="273.5" y="59.5"/><line style="stroke:#181818;stroke-width:0.5;" x1="273.5" x2="593.7312" y1="88.5679" y2="88.5679"/><text fill="#000000" font-family="sans-serif" font-size="14" lengthAdjust="spacing" textLength="136.8075" x="365.2118" y="79.4659">Colaborador_Pushea</text><ellipse cx="384" cy="109.5679" fill="#222222" rx="10" ry="10" style="stroke:#222222;stroke-width:1.0;"/><g id="Colaborador_Pushea.ArchivoModificado"><rect fill="#F1F1F1" height="50" rx="12.5" ry="12.5" style="stroke:#181818;stroke-width:0.5;" width="142.7655" x="312.5" y="174.5679"/><line style="stroke:#181818;stroke-width:0.5;" x1="312.5" x2="455.2655" y1="203.6358" y2="203.6358"/><text fill="#000000" font-family="sans-serif" font-size="14" lengthAdjust="spacing" textLength="122.7655" x="322.5" y="194.5339">ArchivoModificado</text></g><g id="Colaborador_Pushea.CommitConModificaciones"><rect fill="#F1F1F1" height="50" rx="12.5" ry="12.5" style="stroke:#181818;stroke-width:0.5;" width="196.5813" x="285.5" y="279.5679"/><line style="stroke:#181818;stroke-width:0.5;" x1="285.5" x2="482.0813" y1="308.6358" y2="308.6358"/><text fill="#000000" font-family="sans-serif" font-size="14" lengthAdjust="spacing" textLength="176.5813" x="295.5" y="299.5339">CommitConModificaciones</text></g><g id="Colaborador_Pushea.BranchUp"><rect fill="#F1F1F1" height="50" rx="12.5" ry="12.5" style="stroke:#181818;stroke-width:0.5;" width="85.6037" x="341" y="384.5679"/><line style="stroke:#181818;stroke-width:0.5;" x1="341" x2="426.6037" y1="413.6358" y2="413.6358"/><text fill="#000000" font-family="sans-serif" font-size="14" lengthAdjust="spacing" textLength="65.6037" x="351" y="404.5339">BranchUp</text></g><g id="Colaborador_Pushea.RepoUp"><rect fill="#F1F1F1" height="50" rx="12.5" ry="12.5" style="stroke:#181818;stroke-width:0.5;" width="72.5278" x="347.5" y="489.5679"/><line style="stroke:#181818;stroke-width:0.5;" x1="347.5" x2="420.0278" y1="518.6358" y2="518.6358"/><text fill="#000000" font-family="sans-serif" font-size="14" lengthAdjust="spacing" textLength="52.5278" x="357.5" y="509.5339">RepoUp</text></g><ellipse cx="384" cy="587.5679" fill="none" rx="11" ry="11" style="stroke:#222222;stroke-width:1.0;"/><ellipse cx="384" cy="587.5679" fill="#222222" rx="6" ry="6" style="stroke:#222222;stroke-width:1.0;"/><!--link *start*Colaborador_Pushea to ArchivoModificado--><g id="link_*start*Colaborador_Pushea_ArchivoModificado"><path d="M384,119.6579 C384,132.4779 384,150.3379 384,168.4779 " fill="none" id="*start*Colaborador_Pushea-to-ArchivoModificado" style="stroke:#181818;stroke-width:1.0;"/><polygon fill="#181818" points="384,174.4779,388,165.4779,384,169.4779,380,165.4779,384,174.4779" style="stroke:#181818;stroke-width:1.0;"/><text fill="#000000" font-family="sans-serif" font-size="13" lengthAdjust="spacing" textLength="180.7261" x="385" y="152.4649">Colaborador modifica archivo</text></g><!--link ArchivoModificado to CommitConModificaciones--><g id="link_ArchivoModificado_CommitConModificaciones"><path d="M384,224.7179 C384,241.1279 384,256.7579 384,273.2179 " fill="none" id="ArchivoModificado-to-CommitConModificaciones" style="stroke:#181818;stroke-width:1.0;"/><polygon fill="#181818" points="384,279.2179,388,270.2179,384,274.2179,380,270.2179,384,279.2179" style="stroke:#181818;stroke-width:1.0;"/><text fill="#000000" font-family="sans-serif" font-size="13" lengthAdjust="spacing" textLength="198.7312" x="385" y="257.4649">Crea commit con modificaciones</text></g><!--link CommitConModificaciones to BranchUp--><g id="link_CommitConModificaciones_BranchUp"><path d="M384,329.7179 C384,346.1279 384,361.7579 384,378.2179 " fill="none" id="CommitConModificaciones-to-BranchUp" style="stroke:#181818;stroke-width:1.0;"/><polygon fill="#181818" points="384,384.2179,388,375.2179,384,379.2179,380,375.2179,384,384.2179" style="stroke:#181818;stroke-width:1.0;"/><text fill="#000000" font-family="sans-serif" font-size="13" lengthAdjust="spacing" textLength="151.0081" x="385" y="362.4649">Branch en nueva version</text></g><!--link BranchUp to RepoUp--><g id="link_BranchUp_RepoUp"><path d="M384,434.7179 C384,451.1279 384,466.7579 384,483.2179 " fill="none" id="BranchUp-to-RepoUp" style="stroke:#181818;stroke-width:1.0;"/><polygon fill="#181818" points="384,489.2179,388,480.2179,384,484.2179,380,480.2179,384,489.2179" style="stroke:#181818;stroke-width:1.0;"/><text fill="#000000" font-family="sans-serif" font-size="13" lengthAdjust="spacing" textLength="169.1302" x="385" y="467.4649">Repo tiene nuevo upstream</text></g><!--link RepoUp to *end*Colaborador_Pushea--><g id="link_RepoUp_*end*Colaborador_Pushea"><path d="M384,539.6079 C384,552.1579 384,560.8479 384,570.4179 " fill="none" id="RepoUp-to-*end*Colaborador_Pushea" style="stroke:#181818;stroke-width:1.0;"/><polygon fill="#181818" points="384,576.4179,388,567.4179,384,571.4179,380,567.4179,384,576.4179" style="stroke:#181818;stroke-width:1.0;"/></g><path d="M641,7 L953.9992,7 A12.5,12.5 0 0 1 966.4992,19.5 L966.4992,36.0679 L628.5,36.0679 L628.5,19.5 A12.5,12.5 0 0 1 641,7 " fill="#F1F1F1" style="stroke:#F1F1F1;stroke-width:1.0;"/><rect fill="none" height="654.0679" rx="12.5" ry="12.5" style="stroke:#181818;stroke-width:0.5;" width="337.9992" x="628.5" y="7"/><line style="stroke:#181818;stroke-width:0.5;" x1="628.5" x2="966.4992" y1="36.0679" y2="36.0679"/><text fill="#000000" font-family="sans-serif" font-size="14" lengthAdjust="spacing" textLength="123.1155" x="735.9418" y="26.9659">Usuario_Crea_Fork</text><ellipse cx="690" cy="57.0679" fill="#222222" rx="10" ry="10" style="stroke:#222222;stroke-width:1.0;"/><g id="Usuario_Crea_Fork.RepoOrigen"><rect fill="#F1F1F1" height="50" rx="12.5" ry="12.5" style="stroke:#181818;stroke-width:0.5;" width="99.1697" x="640.5" y="122.0679"/><line style="stroke:#181818;stroke-width:0.5;" x1="640.5" x2="739.6697" y1="151.1358" y2="151.1358"/><text fill="#000000" font-family="sans-serif" font-size="14" lengthAdjust="spacing" textLength="79.1697" x="650.5" y="142.0339">RepoOrigen</text></g><g id="Usuario_Crea_Fork.Fork"><rect fill="#F1F1F1" height="50" rx="12.5" ry="12.5" style="stroke:#181818;stroke-width:0.5;" width="50" x="665" y="227.0679"/><line style="stroke:#181818;stroke-width:0.5;" x1="665" x2="715" y1="256.1358" y2="256.1358"/><text fill="#000000" font-family="sans-serif" font-size="14" lengthAdjust="spacing" textLength="28.9939" x="675.5031" y="247.0339">Fork</text></g><g id="Usuario_Crea_Fork.RepoFork"><rect fill="#F1F1F1" height="50" rx="12.5" ry="12.5" style="stroke:#181818;stroke-width:0.5;" width="82.6778" x="648.5" y="332.0679"/><line style="stroke:#181818;stroke-width:0.5;" x1="648.5" x2="731.1778" y1="361.1358" y2="361.1358"/><text fill="#000000" font-family="sans-serif" font-size="14" lengthAdjust="spacing" textLength="62.6778" x="658.5" y="352.0339">RepoFork</text></g><g id="Usuario_Crea_Fork.PullRequest"><rect fill="#F1F1F1" height="50" rx="12.5" ry="12.5" style="stroke:#181818;stroke-width:0.5;" width="97.8677" x="641" y="437.0679"/><line style="stroke:#181818;stroke-width:0.5;" x1="641" x2="738.8677" y1="466.1358" y2="466.1358"/><text fill="#000000" font-family="sans-serif" font-size="14" lengthAdjust="spacing" textLength="77.8677" x="651" y="457.0339">PullRequest</text></g><g id="Usuario_Crea_Fork.Repo"><rect fill="#F1F1F1" height="50" rx="12.5" ry="12.5" style="stroke:#181818;stroke-width:0.5;" width="53.6839" x="663" y="542.0679"/><line style="stroke:#181818;stroke-width:0.5;" x1="663" x2="716.6839" y1="571.1358" y2="571.1358"/><text fill="#000000" font-family="sans-serif" font-size="14" lengthAdjust="spacing" textLength="33.6839" x="673" y="562.0339">Repo</text></g><ellipse cx="690" cy="640.0679" fill="none" rx="11" ry="11" style="stroke:#222222;stroke-width:1.0;"/><ellipse cx="690" cy="640.0679" fill="#222222" rx="6" ry="6" style="stroke:#222222;stroke-width:1.0;"/><!--link *start*Usuario_Crea_Fork to RepoOrigen--><g id="link_*start*Usuario_Crea_Fork_RepoOrigen"><path d="M690,67.1579 C690,79.9779 690,97.8379 690,115.9779 " fill="none" id="*start*Usuario_Crea_Fork-to-RepoOrigen" style="stroke:#181818;stroke-width:1.0;"/><polygon fill="#181818" points="690,121.9779,694,112.9779,690,116.9779,686,112.9779,690,121.9779" style="stroke:#181818;stroke-width:1.0;"/><text fill="#000000" font-family="sans-serif" font-size="13" lengthAdjust="spacing" textLength="126.1131" x="691" y="99.9649">Se crea fork del repo</text></g><!--link RepoOrigen to Fork--><g id="link_RepoOrigen_Fork"><path d="M690,172.2179 C690,188.6279 690,204.2579 690,220.7179 " fill="none" id="RepoOrigen-to-Fork" style="stroke:#181818;stroke-width:1.0;"/><polygon fill="#181818" points="690,226.7179,694,217.7179,690,221.7179,686,217.7179,690,226.7179" style="stroke:#181818;stroke-width:1.0;"/><text fill="#000000" font-family="sans-serif" font-size="13" lengthAdjust="spacing" textLength="265.4992" x="691" y="204.9649">El repo forkeado tiene los datos del original</text></g><!--link Fork to RepoFork--><g id="link_Fork_RepoFork"><path d="M690,277.2179 C690,293.6279 690,309.2579 690,325.7179 " fill="none" id="Fork-to-RepoFork" style="stroke:#181818;stroke-width:1.0;"/><polygon fill="#181818" points="690,331.7179,694,322.7179,690,326.7179,686,322.7179,690,331.7179" style="stroke:#181818;stroke-width:1.0;"/><text fill="#000000" font-family="sans-serif" font-size="13" lengthAdjust="spacing" textLength="170.1311" x="691" y="309.9649">Se hacen cambios en el fork</text></g><!--link RepoFork to PullRequest--><g id="link_RepoFork_PullRequest"><path d="M690,382.2179 C690,398.6279 690,414.2579 690,430.7179 " fill="none" id="RepoFork-to-PullRequest" style="stroke:#181818;stroke-width:1.0;"/><polygon fill="#181818" points="690,436.7179,694,427.7179,690,431.7179,686,427.7179,690,436.7179" style="stroke:#181818;stroke-width:1.0;"/><text fill="#000000" font-family="sans-serif" font-size="13" lengthAdjust="spacing" textLength="216.5282" x="691" y="414.9649">Se crea pull request al repo original</text></g><!--link PullRequest to Repo--><g id="link_PullRequest_Repo"><path d="M690,487.2179 C690,503.6279 690,519.2579 690,535.7179 " fill="none" id="PullRequest-to-Repo" style="stroke:#181818;stroke-width:1.0;"/><polygon fill="#181818" points="690,541.7179,694,532.7179,690,536.7179,686,532.7179,690,541.7179" style="stroke:#181818;stroke-width:1.0;"/><text fill="#000000" font-family="sans-serif" font-size="13" lengthAdjust="spacing" textLength="162.1621" x="691" y="519.9649">Repo original es Upstream</text></g><!--link Repo to *end*Usuario_Crea_Fork--><g id="link_Repo_*end*Usuario_Crea_Fork"><path d="M690,592.1079 C690,604.6579 690,613.3479 690,622.9179 " fill="none" id="Repo-to-*end*Usuario_Crea_Fork" style="stroke:#181818;stroke-width:1.0;"/><polygon fill="#181818" points="690,628.9179,694,619.9179,690,623.9179,686,619.9179,690,628.9179" style="stroke:#181818;stroke-width:1.0;"/></g><!--SRC=[RPBFJiCm3CRlUmgVaSO3z8045To0QMWdX2OlpMX44vUa7GV4k-CuJPSETfXIv_lvpnU70GSDMztJllOQ6uBl5V3lzUeDrkiRkNaQzOcWWkSlfpqebe7diEZEzr5zvz6fDduZwsjHeaMmQ9p8Iq44QhBM3Bc004f2O9nH1ZkXIbMaRhrgpOaM6AOOn26ilhQDa0jbH7ckrSzg5MJicZeyaEUf_NupXfRJBAUVy4TgpD6ew4vLGc2dYrozh5b0vqbhSZck33aTBgPMvEQaIL0Oy1S-UxxhELCwWdRWnE6Jze65XVCiowygH3p0OBJJWX2CVHYu7pi_xaGiVDk54Rr96xD_8F_npz8yU_FEZLJmejFA7AEkqTroToPPf2HH1VT98NfPoDHUHm4Q7E8_vo36Z9lMGy1STyh2LLjKd5cXFHYc-CXSJ3hNdhdDs7LR_JdgC1GDznpbLb8OfwuMXKikry-cPY7mC-qkJIqi_GK0]--></g></svg>