<svg xmlns="http://www.w3.org/2000/svg" xmlns:xlink="http://www.w3.org/1999/xlink" contentStyleType="text/css" height="805px" preserveAspectRatio="none" style="width:371px;height:805px;background:#FFFFFF;" version="1.1" viewBox="0 0 371 805" width="371px" zoomAndPan="magnify"><defs/><g><!--class Usuario--><g id="elem_Usuario"><rect codeLine="2" fill="#F1F1F1" height="48" id="Usuario" rx="2.5" ry="2.5" style="stroke:#181818;stroke-width:0.5;" width="83.3098" x="87.5" y="7"/><ellipse cx="102.5" cy="23" fill="#ADD1B2" rx="11" ry="11" style="stroke:#181818;stroke-width:1.0;"/><path d="M105.4688,28.6406 Q104.8906,28.9375 104.25,29.0781 Q103.6094,29.2344 102.9063,29.2344 Q100.4063,29.2344 99.0781,27.5938 Q97.7656,25.9375 97.7656,22.8125 Q97.7656,19.6875 99.0781,18.0313 Q100.4063,16.375 102.9063,16.375 Q103.6094,16.375 104.25,16.5313 Q104.9063,16.6875 105.4688,16.9844 L105.4688,19.7031 Q104.8438,19.125 104.25,18.8594 Q103.6563,18.5781 103.0313,18.5781 Q101.6875,18.5781 101,19.6563 Q100.3125,20.7188 100.3125,22.8125 Q100.3125,24.9063 101,25.9844 Q101.6875,27.0469 103.0313,27.0469 Q103.6563,27.0469 104.25,26.7813 Q104.8438,26.5 105.4688,25.9219 L105.4688,28.6406 Z " fill="#000000"/><text fill="#000000" font-family="sans-serif" font-size="14" lengthAdjust="spacing" textLength="51.3098" x="116.5" y="28.432">Usuario</text><line style="stroke:#181818;stroke-width:0.5;" x1="88.5" x2="169.8098" y1="39" y2="39"/><line style="stroke:#181818;stroke-width:0.5;" x1="88.5" x2="169.8098" y1="47" y2="47"/></g><!--class Colaborador--><g id="elem_Colaborador"><rect codeLine="3" fill="#F1F1F1" height="48" id="Colaborador" rx="2.5" ry="2.5" style="stroke:#181818;stroke-width:0.5;" width="114.3617" x="7" y="115"/><ellipse cx="22" cy="131" fill="#ADD1B2" rx="11" ry="11" style="stroke:#181818;stroke-width:1.0;"/><path d="M24.9688,136.6406 Q24.3906,136.9375 23.75,137.0781 Q23.1094,137.2344 22.4063,137.2344 Q19.9063,137.2344 18.5781,135.5938 Q17.2656,133.9375 17.2656,130.8125 Q17.2656,127.6875 18.5781,126.0313 Q19.9063,124.375 22.4063,124.375 Q23.1094,124.375 23.75,124.5313 Q24.4063,124.6875 24.9688,124.9844 L24.9688,127.7031 Q24.3438,127.125 23.75,126.8594 Q23.1563,126.5781 22.5313,126.5781 Q21.1875,126.5781 20.5,127.6563 Q19.8125,128.7188 19.8125,130.8125 Q19.8125,132.9063 20.5,133.9844 Q21.1875,135.0469 22.5313,135.0469 Q23.1563,135.0469 23.75,134.7813 Q24.3438,134.5 24.9688,133.9219 L24.9688,136.6406 Z " fill="#000000"/><text fill="#000000" font-family="sans-serif" font-size="14" lengthAdjust="spacing" textLength="82.3617" x="36" y="136.432">Colaborador</text><line style="stroke:#181818;stroke-width:0.5;" x1="8" x2="120.3617" y1="147" y2="147"/><line style="stroke:#181818;stroke-width:0.5;" x1="8" x2="120.3617" y1="155" y2="155"/></g><!--class Owner--><g id="elem_Owner"><rect codeLine="4" fill="#F1F1F1" height="48" id="Owner" rx="2.5" ry="2.5" style="stroke:#181818;stroke-width:0.5;" width="76.2678" x="156" y="115"/><ellipse cx="171" cy="131" fill="#ADD1B2" rx="11" ry="11" style="stroke:#181818;stroke-width:1.0;"/><path d="M173.9688,136.6406 Q173.3906,136.9375 172.75,137.0781 Q172.1094,137.2344 171.4063,137.2344 Q168.9063,137.2344 167.5781,135.5938 Q166.2656,133.9375 166.2656,130.8125 Q166.2656,127.6875 167.5781,126.0313 Q168.9063,124.375 171.4063,124.375 Q172.1094,124.375 172.75,124.5313 Q173.4063,124.6875 173.9688,124.9844 L173.9688,127.7031 Q173.3438,127.125 172.75,126.8594 Q172.1563,126.5781 171.5313,126.5781 Q170.1875,126.5781 169.5,127.6563 Q168.8125,128.7188 168.8125,130.8125 Q168.8125,132.9063 169.5,133.9844 Q170.1875,135.0469 171.5313,135.0469 Q172.1563,135.0469 172.75,134.7813 Q173.3438,134.5 173.9688,133.9219 L173.9688,136.6406 Z " fill="#000000"/><text fill="#000000" font-family="sans-serif" font-size="14" lengthAdjust="spacing" textLength="44.2678" x="185" y="136.432">Owner</text><line style="stroke:#181818;stroke-width:0.5;" x1="157" x2="231.2678" y1="147" y2="147"/><line style="stroke:#181818;stroke-width:0.5;" x1="157" x2="231.2678" y1="155" y2="155"/></g><!--class Repo--><g id="elem_Repo"><rect codeLine="5" fill="#F1F1F1" height="48" id="Repo" rx="2.5" ry="2.5" style="stroke:#181818;stroke-width:0.5;" width="65.6839" x="161" y="223"/><ellipse cx="176" cy="239" fill="#ADD1B2" rx="11" ry="11" style="stroke:#181818;stroke-width:1.0;"/><path d="M178.9688,244.6406 Q178.3906,244.9375 177.75,245.0781 Q177.1094,245.2344 176.4063,245.2344 Q173.9063,245.2344 172.5781,243.5938 Q171.2656,241.9375 171.2656,238.8125 Q171.2656,235.6875 172.5781,234.0313 Q173.9063,232.375 176.4063,232.375 Q177.1094,232.375 177.75,232.5313 Q178.4063,232.6875 178.9688,232.9844 L178.9688,235.7031 Q178.3438,235.125 177.75,234.8594 Q177.1563,234.5781 176.5313,234.5781 Q175.1875,234.5781 174.5,235.6563 Q173.8125,236.7188 173.8125,238.8125 Q173.8125,240.9063 174.5,241.9844 Q175.1875,243.0469 176.5313,243.0469 Q177.1563,243.0469 177.75,242.7813 Q178.3438,242.5 178.9688,241.9219 L178.9688,244.6406 Z " fill="#000000"/><text fill="#000000" font-family="sans-serif" font-size="14" lengthAdjust="spacing" textLength="33.6839" x="190" y="244.432">Repo</text><line style="stroke:#181818;stroke-width:0.5;" x1="162" x2="225.6839" y1="255" y2="255"/><line style="stroke:#181818;stroke-width:0.5;" x1="162" x2="225.6839" y1="263" y2="263"/></g><!--class Fork--><g id="elem_Fork"><rect codeLine="7" fill="#F1F1F1" height="48" id="Fork" rx="2.5" ry="2.5" style="stroke:#181818;stroke-width:0.5;" width="60.9939" x="47.5" y="350"/><ellipse cx="62.5" cy="366" fill="#ADD1B2" rx="11" ry="11" style="stroke:#181818;stroke-width:1.0;"/><path d="M65.4688,371.6406 Q64.8906,371.9375 64.25,372.0781 Q63.6094,372.2344 62.9063,372.2344 Q60.4063,372.2344 59.0781,370.5938 Q57.7656,368.9375 57.7656,365.8125 Q57.7656,362.6875 59.0781,361.0313 Q60.4063,359.375 62.9063,359.375 Q63.6094,359.375 64.25,359.5313 Q64.9063,359.6875 65.4688,359.9844 L65.4688,362.7031 Q64.8438,362.125 64.25,361.8594 Q63.6563,361.5781 63.0313,361.5781 Q61.6875,361.5781 61,362.6563 Q60.3125,363.7188 60.3125,365.8125 Q60.3125,367.9063 61,368.9844 Q61.6875,370.0469 63.0313,370.0469 Q63.6563,370.0469 64.25,369.7813 Q64.8438,369.5 65.4688,368.9219 L65.4688,371.6406 Z " fill="#000000"/><text fill="#000000" font-family="sans-serif" font-size="14" lengthAdjust="spacing" textLength="28.9939" x="76.5" y="371.432">Fork</text><line style="stroke:#181818;stroke-width:0.5;" x1="48.5" x2="107.4939" y1="382" y2="382"/><line style="stroke:#181818;stroke-width:0.5;" x1="48.5" x2="107.4939" y1="390" y2="390"/></g><!--class Issue--><g id="elem_Issue"><rect codeLine="8" fill="#F1F1F1" height="86.1358" id="Issue" rx="2.5" ry="2.5" style="stroke:#181818;stroke-width:0.5;" width="101.3897" x="143.5" y="331"/><ellipse cx="174.1077" cy="347" fill="#ADD1B2" rx="11" ry="11" style="stroke:#181818;stroke-width:1.0;"/><path d="M177.0765,352.6406 Q176.4984,352.9375 175.8577,353.0781 Q175.2171,353.2344 174.514,353.2344 Q172.014,353.2344 170.6859,351.5938 Q169.3734,349.9375 169.3734,346.8125 Q169.3734,343.6875 170.6859,342.0313 Q172.014,340.375 174.514,340.375 Q175.2171,340.375 175.8577,340.5313 Q176.514,340.6875 177.0765,340.9844 L177.0765,343.7031 Q176.4515,343.125 175.8577,342.8594 Q175.264,342.5781 174.639,342.5781 Q173.2952,342.5781 172.6077,343.6563 Q171.9202,344.7188 171.9202,346.8125 Q171.9202,348.9063 172.6077,349.9844 Q173.2952,351.0469 174.639,351.0469 Q175.264,351.0469 175.8577,350.7813 Q176.4515,350.5 177.0765,349.9219 L177.0765,352.6406 Z " fill="#000000"/><text fill="#000000" font-family="sans-serif" font-size="14" lengthAdjust="spacing" textLength="34.7059" x="191.5761" y="352.432">Issue</text><line style="stroke:#181818;stroke-width:0.5;" x1="144.5" x2="243.8897" y1="363" y2="363"/><ellipse cx="154.5" cy="378.034" fill="none" rx="3" ry="3" style="stroke:#038048;stroke-width:1.0;"/><text fill="#000000" font-family="sans-serif" font-size="14" lengthAdjust="spacing" textLength="34.4539" x="163.5" y="381.9659">titulo</text><ellipse cx="154.5" cy="397.1019" fill="none" rx="3" ry="3" style="stroke:#038048;stroke-width:1.0;"/><text fill="#000000" font-family="sans-serif" font-size="14" lengthAdjust="spacing" textLength="75.3897" x="163.5" y="401.0339">descripcion</text><line style="stroke:#181818;stroke-width:0.5;" x1="144.5" x2="243.8897" y1="409.1358" y2="409.1358"/></g><!--class Branch--><g id="elem_Branch"><rect codeLine="12" fill="#F1F1F1" height="48" id="Branch" rx="2.5" ry="2.5" style="stroke:#181818;stroke-width:0.5;" width="78.7598" x="279.5" y="350"/><ellipse cx="294.5" cy="366" fill="#ADD1B2" rx="11" ry="11" style="stroke:#181818;stroke-width:1.0;"/><path d="M297.4688,371.6406 Q296.8906,371.9375 296.25,372.0781 Q295.6094,372.2344 294.9063,372.2344 Q292.4063,372.2344 291.0781,370.5938 Q289.7656,368.9375 289.7656,365.8125 Q289.7656,362.6875 291.0781,361.0313 Q292.4063,359.375 294.9063,359.375 Q295.6094,359.375 296.25,359.5313 Q296.9063,359.6875 297.4688,359.9844 L297.4688,362.7031 Q296.8438,362.125 296.25,361.8594 Q295.6563,361.5781 295.0313,361.5781 Q293.6875,361.5781 293,362.6563 Q292.3125,363.7188 292.3125,365.8125 Q292.3125,367.9063 293,368.9844 Q293.6875,370.0469 295.0313,370.0469 Q295.6563,370.0469 296.25,369.7813 Q296.8438,369.5 297.4688,368.9219 L297.4688,371.6406 Z " fill="#000000"/><text fill="#000000" font-family="sans-serif" font-size="14" lengthAdjust="spacing" textLength="46.7598" x="308.5" y="371.432">Branch</text><line style="stroke:#181818;stroke-width:0.5;" x1="280.5" x2="357.2598" y1="382" y2="382"/><line style="stroke:#181818;stroke-width:0.5;" x1="280.5" x2="357.2598" y1="390" y2="390"/></g><!--class PullRequest--><g id="elem_PullRequest"><rect codeLine="13" fill="#F1F1F1" height="48" id="PullRequest" rx="2.5" ry="2.5" style="stroke:#181818;stroke-width:0.5;" width="109.8677" x="54" y="477"/><ellipse cx="69" cy="493" fill="#ADD1B2" rx="11" ry="11" style="stroke:#181818;stroke-width:1.0;"/><path d="M71.9688,498.6406 Q71.3906,498.9375 70.75,499.0781 Q70.1094,499.2344 69.4063,499.2344 Q66.9063,499.2344 65.5781,497.5938 Q64.2656,495.9375 64.2656,492.8125 Q64.2656,489.6875 65.5781,488.0313 Q66.9063,486.375 69.4063,486.375 Q70.1094,486.375 70.75,486.5313 Q71.4063,486.6875 71.9688,486.9844 L71.9688,489.7031 Q71.3438,489.125 70.75,488.8594 Q70.1563,488.5781 69.5313,488.5781 Q68.1875,488.5781 67.5,489.6563 Q66.8125,490.7188 66.8125,492.8125 Q66.8125,494.9063 67.5,495.9844 Q68.1875,497.0469 69.5313,497.0469 Q70.1563,497.0469 70.75,496.7813 Q71.3438,496.5 71.9688,495.9219 L71.9688,498.6406 Z " fill="#000000"/><text fill="#000000" font-family="sans-serif" font-size="14" lengthAdjust="spacing" textLength="77.8677" x="83" y="498.432">PullRequest</text><line style="stroke:#181818;stroke-width:0.5;" x1="55" x2="162.8677" y1="509" y2="509"/><line style="stroke:#181818;stroke-width:0.5;" x1="55" x2="162.8677" y1="517" y2="517"/></g><!--class Version--><g id="elem_Version"><rect codeLine="14" fill="#F1F1F1" height="48" id="Version" rx="2.5" ry="2.5" style="stroke:#181818;stroke-width:0.5;" width="81.5178" x="231" y="477"/><ellipse cx="246" cy="493" fill="#ADD1B2" rx="11" ry="11" style="stroke:#181818;stroke-width:1.0;"/><path d="M248.9688,498.6406 Q248.3906,498.9375 247.75,499.0781 Q247.1094,499.2344 246.4063,499.2344 Q243.9063,499.2344 242.5781,497.5938 Q241.2656,495.9375 241.2656,492.8125 Q241.2656,489.6875 242.5781,488.0313 Q243.9063,486.375 246.4063,486.375 Q247.1094,486.375 247.75,486.5313 Q248.4063,486.6875 248.9688,486.9844 L248.9688,489.7031 Q248.3438,489.125 247.75,488.8594 Q247.1563,488.5781 246.5313,488.5781 Q245.1875,488.5781 244.5,489.6563 Q243.8125,490.7188 243.8125,492.8125 Q243.8125,494.9063 244.5,495.9844 Q245.1875,497.0469 246.5313,497.0469 Q247.1563,497.0469 247.75,496.7813 Q248.3438,496.5 248.9688,495.9219 L248.9688,498.6406 Z " fill="#000000"/><text fill="#000000" font-family="sans-serif" font-size="14" lengthAdjust="spacing" textLength="49.5178" x="260" y="498.432">Version</text><line style="stroke:#181818;stroke-width:0.5;" x1="232" x2="311.5178" y1="509" y2="509"/><line style="stroke:#181818;stroke-width:0.5;" x1="232" x2="311.5178" y1="517" y2="517"/></g><!--class Commits--><g id="elem_Commits"><rect codeLine="15" fill="#F1F1F1" height="105.2038" id="Commits" rx="2.5" ry="2.5" style="stroke:#181818;stroke-width:0.5;" width="90.8698" x="273.5" y="585"/><ellipse cx="288.5" cy="601" fill="#ADD1B2" rx="11" ry="11" style="stroke:#181818;stroke-width:1.0;"/><path d="M291.4688,606.6406 Q290.8906,606.9375 290.25,607.0781 Q289.6094,607.2344 288.9063,607.2344 Q286.4063,607.2344 285.0781,605.5938 Q283.7656,603.9375 283.7656,600.8125 Q283.7656,597.6875 285.0781,596.0313 Q286.4063,594.375 288.9063,594.375 Q289.6094,594.375 290.25,594.5313 Q290.9063,594.6875 291.4688,594.9844 L291.4688,597.7031 Q290.8438,597.125 290.25,596.8594 Q289.6563,596.5781 289.0313,596.5781 Q287.6875,596.5781 287,597.6563 Q286.3125,598.7188 286.3125,600.8125 Q286.3125,602.9063 287,603.9844 Q287.6875,605.0469 289.0313,605.0469 Q289.6563,605.0469 290.25,604.7813 Q290.8438,604.5 291.4688,603.9219 L291.4688,606.6406 Z " fill="#000000"/><text fill="#000000" font-family="sans-serif" font-size="14" lengthAdjust="spacing" textLength="58.8698" x="302.5" y="606.432">Commits</text><line style="stroke:#181818;stroke-width:0.5;" x1="274.5" x2="363.3698" y1="617" y2="617"/><ellipse cx="284.5" cy="632.034" fill="none" rx="3" ry="3" style="stroke:#038048;stroke-width:1.0;"/><text fill="#000000" font-family="sans-serif" font-size="14" lengthAdjust="spacing" textLength="35.8119" x="293.5" y="635.9659">autor</text><ellipse cx="284.5" cy="651.1019" fill="none" rx="3" ry="3" style="stroke:#038048;stroke-width:1.0;"/><text fill="#000000" font-family="sans-serif" font-size="14" lengthAdjust="spacing" textLength="34.4539" x="293.5" y="655.0339">titulo</text><ellipse cx="284.5" cy="670.1698" fill="none" rx="3" ry="3" style="stroke:#038048;stroke-width:1.0;"/><text fill="#000000" font-family="sans-serif" font-size="14" lengthAdjust="spacing" textLength="35.9379" x="293.5" y="674.1018">fecha</text><line style="stroke:#181818;stroke-width:0.5;" x1="274.5" x2="363.3698" y1="682.2038" y2="682.2038"/></g><!--class Archivos--><g id="elem_Archivos"><rect codeLine="20" fill="#F1F1F1" height="48" id="Archivos" rx="2.5" ry="2.5" style="stroke:#181818;stroke-width:0.5;" width="87.9998" x="275" y="750"/><ellipse cx="290" cy="766" fill="#ADD1B2" rx="11" ry="11" style="stroke:#181818;stroke-width:1.0;"/><path d="M292.9688,771.6406 Q292.3906,771.9375 291.75,772.0781 Q291.1094,772.2344 290.4063,772.2344 Q287.9063,772.2344 286.5781,770.5938 Q285.2656,768.9375 285.2656,765.8125 Q285.2656,762.6875 286.5781,761.0313 Q287.9063,759.375 290.4063,759.375 Q291.1094,759.375 291.75,759.5313 Q292.4063,759.6875 292.9688,759.9844 L292.9688,762.7031 Q292.3438,762.125 291.75,761.8594 Q291.1563,761.5781 290.5313,761.5781 Q289.1875,761.5781 288.5,762.6563 Q287.8125,763.7188 287.8125,765.8125 Q287.8125,767.9063 288.5,768.9844 Q289.1875,770.0469 290.5313,770.0469 Q291.1563,770.0469 291.75,769.7813 Q292.3438,769.5 292.9688,768.9219 L292.9688,771.6406 Z " fill="#000000"/><text fill="#000000" font-family="sans-serif" font-size="14" lengthAdjust="spacing" textLength="55.9998" x="304" y="771.432">Archivos</text><line style="stroke:#181818;stroke-width:0.5;" x1="276" x2="361.9998" y1="782" y2="782"/><line style="stroke:#181818;stroke-width:0.5;" x1="276" x2="361.9998" y1="790" y2="790"/></g><!--reverse link Usuario to Owner--><g id="link_Usuario_Owner"><path codeLine="22" d="M152.51,70.3444 C163.34,88.0044 168.82,96.94 179.7,114.68 " fill="none" id="Usuario-backto-Owner" style="stroke:#181818;stroke-width:1.0;"/><polygon fill="none" points="143.1,55,147.3952,73.4811,157.6248,67.2078,143.1,55" style="stroke:#181818;stroke-width:1.0;"/></g><!--reverse link Usuario to Colaborador--><g id="link_Usuario_Colaborador"><path codeLine="23" d="M105.49,70.3444 C94.66,88.0044 89.18,96.94 78.3,114.68 " fill="none" id="Usuario-backto-Colaborador" style="stroke:#181818;stroke-width:1.0;"/><polygon fill="none" points="114.9,55,100.3752,67.2078,110.6048,73.4811,114.9,55" style="stroke:#181818;stroke-width:1.0;"/></g><!--link Owner to Repo--><g id="link_Owner_Repo"><path codeLine="24" d="M194,163 C194,180.66 194,198.94 194,216.68 " fill="none" id="Owner-to-Repo" style="stroke:#181818;stroke-width:1.0;"/><polygon fill="#181818" points="194,222.68,198,213.68,194,217.68,190,213.68,194,222.68" style="stroke:#181818;stroke-width:1.0;"/></g><!--link Repo to Branch--><g id="link_Repo_Branch"><path codeLine="25" d="M221.4626,275.4626 C243.9126,297.9126 269.2574,323.2574 291.6674,345.6674 " fill="none" id="Repo-Branch" style="stroke:#181818;stroke-width:1.0;"/><polygon fill="#181818" points="217.22,271.22,220.7555,280.4124,220.7555,274.7555,226.4124,274.7555,217.22,271.22" style="stroke:#181818;stroke-width:1.0;"/><polygon fill="#181818" points="295.91,349.91,292.3745,340.7176,292.3745,346.3745,286.7176,346.3745,295.91,349.91" style="stroke:#181818;stroke-width:1.0;"/></g><!--link Repo to Fork--><g id="link_Repo_Fork"><path codeLine="26" d="M172.45,271.22 C151.62,293.67 124.3117,323.1023 103.5117,345.5123 " fill="none" id="Repo-to-Fork" style="stroke:#181818;stroke-width:1.0;"/><polygon fill="#181818" points="99.43,349.91,108.4844,346.0346,102.8314,346.2453,102.6208,340.5923,99.43,349.91" style="stroke:#181818;stroke-width:1.0;"/></g><!--link Repo to Issue--><g id="link_Repo_Issue"><path codeLine="27" d="M194,271.22 C194,287.95 194,305 194,324.94 " fill="none" id="Repo-to-Issue" style="stroke:#181818;stroke-width:1.0;"/><polygon fill="#181818" points="194,330.94,198,321.94,194,325.94,190,321.94,194,330.94" style="stroke:#181818;stroke-width:1.0;"/></g><!--link Branch to PullRequest--><g id="link_Branch_PullRequest"><path codeLine="28" d="M289.37,398.03 C280.72,404.42 271.13,411.2 262,417 C227.31,439.04 191.6382,458.3508 160.8082,474.1708 " fill="none" id="Branch-to-PullRequest" style="stroke:#181818;stroke-width:1.0;"/><polygon fill="#181818" points="155.47,476.91,165.3035,476.36,159.9185,474.6273,161.6512,469.2423,155.47,476.91" style="stroke:#181818;stroke-width:1.0;"/></g><!--link Branch to Version--><g id="link_Branch_Version"><path codeLine="29" d="M310.27,398.22 C301.83,420.67 291.2225,448.8842 282.7925,471.2942 " fill="none" id="Branch-to-Version" style="stroke:#181818;stroke-width:1.0;"/><polygon fill="#181818" points="280.68,476.91,287.5926,469.8946,282.4404,472.2302,280.1049,467.0779,280.68,476.91" style="stroke:#181818;stroke-width:1.0;"/></g><!--link Branch to Commits--><g id="link_Branch_Commits"><path codeLine="30" d="M322.49,398.02 C325.43,418.65 329.4,449.77 331,477 C333.11,513.04 330.6777,547.6495 327.0777,578.8495 " fill="none" id="Branch-to-Commits" style="stroke:#181818;stroke-width:1.0;"/><polygon fill="#181818" points="326.39,584.81,331.3953,576.3278,326.9631,579.843,323.448,575.4108,326.39,584.81" style="stroke:#181818;stroke-width:1.0;"/><text fill="#000000" font-family="sans-serif" font-size="13" lengthAdjust="spacing" textLength="7.436" x="315.57" y="419.9298">1</text><text fill="#000000" font-family="sans-serif" font-size="13" lengthAdjust="spacing" textLength="21.567" x="305.0017" y="573.1375">0..*</text></g><!--link Commits to Archivos--><g id="link_Commits_Archivos"><path codeLine="31" d="M319,690.12 C319,710.71 319,727.38 319,743.79 " fill="none" id="Commits-to-Archivos" style="stroke:#181818;stroke-width:1.0;"/><polygon fill="#181818" points="319,749.79,323,740.79,319,744.79,315,740.79,319,749.79" style="stroke:#181818;stroke-width:1.0;"/></g><!--link Fork to PullRequest--><g id="link_Fork_PullRequest"><path codeLine="32" d="M83.76,398.22 C89.33,420.67 97.71,454.5 103.27,476.91 " fill="none" id="Fork-PullRequest" style="stroke:#181818;stroke-width:1.0;stroke-dasharray:7.0,7.0;"/></g><!--link Version to Commits--><g id="link_Version_Commits"><path codeLine="33" d="M280.08,525.12 C285.83,541.57 293.78,564.32 301,584.98 " fill="none" id="Version-Commits" style="stroke:#181818;stroke-width:1.0;stroke-dasharray:7.0,7.0;"/></g><!--SRC=[LO_12i8m38RlVOgoexAXTn5K43mfWjvhhQpOBTgqUb3VNHlJiTtoVscJVDefH7d0gBm5eIcjmAaJU7K6psJxR4skz-O6yYK-7DVWhrnk4AFvjQGS1nkYWrIT3MflRzf2s_rPUjNgciCkEhStzsWmC3aQZ-bvlgPfRC3_N1N3xwZ1WelHjUf6BxokxGDG27QIitTPii00zIsfBSjoJdQ256SfygK4KYRRBf6m-ByXq7VfuIp4g9WMX8j9LOsAB2YoQ6fr6ccXhAh1P1wNSFxx1G00]--></g></svg>